<?xml version="1.0" encoding="UTF-8"?>
<svg xmlns="http://www.w3.org/2000/svg" xmlns:xlink="http://www.w3.org/1999/xlink" viewBox="0 0 702 504.84">
  <defs>
    <style>
      .cls-1 {
        fill: #c6659c;
      }

      .cls-2 {
        fill: url(#_Áåçûìÿííûé_ãðàäèåíò_35);
      }

      .cls-2, .cls-3, .cls-4, .cls-5, .cls-6, .cls-7, .cls-8, .cls-9, .cls-10, .cls-11, .cls-12, .cls-13, .cls-14, .cls-15, .cls-16, .cls-17, .cls-18, .cls-19, .cls-20, .cls-21, .cls-22, .cls-23, .cls-24, .cls-25, .cls-26, .cls-27, .cls-28, .cls-29, .cls-30, .cls-31, .cls-32, .cls-33, .cls-34, .cls-35, .cls-36, .cls-37, .cls-38, .cls-39, .cls-40, .cls-41, .cls-42, .cls-43, .cls-44, .cls-45 {
        mix-blend-mode: multiply;
      }

      .cls-2, .cls-12, .cls-27, .cls-46, .cls-36, .cls-37, .cls-38, .cls-45 {
        opacity: .6;
      }

      .cls-47 {
        fill: #ebefff;
        font-family: Lato-Black, Lato;
        font-size: 18.17px;
        font-weight: 800;
      }

      .cls-48 {
        fill: #744ca2;
      }

      .cls-3 {
        fill: url(#_Áåçûìÿííûé_ãðàäèåíò_27);
      }

      .cls-3, .cls-43 {
        opacity: .62;
      }

      .cls-4 {
        fill: url(#_Áåçûìÿííûé_ãðàäèåíò_285-2);
      }

      .cls-4, .cls-44 {
        opacity: .8;
      }

      .cls-49 {
        fill: #fff;
      }

      .cls-50 {
        fill: url(#_Áåçûìÿííûé_ãðàäèåíò_107-3);
      }

      .cls-50, .cls-51, .cls-52, .cls-53, .cls-54, .cls-55, .cls-56, .cls-39, .cls-57 {
        fill-rule: evenodd;
      }

      .cls-5 {
        fill: url(#_Áåçûìÿííûé_ãðàäèåíò_4-6);
      }

      .cls-5, .cls-6, .cls-7, .cls-10, .cls-11, .cls-13, .cls-14, .cls-15, .cls-16, .cls-18, .cls-19, .cls-20, .cls-21, .cls-22, .cls-23, .cls-58, .cls-30, .cls-31, .cls-32, .cls-33, .cls-34, .cls-39, .cls-40, .cls-42 {
        opacity: .5;
      }

      .cls-59 {
        fill: url(#_Áåçûìÿííûé_ãðàäèåíò_302);
      }

      .cls-60 {
        fill: #34c7ff;
      }

      .cls-61 {
        fill: #fff7d4;
      }

      .cls-6 {
        fill: url(#_Áåçûìÿííûé_ãðàäèåíò_397);
      }

      .cls-62 {
        fill: url(#_Áåçûìÿííûé_ãðàäèåíò_141-6);
      }

      .cls-63 {
        opacity: .73;
      }

      .cls-63, .cls-64 {
        fill: #c07f00;
      }

      .cls-65 {
        fill: #ffebed;
      }

      .cls-7 {
        fill: #7a4ac0;
      }

      .cls-8 {
        fill: url(#_Áåçûìÿííûé_ãðàäèåíò_73-2);
      }

      .cls-8, .cls-28 {
        opacity: .91;
      }

      .cls-66 {
        fill: url(#_Áåçûìÿííûé_ãðàäèåíò_141-2);
      }

      .cls-9 {
        fill: url(#_Áåçûìÿííûé_ãðàäèåíò_70-7);
      }

      .cls-9, .cls-17, .cls-24, .cls-25, .cls-26, .cls-29 {
        opacity: .3;
      }

      .cls-10 {
        fill: url(#_Áåçûìÿííûé_ãðàäèåíò_4-8);
      }

      .cls-67 {
        isolation: isolate;
      }

      .cls-11 {
        fill: url(#_Áåçûìÿííûé_ãðàäèåíò_4-10);
      }

      .cls-12 {
        fill: url(#_Áåçûìÿííûé_ãðàäèåíò_52);
      }

      .cls-13 {
        fill: url(#_Áåçûìÿííûé_ãðàäèåíò_4-3);
      }

      .cls-51 {
        fill: url(#_Áåçûìÿííûé_ãðàäèåíò_206-2);
      }

      .cls-14 {
        fill: url(#_Áåçûìÿííûé_ãðàäèåíò_4-4);
      }

      .cls-52 {
        fill: url(#_Áåçûìÿííûé_ãðàäèåíò_107-2);
      }

      .cls-68 {
        fill: #6877ff;
      }

      .cls-69 {
        fill: url(#_Áåçûìÿííûé_ãðàäèåíò_64);
      }

      .cls-70 {
        fill: url(#_Áåçûìÿííûé_ãðàäèåíò_141);
      }

      .cls-15 {
        fill: url(#_Áåçûìÿííûé_ãðàäèåíò_4-2);
      }

      .cls-71 {
        fill: url(#_Áåçûìÿííûé_ãðàäèåíò_25);
      }

      .cls-72 {
        fill: #e28183;
      }

      .cls-73 {
        fill: url(#_Áåçûìÿííûé_ãðàäèåíò_178);
      }

      .cls-16 {
        fill: url(#_Áåçûìÿííûé_ãðàäèåíò_70-11);
      }

      .cls-17 {
        fill: url(#_Áåçûìÿííûé_ãðàäèåíò_85);
      }

      .cls-74 {
        fill: url(#_Áåçûìÿííûé_ãðàäèåíò_71);
      }

      .cls-75, .cls-53 {
        mix-blend-mode: soft-light;
      }

      .cls-76 {
        fill: url(#_Áåçûìÿííûé_ãðàäèåíò_71-4);
      }

      .cls-18 {
        fill: url(#_Áåçûìÿííûé_ãðàäèåíò_4-5);
      }

      .cls-19 {
        fill: url(#_Áåçûìÿííûé_ãðàäèåíò_4);
      }

      .cls-77 {
        fill: #4f31e0;
      }

      .cls-78 {
        fill: url(#_Áåçûìÿííûé_ãðàäèåíò_322-2);
      }

      .cls-20 {
        fill: url(#_Áåçûìÿííûé_ãðàäèåíò_70-13);
      }

      .cls-79 {
        fill: url(#_Áåçûìÿííûé_ãðàäèåíò_59);
      }

      .cls-80 {
        fill: #7f9ec9;
      }

      .cls-81 {
        fill: #473da2;
      }

      .cls-82 {
        fill: #ee8183;
      }

      .cls-21 {
        fill: url(#_Áåçûìÿííûé_ãðàäèåíò_4-9);
      }

      .cls-53 {
        fill: #b3d9ff;
      }

      .cls-83 {
        fill: #ff1d9c;
      }

      .cls-22 {
        fill: url(#_Áåçûìÿííûé_ãðàäèåíò_70-8);
      }

      .cls-23 {
        fill: url(#_Áåçûìÿííûé_ãðàäèåíò_70-3);
      }

      .cls-24 {
        fill: url(#_Áåçûìÿííûé_ãðàäèåíò_70-10);
      }

      .cls-84 {
        fill: url(#_Áåçûìÿííûé_ãðàäèåíò_387);
      }

      .cls-85 {
        fill: #f1f1f4;
      }

      .cls-25 {
        fill: url(#_Áåçûìÿííûé_ãðàäèåíò_85-2);
      }

      .cls-86 {
        fill: url(#_Áåçûìÿííûé_ãðàäèåíò_141-3);
      }

      .cls-54 {
        fill: url(#_Áåçûìÿííûé_ãðàäèåíò_206-4);
      }

      .cls-26 {
        fill: url(#_Áåçûìÿííûé_ãðàäèåíò_85-4);
      }

      .cls-58 {
        fill: url(#_Áåçûìÿííûé_ãðàäèåíò_95);
        mix-blend-mode: screen;
      }

      .cls-27 {
        fill: url(#_Áåçûìÿííûé_ãðàäèåíò_89);
      }

      .cls-28 {
        fill: url(#_Áåçûìÿííûé_ãðàäèåíò_73);
      }

      .cls-29 {
        fill: url(#_Áåçûìÿííûé_ãðàäèåíò_85-3);
      }

      .cls-87 {
        fill: #9f4a8b;
      }

      .cls-30 {
        fill: url(#_Áåçûìÿííûé_ãðàäèåíò_70-4);
      }

      .cls-88 {
        fill: url(#_Áåçûìÿííûé_ãðàäèåíò_64-2);
      }

      .cls-55 {
        fill: url(#_Áåçûìÿííûé_ãðàäèåíò_107);
      }

      .cls-31 {
        fill: url(#_Áåçûìÿííûé_ãðàäèåíò_70-9);
      }

      .cls-89 {
        fill: #38368e;
      }

      .cls-90 {
        fill: url(#_Áåçûìÿííûé_ãðàäèåíò_302-2);
      }

      .cls-56 {
        fill: url(#_Áåçûìÿííûé_ãðàäèåíò_206-3);
      }

      .cls-32 {
        fill: url(#_Áåçûìÿííûé_ãðàäèåíò_70);
      }

      .cls-33 {
        fill: url(#_Áåçûìÿííûé_ãðàäèåíò_70-2);
      }

      .cls-91 {
        fill: #fe9083;
      }

      .cls-34 {
        fill: url(#_Áåçûìÿííûé_ãðàäèåíò_4-7);
      }

      .cls-92 {
        fill: #ffbcaf;
      }

      .cls-46 {
        fill: #36d1f7;
      }

      .cls-93 {
        fill: url(#_Áåçûìÿííûé_ãðàäèåíò_25-2);
      }

      .cls-94 {
        fill: #cb5f7d;
      }

      .cls-35 {
        fill: #d1d4fb;
      }

      .cls-95 {
        fill: #cb4d7a;
      }

      .cls-36 {
        fill: url(#_Áåçûìÿííûé_ãðàäèåíò_48-3);
      }

      .cls-96 {
        fill: url(#_Áåçûìÿííûé_ãðàäèåíò_29);
      }

      .cls-97 {
        letter-spacing: -.02em;
      }

      .cls-98 {
        fill: url(#_Áåçûìÿííûé_ãðàäèåíò_55);
      }

      .cls-37 {
        fill: url(#_Áåçûìÿííûé_ãðàäèåíò_48-2);
      }

      .cls-99 {
        letter-spacing: -.02em;
      }

      .cls-100 {
        fill: url(#_Áåçûìÿííûé_ãðàäèåíò_141-4);
      }

      .cls-38 {
        fill: url(#_Áåçûìÿííûé_ãðàäèåíò_48);
      }

      .cls-101 {
        fill: url(#_Áåçûìÿííûé_ãðàäèåíò_292);
      }

      .cls-102 {
        fill: #e5e2ff;
      }

      .cls-103 {
        fill: url(#_Áåçûìÿííûé_ãðàäèåíò_115);
        opacity: .81;
      }

      .cls-104 {
        fill: url(#_Áåçûìÿííûé_ãðàäèåíò_71-5);
      }

      .cls-105 {
        fill: url(#_Áåçûìÿííûé_ãðàäèåíò_28);
      }

      .cls-39 {
        fill: #601734;
      }

      .cls-106 {
        fill: url(#_Áåçûìÿííûé_ãðàäèåíò_141-5);
      }

      .cls-107 {
        fill: url(#linear-gradient);
      }

      .cls-40 {
        fill: url(#_Áåçûìÿííûé_ãðàäèåíò_70-6);
      }

      .cls-108 {
        fill: url(#_Áåçûìÿííûé_ãðàäèåíò_184);
      }

      .cls-109 {
        fill: url(#_Áåçûìÿííûé_ãðàäèåíò_71-2);
      }

      .cls-110 {
        fill: #ffd95a;
      }

      .cls-57 {
        fill: url(#_Áåçûìÿííûé_ãðàäèåíò_206);
      }

      .cls-111 {
        fill: url(#_Áåçûìÿííûé_ãðàäèåíò_354);
      }

      .cls-41 {
        fill: url(#_Áåçûìÿííûé_ãðàäèåíò_70-5);
        opacity: .76;
      }

      .cls-112 {
        fill: #e0ffff;
      }

      .cls-113 {
        fill: url(#_Áåçûìÿííûé_ãðàäèåíò_322);
      }

      .cls-42 {
        fill: url(#_Áåçûìÿííûé_ãðàäèåíò_70-12);
      }

      .cls-114 {
        fill: url(#_Áåçûìÿííûé_ãðàäèåíò_28-2);
      }

      .cls-43 {
        fill: url(#_Áåçûìÿííûé_ãðàäèåíò_94);
      }

      .cls-115 {
        fill: #d2726c;
      }

      .cls-44 {
        fill: url(#_Áåçûìÿííûé_ãðàäèåíò_285);
      }

      .cls-116 {
        fill: #131163;
      }

      .cls-117 {
        fill: url(#_Áåçûìÿííûé_ãðàäèåíò_71-3);
      }

      .cls-45 {
        fill: url(#_Áåçûìÿííûé_ãðàäèåíò_48-4);
      }
    </style>
    <linearGradient id="_Áåçûìÿííûé_ãðàäèåíò_29" data-name="Áåçûìÿííûé ãðàäèåíò 29" x1="-40.14" y1="458.63" x2="-40.14" y2="350.86" gradientTransform="translate(-2.08 -119.25) rotate(-25.04)" gradientUnits="userSpaceOnUse">
      <stop offset="0" stop-color="#dbccff"/>
      <stop offset="1" stop-color="#d1bbff"/>
    </linearGradient>
    <linearGradient id="_Áåçûìÿííûé_ãðàäèåíò_28" data-name="Áåçûìÿííûé ãðàäèåíò 28" x1="-40.15" y1="462.83" x2="-40.15" y2="355.06" gradientTransform="translate(-2.08 -119.25) rotate(-25.04)" gradientUnits="userSpaceOnUse">
      <stop offset="0" stop-color="#b5a6e7"/>
      <stop offset="1" stop-color="#7760bf"/>
    </linearGradient>
    <linearGradient id="_Áåçûìÿííûé_ãðàäèåíò_28-2" data-name="Áåçûìÿííûé ãðàäèåíò 28" x1="-40.15" y1="436.04" x2="-40.15" y2="390.61" xlink:href="#_Áåçûìÿííûé_ãðàäèåíò_28"/>
    <linearGradient id="_Áåçûìÿííûé_ãðàäèåíò_27" data-name="Áåçûìÿííûé ãðàäèåíò 27" x1="-46.6" y1="391.52" x2="-33.7" y2="391.52" gradientTransform="translate(-2.08 -119.25) rotate(-25.04)" gradientUnits="userSpaceOnUse">
      <stop offset="0" stop-color="#8b8be0"/>
      <stop offset="1" stop-color="#a177b7"/>
    </linearGradient>
    <linearGradient id="_Áåçûìÿííûé_ãðàäèåíò_94" data-name="Áåçûìÿííûé ãðàäèåíò 94" x1="-40.15" y1="394.51" x2="-40.15" y2="386.71" gradientTransform="translate(-2.08 -119.25) rotate(-25.04)" gradientUnits="userSpaceOnUse">
      <stop offset="0" stop-color="#fff"/>
      <stop offset="1" stop-color="#a177b7"/>
    </linearGradient>
    <linearGradient id="_Áåçûìÿííûé_ãðàäèåíò_95" data-name="Áåçûìÿííûé ãðàäèåíò 95" x1="-33.33" y1="440.68" x2="-33.33" y2="390.6" gradientTransform="translate(-2.08 -119.25) rotate(-25.04)" gradientUnits="userSpaceOnUse">
      <stop offset="0" stop-color="#000"/>
      <stop offset="1" stop-color="#fff"/>
    </linearGradient>
    <linearGradient id="_Áåçûìÿííûé_ãðàäèåíò_354" data-name="Áåçûìÿííûé ãðàäèåíò 354" x1="330.4" y1="211.17" x2="330.4" y2="157.26" gradientUnits="userSpaceOnUse">
      <stop offset="0" stop-color="#d5cdf8"/>
      <stop offset="1" stop-color="#f3edfb"/>
    </linearGradient>
    <linearGradient id="_Áåçûìÿííûé_ãðàäèåíò_70" data-name="Áåçûìÿííûé ãðàäèåíò 70" x1="302.65" y1="184.16" x2="358.16" y2="184.16" gradientUnits="userSpaceOnUse">
      <stop offset="0" stop-color="#ccf"/>
      <stop offset="1" stop-color="#755cbb"/>
    </linearGradient>
    <linearGradient id="_Áåçûìÿííûé_ãðàäèåíò_70-2" data-name="Áåçûìÿííûé ãðàäèåíò 70" x1="201.79" y1="257.29" x2="267.95" y2="257.29" xlink:href="#_Áåçûìÿííûé_ãðàäèåíò_70"/>
    <linearGradient id="_Áåçûìÿííûé_ãðàäèåíò_178" data-name="Áåçûìÿííûé ãðàäèåíò 178" x1="199.75" y1="333.37" x2="199.75" y2="206.34" gradientUnits="userSpaceOnUse">
      <stop offset="0" stop-color="#9e8cef"/>
      <stop offset="1" stop-color="#dac7f3"/>
    </linearGradient>
    <linearGradient id="_Áåçûìÿííûé_ãðàäèåíò_55" data-name="Áåçûìÿííûé ãðàäèåíò 55" x1="418.19" y1="296.76" x2="503.43" y2="296.76" gradientUnits="userSpaceOnUse">
      <stop offset="0" stop-color="#a999f1"/>
      <stop offset="1" stop-color="#dac7f3"/>
    </linearGradient>
    <linearGradient id="_Áåçûìÿííûé_ãðàäèåíò_71" data-name="Áåçûìÿííûé ãðàäèåíò 71" x1="172.02" y1="189.02" x2="172.02" y2="155.53" gradientUnits="userSpaceOnUse">
      <stop offset=".02" stop-color="#ffc2a9"/>
      <stop offset="1" stop-color="#ff9595"/>
    </linearGradient>
    <linearGradient id="_Áåçûìÿííûé_ãðàäèåíò_48" data-name="Áåçûìÿííûé ãðàäèåíò 48" x1="193.11" y1="188.23" x2="193.11" y2="132.78" gradientUnits="userSpaceOnUse">
      <stop offset="0" stop-color="#ffeadb"/>
      <stop offset=".99" stop-color="#c27cb6"/>
    </linearGradient>
    <linearGradient id="_Áåçûìÿííûé_ãðàäèåíò_71-2" data-name="Áåçûìÿííûé ãðàäèåíò 71" x1="191.31" y1="225.95" x2="191.31" y2="140.47" xlink:href="#_Áåçûìÿííûé_ãðàäèåíò_71"/>
    <linearGradient id="_Áåçûìÿííûé_ãðàäèåíò_73" data-name="Áåçûìÿííûé ãðàäèåíò 73" x1="176.03" y1="212.61" x2="202.9" y2="212.61" gradientUnits="userSpaceOnUse">
      <stop offset=".02" stop-color="#d1a1d6"/>
      <stop offset=".99" stop-color="#bd89c4"/>
    </linearGradient>
    <linearGradient id="_Áåçûìÿííûé_ãðàäèåíò_71-3" data-name="Áåçûìÿííûé ãðàäèåíò 71" x1="505.19" y1="278.01" x2="505.19" y2="163.71" xlink:href="#_Áåçûìÿííûé_ãðàäèåíò_71"/>
    <linearGradient id="_Áåçûìÿííûé_ãðàäèåíò_48-2" data-name="Áåçûìÿííûé ãðàäèåíò 48" x1="518.69" y1="241.39" x2="518.69" y2="184.6" xlink:href="#_Áåçûìÿííûé_ãðàäèåíò_48"/>
    <linearGradient id="_Áåçûìÿííûé_ãðàäèåíò_64" data-name="Áåçûìÿííûé ãðàäèåíò 64" x1="529.9" y1="221.79" x2="529.9" y2="196.33" gradientUnits="userSpaceOnUse">
      <stop offset="0" stop-color="#ffb0b0"/>
      <stop offset=".98" stop-color="#ffc2a9"/>
    </linearGradient>
    <linearGradient id="_Áåçûìÿííûé_ãðàäèåíò_64-2" data-name="Áåçûìÿííûé ãðàäèåíò 64" x1="544.66" y1="225.71" x2="544.66" y2="211.75" xlink:href="#_Áåçûìÿííûé_ãðàäèåíò_64"/>
    <linearGradient id="_Áåçûìÿííûé_ãðàäèåíò_73-2" data-name="Áåçûìÿííûé ãðàäèåíò 73" x1="484.96" y1="253.53" x2="510.92" y2="253.53" xlink:href="#_Áåçûìÿííûé_ãðàäèåíò_73"/>
    <linearGradient id="_Áåçûìÿííûé_ãðàäèåíò_70-3" data-name="Áåçûìÿííûé ãðàäèåíò 70" x1="448.82" y1="343.14" x2="448.82" y2="215.2" xlink:href="#_Áåçûìÿííûé_ãðàäèåíò_70"/>
    <linearGradient id="_Áåçûìÿííûé_ãðàäèåíò_70-4" data-name="Áåçûìÿííûé ãðàäèåíò 70" x1="167.13" y1="317.36" x2="381.12" y2="317.36" xlink:href="#_Áåçûìÿííûé_ãðàäèåíò_70"/>
    <linearGradient id="_Áåçûìÿííûé_ãðàäèåíò_4" data-name="Áåçûìÿííûé ãðàäèåíò 4" x1="355.78" y1="281.55" x2="396.68" y2="281.55" gradientUnits="userSpaceOnUse">
      <stop offset="0" stop-color="#ccedff"/>
      <stop offset="1" stop-color="#755cbb"/>
    </linearGradient>
    <linearGradient id="_Áåçûìÿííûé_ãðàäèåíò_4-2" data-name="Áåçûìÿííûé ãðàäèåíò 4" x1="318.68" y1="353.34" x2="378.79" y2="353.34" xlink:href="#_Áåçûìÿííûé_ãðàäèåíò_4"/>
    <linearGradient id="_Áåçûìÿííûé_ãðàäèåíò_4-3" data-name="Áåçûìÿííûé ãðàäèåíò 4" x1="321.47" y1="380.52" x2="385.69" y2="380.52" xlink:href="#_Áåçûìÿííûé_ãðàäèåíò_4"/>
    <linearGradient id="_Áåçûìÿííûé_ãðàäèåíò_4-4" data-name="Áåçûìÿííûé ãðàäèåíò 4" x1="266.2" y1="313.22" x2="266.2" y2="241.15" xlink:href="#_Áåçûìÿííûé_ãðàäèåíò_4"/>
    <linearGradient id="_Áåçûìÿííûé_ãðàäèåíò_4-5" data-name="Áåçûìÿííûé ãðàäèåíò 4" x1="272" y1="319.28" x2="272" y2="264.65" xlink:href="#_Áåçûìÿííûé_ãðàäèåíò_4"/>
    <linearGradient id="_Áåçûìÿííûé_ãðàäèåíò_4-6" data-name="Áåçûìÿííûé ãðàäèåíò 4" x1="185.65" y1="249.44" x2="185.65" y2="208.16" xlink:href="#_Áåçûìÿííûé_ãðàäèåíò_4"/>
    <linearGradient id="_Áåçûìÿííûé_ãðàäèåíò_4-7" data-name="Áåçûìÿííûé ãðàäèåíò 4" x1="219.05" y1="213.09" x2="235.69" y2="213.09" xlink:href="#_Áåçûìÿííûé_ãðàäèåíò_4"/>
    <linearGradient id="_Áåçûìÿííûé_ãðàäèåíò_70-5" data-name="Áåçûìÿííûé ãðàäèåíò 70" x1="399.9" y1="313.22" x2="399.9" y2="236.71" xlink:href="#_Áåçûìÿííûé_ãðàäèåíò_70"/>
    <linearGradient id="_Áåçûìÿííûé_ãðàäèåíò_70-6" data-name="Áåçûìÿííûé ãðàäèåíò 70" x1="485.92" y1="296.77" x2="485.92" y2="256.78" xlink:href="#_Áåçûìÿííûé_ãðàäèåíò_70"/>
    <linearGradient id="_Áåçûìÿííûé_ãðàäèåíò_70-7" data-name="Áåçûìÿííûé ãðàäèåíò 70" x1="440.58" y1="294.98" x2="440.58" y2="264.42" xlink:href="#_Áåçûìÿííûé_ãðàäèåíò_70"/>
    <linearGradient id="_Áåçûìÿííûé_ãðàäèåíò_4-8" data-name="Áåçûìÿííûé ãðàäèåíò 4" x1="177.01" y1="252.07" x2="177.01" y2="240.72" xlink:href="#_Áåçûìÿííûé_ãðàäèåíò_4"/>
    <linearGradient id="_Áåçûìÿííûé_ãðàäèåíò_70-8" data-name="Áåçûìÿííûé ãðàäèåíò 70" x1="207.33" y1="286.68" x2="207.33" y2="224.64" xlink:href="#_Áåçûìÿííûé_ãðàäèåíò_70"/>
    <linearGradient id="_Áåçûìÿííûé_ãðàäèåíò_4-9" data-name="Áåçûìÿííûé ãðàäèåíò 4" x1="366.93" y1="243.01" x2="366.93" y2="196.33" xlink:href="#_Áåçûìÿííûé_ãðàäèåíò_4"/>
    <linearGradient id="_Áåçûìÿííûé_ãðàäèåíò_4-10" data-name="Áåçûìÿííûé ãðàäèåíò 4" x1="305.77" y1="236.7" x2="305.77" y2="172.27" xlink:href="#_Áåçûìÿííûé_ãðàäèåíò_4"/>
    <linearGradient id="_Áåçûìÿííûé_ãðàäèåíò_70-9" data-name="Áåçûìÿííûé ãðàäèåíò 70" x1="293.29" y1="186.39" x2="363.33" y2="186.39" xlink:href="#_Áåçûìÿííûé_ãðàäèåíò_70"/>
    <linearGradient id="_Áåçûìÿííûé_ãðàäèåíò_70-10" data-name="Áåçûìÿííûé ãðàäèåíò 70" x1="473.33" y1="292.21" x2="473.33" y2="251.68" xlink:href="#_Áåçûìÿííûé_ãðàäèåíò_70"/>
    <linearGradient id="_Áåçûìÿííûé_ãðàäèåíò_70-11" data-name="Áåçûìÿííûé ãðàäèåíò 70" x1="416.04" y1="337.93" x2="416.04" y2="215.2" xlink:href="#_Áåçûìÿííûé_ãðàäèåíò_70"/>
    <linearGradient id="_Áåçûìÿííûé_ãðàäèåíò_70-12" data-name="Áåçûìÿííûé ãðàäèåíò 70" x1="284.09" y1="395.58" x2="284.09" y2="360.4" xlink:href="#_Áåçûìÿííûé_ãðàäèåíò_70"/>
    <linearGradient id="_Áåçûìÿííûé_ãðàäèåíò_70-13" data-name="Áåçûìÿííûé ãðàäèåíò 70" x1="352.44" y1="385.92" x2="352.44" y2="368.83" xlink:href="#_Áåçûìÿííûé_ãðàäèåíò_70"/>
    <linearGradient id="_Áåçûìÿííûé_ãðàäèåíò_71-4" data-name="Áåçûìÿííûé ãðàäèåíò 71" x1="351.68" y1="166.3" x2="351.68" y2="49.42" xlink:href="#_Áåçûìÿííûé_ãðàäèåíò_71"/>
    <linearGradient id="_Áåçûìÿííûé_ãðàäèåíò_71-5" data-name="Áåçûìÿííûé ãðàäèåíò 71" x1="308.11" y1="119.14" x2="308.11" y2="84.68" xlink:href="#_Áåçûìÿííûé_ãðàäèåíò_71"/>
    <linearGradient id="_Áåçûìÿííûé_ãðàäèåíò_387" data-name="Áåçûìÿííûé ãðàäèåíò 387" x1="367.93" y1="132.17" x2="369.37" y2="124.65" gradientUnits="userSpaceOnUse">
      <stop offset="0" stop-color="#e1616a"/>
      <stop offset="1" stop-color="#ff8883"/>
    </linearGradient>
    <linearGradient id="_Áåçûìÿííûé_ãðàäèåíò_48-3" data-name="Áåçûìÿííûé ãðàäèåíò 48" x1="354.89" y1="126.41" x2="354.89" y2="51.11" xlink:href="#_Áåçûìÿííûé_ãðàäèåíò_48"/>
    <linearGradient id="_Áåçûìÿííûé_ãðàäèåíò_59" data-name="Áåçûìÿííûé ãðàäèåíò 59" x1="351.22" y1="95.58" x2="351.22" y2="80.66" gradientUnits="userSpaceOnUse">
      <stop offset="0" stop-color="#cf6074"/>
      <stop offset="1" stop-color="#f37270"/>
    </linearGradient>
    <linearGradient id="_Áåçûìÿííûé_ãðàäèåíò_184" data-name="Áåçûìÿííûé ãðàäèåíò 184" x1="380.97" y1="100.31" x2="380.97" y2="87.33" gradientUnits="userSpaceOnUse">
      <stop offset="0" stop-color="#cf6074"/>
      <stop offset="1" stop-color="#ff817f"/>
    </linearGradient>
    <linearGradient id="_Áåçûìÿííûé_ãðàäèåíò_48-4" data-name="Áåçûìÿííûé ãðàäèåíò 48" x1="382.19" y1="107.86" x2="382.19" y2="78.65" xlink:href="#_Áåçûìÿííûé_ãðàäèåíò_48"/>
    <linearGradient id="_Áåçûìÿííûé_ãðàäèåíò_292" data-name="Áåçûìÿííûé ãðàäèåíò 292" x1="353.25" y1="167.77" x2="353.25" y2="26.02" gradientUnits="userSpaceOnUse">
      <stop offset="0" stop-color="#2e33a0"/>
      <stop offset="1" stop-color="#0665a5"/>
    </linearGradient>
    <linearGradient id="_Áåçûìÿííûé_ãðàäèåíò_35" data-name="Áåçûìÿííûé ãðàäèåíò 35" x1="390.48" y1="78.51" x2="390.48" y2="45.81" gradientUnits="userSpaceOnUse">
      <stop offset="0" stop-color="#ffeadb"/>
      <stop offset=".99" stop-color="#8860c7"/>
    </linearGradient>
    <linearGradient id="_Áåçûìÿííûé_ãðàäèåíò_52" data-name="Áåçûìÿííûé ãðàäèåíò 52" x1="345.92" y1="167.77" x2="345.92" y2="26.02" gradientUnits="userSpaceOnUse">
      <stop offset="0" stop-color="#ccc2db"/>
      <stop offset=".99" stop-color="#8860c7"/>
    </linearGradient>
    <linearGradient id="_Áåçûìÿííûé_ãðàäèåíò_397" data-name="Áåçûìÿííûé ãðàäèåíò 397" x1="355.43" y1="167.74" x2="355.43" y2="161.65" gradientUnits="userSpaceOnUse">
      <stop offset="0" stop-color="#776d7e"/>
      <stop offset="1" stop-color="#9d68c2"/>
    </linearGradient>
    <linearGradient id="_Áåçûìÿííûé_ãðàäèåíò_141" data-name="Áåçûìÿííûé ãðàäèåíò 141" x1="373.29" y1="36.19" x2="373.29" y2="31.67" gradientUnits="userSpaceOnUse">
      <stop offset="0" stop-color="#1f77d1"/>
      <stop offset="1" stop-color="#0686c9"/>
    </linearGradient>
    <linearGradient id="_Áåçûìÿííûé_ãðàäèåíò_141-2" data-name="Áåçûìÿííûé ãðàäèåíò 141" x1="344.47" y1="51.09" x2="344.47" y2="37.71" xlink:href="#_Áåçûìÿííûé_ãðàäèåíò_141"/>
    <linearGradient id="_Áåçûìÿííûé_ãðàäèåíò_141-3" data-name="Áåçûìÿííûé ãðàäèåíò 141" x1="392.95" y1="57.87" x2="392.95" y2="45.81" xlink:href="#_Áåçûìÿííûé_ãðàäèåíò_141"/>
    <linearGradient id="_Áåçûìÿííûé_ãðàäèåíò_285" data-name="Áåçûìÿííûé ãðàäèåíò 285" x1="313.13" y1="110.97" x2="297.69" y2="92.06" gradientUnits="userSpaceOnUse">
      <stop offset="0" stop-color="#ffeadb"/>
      <stop offset=".99" stop-color="#b060f4"/>
    </linearGradient>
    <linearGradient id="_Áåçûìÿííûé_ãðàäèåíò_285-2" data-name="Áåçûìÿííûé ãðàäèåíò 285" x1="314.74" y1="108.53" x2="307.15" y2="99.23" xlink:href="#_Áåçûìÿííûé_ãðàäèåíò_285"/>
    <linearGradient id="_Áåçûìÿííûé_ãðàäèåíò_141-4" data-name="Áåçûìÿííûé ãðàäèåíò 141" x1="343.58" y1="52.29" x2="369.72" y2="52.29" xlink:href="#_Áåçûìÿííûé_ãðàäèåíò_141"/>
    <linearGradient id="_Áåçûìÿííûé_ãðàäèåíò_141-5" data-name="Áåçûìÿííûé ãðàäèåíò 141" x1="380.45" y1="130.46" x2="388.37" y2="130.46" xlink:href="#_Áåçûìÿííûé_ãðàäèåíò_141"/>
    <linearGradient id="_Áåçûìÿííûé_ãðàäèåíò_141-6" data-name="Áåçûìÿííûé ãðàäèåíò 141" x1="370.66" y1="124.57" x2="379.21" y2="124.57" xlink:href="#_Áåçûìÿííûé_ãðàäèåíò_141"/>
    <linearGradient id="_Áåçûìÿííûé_ãðàäèåíò_89" data-name="Áåçûìÿííûé ãðàäèåíò 89" x1="433.73" y1="145.31" x2="701.78" y2="145.31" gradientUnits="userSpaceOnUse">
      <stop offset="0" stop-color="#9d68c2"/>
      <stop offset="1" stop-color="#aec2ff"/>
    </linearGradient>
    <linearGradient id="_Áåçûìÿííûé_ãðàäèåíò_85" data-name="Áåçûìÿííûé ãðàäèåíò 85" x1="488.26" y1="246.55" x2="488.26" y2="165.7" gradientUnits="userSpaceOnUse">
      <stop offset="0" stop-color="#ccedff"/>
      <stop offset="1" stop-color="#9d68c2"/>
    </linearGradient>
    <linearGradient id="_Áåçûìÿííûé_ãðàäèåíò_85-2" data-name="Áåçûìÿííûé ãðàäèåíò 85" x1="626.12" y1="207.13" x2="626.12" y2="171.52" xlink:href="#_Áåçûìÿííûé_ãðàäèåíò_85"/>
    <linearGradient id="_Áåçûìÿííûé_ãðàäèåíò_85-3" data-name="Áåçûìÿííûé ãðàäèåíò 85" x1="668.13" y1="207.13" x2="668.13" y2="171.52" xlink:href="#_Áåçûìÿííûé_ãðàäèåíò_85"/>
    <linearGradient id="_Áåçûìÿííûé_ãðàäèåíò_85-4" data-name="Áåçûìÿííûé ãðàäèåíò 85" x1="583.4" y1="207.13" x2="583.4" y2="171.52" xlink:href="#_Áåçûìÿííûé_ãðàäèåíò_85"/>
    <linearGradient id="linear-gradient" x1="223.18" y1="119.64" x2="223.18" y2="82.36" gradientUnits="userSpaceOnUse">
      <stop offset="0" stop-color="#ffd95a"/>
      <stop offset="1" stop-color="#c07f00"/>
    </linearGradient>
    <linearGradient id="_Áåçûìÿííûé_ãðàäèåíò_115" data-name="Áåçûìÿííûé ãðàäèåíò 115" x1="193.93" y1="512.32" x2="214.09" y2="351.82" gradientUnits="userSpaceOnUse">
      <stop offset="0" stop-color="#067eff"/>
      <stop offset="1" stop-color="#3e37a0"/>
    </linearGradient>
    <linearGradient id="_Áåçûìÿííûé_ãðàäèåíò_302" data-name="Áåçûìÿííûé ãðàäèåíò 302" x1="664.53" y1="115.58" x2="664.53" y2="102.05" gradientUnits="userSpaceOnUse">
      <stop offset="0" stop-color="#459fff"/>
      <stop offset="1" stop-color="#a96dff"/>
    </linearGradient>
    <linearGradient id="_Áåçûìÿííûé_ãðàäèåíò_302-2" data-name="Áåçûìÿííûé ãðàäèåíò 302" x1="28.7" y1="274.13" x2="28.7" y2="257.29" xlink:href="#_Áåçûìÿííûé_ãðàäèåíò_302"/>
    <linearGradient id="_Áåçûìÿííûé_ãðàäèåíò_322" data-name="Áåçûìÿííûé ãðàäèåíò 322" x1="684.4" y1="115.58" x2="684.4" y2="102.05" gradientUnits="userSpaceOnUse">
      <stop offset="0" stop-color="#b31a8f"/>
      <stop offset="1" stop-color="#fe117e"/>
    </linearGradient>
    <linearGradient id="_Áåçûìÿííûé_ãðàäèåíò_322-2" data-name="Áåçûìÿííûé ãðàäèåíò 322" x1="248.14" y1="160.12" x2="248.14" y2="150.55" xlink:href="#_Áåçûìÿííûé_ãðàäèåíò_322"/>
    <linearGradient id="_Áåçûìÿííûé_ãðàäèåíò_25" data-name="Áåçûìÿííûé ãðàäèåíò 25" x1="568.57" y1="371.21" x2="568.57" y2="361.64" gradientUnits="userSpaceOnUse">
      <stop offset="0" stop-color="#8642a0"/>
      <stop offset="1" stop-color="#6456c0"/>
    </linearGradient>
    <linearGradient id="_Áåçûìÿííûé_ãðàäèåíò_25-2" data-name="Áåçûìÿííûé ãðàäèåíò 25" x1="71.22" y1="418.4" x2="71.22" y2="409.85" xlink:href="#_Áåçûìÿííûé_ãðàäèåíò_25"/>
    <linearGradient id="_Áåçûìÿííûé_ãðàäèåíò_206" data-name="Áåçûìÿííûé ãðàäèåíò 206" x1="579.43" y1="252.26" x2="571.9" y2="187.63" gradientTransform="translate(-13.71 28.47) rotate(15.07)" gradientUnits="userSpaceOnUse">
      <stop offset="0" stop-color="#1852a0"/>
      <stop offset="1" stop-color="#067ed3"/>
    </linearGradient>
    <linearGradient id="_Áåçûìÿííûé_ãðàäèåíò_206-2" data-name="Áåçûìÿííûé ãðàäèåíò 206" x1="572.14" y1="252.5" x2="572.14" y2="186.28" xlink:href="#_Áåçûìÿííûé_ãðàäèåíò_206"/>
    <linearGradient id="_Áåçûìÿííûé_ãðàäèåíò_107" data-name="Áåçûìÿííûé ãðàäèåíò 107" x1="547.06" y1="158.32" x2="542.19" y2="116.51" gradientTransform="translate(31.05 2.43) rotate(19.3) scale(1 1.57)" gradientUnits="userSpaceOnUse">
      <stop offset="0" stop-color="#188dc1"/>
      <stop offset="1" stop-color="#06bfe7"/>
    </linearGradient>
    <linearGradient id="_Áåçûìÿííûé_ãðàäèåíò_107-2" data-name="Áåçûìÿííûé ãðàäèåíò 107" x1="525.41" y1="77.41" x2="542.56" y2="13.7" gradientTransform="matrix(1, 0, 0, 1, 0, 0)" xlink:href="#_Áåçûìÿííûé_ãðàäèåíò_107"/>
    <linearGradient id="_Áåçûìÿííûé_ãðàäèåíò_206-3" data-name="Áåçûìÿííûé ãðàäèåíò 206" x1="495.92" y1="70.06" x2="508.71" y2="22.55" gradientTransform="matrix(1, 0, 0, 1, 0, 0)" xlink:href="#_Áåçûìÿííûé_ãðàäèåíò_206"/>
    <linearGradient id="_Áåçûìÿííûé_ãðàäèåíò_107-3" data-name="Áåçûìÿííûé ãðàäèåíò 107" x1="-528.77" y1="187.13" x2="-517.07" y2="143.7" gradientTransform="translate(-499.34) rotate(-180) scale(1 -1)" xlink:href="#_Áåçûìÿííûé_ãðàäèåíò_107"/>
    <linearGradient id="_Áåçûìÿííûé_ãðàäèåíò_206-4" data-name="Áåçûìÿííûé ãðàäèåíò 206" x1="-548.87" y1="182.12" x2="-540.15" y2="149.73" gradientTransform="translate(-499.34) rotate(-180) scale(1 -1)" xlink:href="#_Áåçûìÿííûé_ãðàäèåíò_206"/>
  </defs>
  <g class="cls-67">
    <g id="Layer_2" data-name="Layer 2">
      <g id="Layer_1-2" data-name="Layer 1">
        <path class="cls-85" d="m125.52,240.91c.01-.37.19-.55.54-.54l10.16.31c1.01.03,1.86.18,2.55.46.7.28,1.26.65,1.68,1.13.42.48.72,1.05.9,1.72s.26,1.41.23,2.23l-.09,2.79c-.02.82-.15,1.56-.36,2.21-.22.66-.55,1.21-1,1.66-.45.45-1.03.79-1.75,1.03-.71.23-1.57.33-2.58.3l-5.47-.17-1.13-3.2h-.15s-.1,3.16-.1,3.16l-3.83-.12.39-12.98Zm3.54,9.58l6.49.2c.73.02,1.26-.12,1.58-.44.32-.31.49-.88.52-1.7l.07-2.27c.03-.84-.11-1.42-.41-1.73-.3-.31-.82-.48-1.55-.5l-6.21-.19c-.09,0-.16.02-.21.08-.05.05-.08.12-.08.19l-.19,6.36Z"/>
        <path class="cls-85" d="m147.07,246.72h-.13s-.12,4.05-.12,4.05c0,.17.08.26.25.27l11.42.35-.11,3.51-14.97-.45c-.36-.01-.53-.2-.52-.57l.38-12.43c.01-.37.2-.55.56-.54l14.54.44c.37.01.55.2.54.57l-.11,3.52-3.59,1.21h-.15s.05-1.81.05-1.81c0-.14-.06-.21-.18-.21l-7.68-.23c-.1,0-.16.02-.2.08-.03.06-.05.11-.05.18l-.05,1.69,6.32.19-.08,2.75-5.3-.16-.82-2.41Z"/>
        <path class="cls-85" d="m172.46,246.47h-.15s.05-1.49.05-1.49c0-.15-.07-.23-.22-.23l-7.14-.22c-.26,0-.44.04-.54.15-.1.11-.16.27-.16.48v.33c-.02.26.02.43.1.51.09.08.25.14.5.18l8.37,1.43c.53.09.98.22,1.35.39.37.17.67.38.89.64.23.26.39.58.47.96.09.37.13.82.11,1.32l-.03,1.08c-.02.56-.1,1.05-.25,1.47-.15.42-.38.78-.7,1.06-.32.28-.73.49-1.25.62-.51.13-1.14.19-1.88.17l-12.05-.37.11-3.51,10.8.33c.32,0,.54-.04.65-.16.11-.11.17-.32.18-.62v-.37c.02-.24-.02-.4-.09-.5-.08-.09-.23-.16-.47-.19l-8.08-1.27c-.54-.09-1.01-.22-1.39-.38-.39-.16-.7-.37-.94-.62-.24-.26-.41-.56-.51-.93-.1-.36-.14-.79-.13-1.29l.03-.95c.03-.98.31-1.73.85-2.25.54-.52,1.41-.77,2.63-.73l12.03.37c.38.01.57.22.56.61l-.08,2.79-3.59,1.19Z"/>
        <path class="cls-85" d="m177.54,255.49l.41-13.54,3.83.12-.41,13.54-3.83-.12Z"/>
        <path class="cls-85" d="m195.59,250.23c0-.2,0-.41-.01-.62-.01-.22-.03-.41-.05-.57v-.17s3.8.12,3.8.12l-.2,6.64c-.01.35-.17.52-.48.51l-10.19-.31c-1.01-.03-1.86-.18-2.56-.46-.7-.27-1.26-.65-1.68-1.13-.42-.48-.72-1.05-.9-1.72-.18-.67-.25-1.41-.23-2.23l.08-2.79c.03-.82.15-1.56.37-2.21.22-.66.55-1.21,1-1.66.45-.45,1.03-.79,1.74-1.03.71-.23,1.57-.33,2.58-.3l10.13.31c.36.01.54.2.52.57l-.09,2.92-3.59,1.19h-.15s.04-1.31.04-1.31c0-.12-.05-.19-.16-.19l-6.47-.2c-.37-.01-.69.01-.94.07-.26.06-.47.17-.64.33-.17.16-.29.38-.37.66-.08.28-.13.62-.14,1.03l-.07,2.38c-.03.82.11,1.39.41,1.73.3.33.82.51,1.55.53l6.42.2c.14,0,.21-.07.21-.22l.06-2.07Z"/>
        <path class="cls-85" d="m207.43,242.84c.29,0,.48.06.6.15.11.09.22.23.31.42l4.84,9.88c.08.15.2.23.35.23h.2c.2.01.3-.08.31-.28l.31-10.19,3.48.11-.39,13c-.01.36-.19.53-.54.52l-5.51-.17c-.26,0-.45-.05-.58-.13-.13-.08-.25-.22-.35-.44l-5.02-9.87c-.07-.15-.19-.23-.35-.23h-.19c-.2-.01-.3.08-.31.28l-.31,10.17-3.48-.11.39-12.98c.01-.37.19-.55.54-.54l5.69.17Z"/>
        <circle class="cls-61" cx="308.46" cy="240.06" r="234.68" transform="translate(-79.4 288.43) rotate(-45)"/>
        <path class="cls-96" d="m135.95,225.04c-5.77-9.93-15.98-14.02-15.98-14.02l-3.56,1.66,8.01,14.54c-1.07,5.59-4.9,8.66-4.9,8.66v-.02s-4.83.97-9.8-1.8l-6.01-15.48-3.56,1.66s-3.41,10.45.5,21.25c0,0,1.52,3.5,1.78,3.81,1.41,1.65,5.09,3.55,12.2,3.11l24.53,46.8c-2.04,3.51-2.39,7.91-.54,11.86,3,6.42,10.63,9.19,17.05,6.19,6.42-3,9.19-10.63,6.19-17.05-1.84-3.95-5.45-6.5-9.44-7.19l-20.14-48.82c4.79-5.06,5.81-9.05,5.44-11.35-.08-.49-1.78-3.81-1.78-3.81Zm20.18,80.71l-6.5,3.04-5.88-4.11.62-7.14,6.5-3.04,5.88,4.11-.62,7.14Z"/>
        <path class="cls-105" d="m137.73,228.85c-5.77-9.93-15.98-14.02-15.98-14.02l-3.56,1.66,8.01,14.54c-1.07,5.59-4.9,8.66-4.9,8.66v-.02s-4.83.97-9.8-1.8l-6.01-15.48-3.56,1.66s-3.41,10.45.5,21.25c0,0,5.55,7.44,13.98,6.91l24.53,46.8c-2.04,3.51-2.39,7.91-.54,11.86,3,6.42,10.63,9.19,17.05,6.19,6.42-3,9.19-10.63,6.19-17.05-1.84-3.95-5.45-6.5-9.44-7.19l-20.14-48.82c5.81-6.13,3.66-15.16,3.66-15.16Zm20.18,80.71l-6.5,3.04-5.88-4.11.62-7.14,6.5-3.04,5.88,4.11-.62,7.14Z"/>
        <rect class="cls-102" x="100.86" y="219.21" width="3.93" height="4.2" transform="translate(-84.01 64.33) rotate(-25.04)"/>
        <rect class="cls-102" x="117.12" y="211.65" width="3.93" height="4.2" transform="translate(-79.29 70.5) rotate(-25.04)"/>
        <rect class="cls-102" x="150.18" y="307.06" width="7.17" height="4.2" transform="translate(-116.41 94.15) rotate(-25.04)"/>
        <g>
          <path class="cls-114" d="m121.67,255.69l19.81,38.08c5.2.24,8-3.74,8-3.74l-16.13-39.8c-7.24-.27-11.68,5.46-11.68,5.46Zm26.28,34.65c-.58.5-1.46,1.16-2.56,1.68-.88.41-1.8.69-2.73.82l-19.84-37.29c.97-.86,2.63-2.13,4.77-3.13,1.6-.75,3.24-1.23,4.91-1.45l15.47,39.38Z"/>
          <path class="cls-102" d="m147.95,290.35l1.53-.31s-2.27,4.03-8,3.74l1.17-.93s2.82-.33,5.3-2.49Z"/>
          <path class="cls-3" d="m121.67,255.69l1.14-.15s3.39-3.51,9.67-4.58l.87-.73s-2.53-.44-6.46,1.4c-3.94,1.84-5.22,4.06-5.22,4.06Z"/>
        </g>
        <path class="cls-43" d="m116.42,252.22s9.53-1.69,17.65-8.22l2.58,6.24s-2.92-2.89-9.33-.28c-7.5,3.06-7.09,9.09-7.09,9.09l-3.8-6.84Z"/>
        <path class="cls-58" d="m136.64,250.25c-1.83-1.31-3.92-1.35-3.92-1.35l19.18,46.32,2.31-2.39-17.57-42.58Z"/>
        <path class="cls-49" d="m136.64,250.25s-2.01,6.19,3.76,9.12l-3.76-9.12Z"/>
        <path class="cls-91" d="m357.53,170.6c.09.65.17,1,.17,1-.74,3.09-1.59,5.95-2.51,8.57-2.97,8.52-6.66,14.58-9.43,18.35-2.41,3.25-4.12,4.81-4.12,4.81-22.09-6.93-32.97-28.54-37.15-39.29-.03-.05-.05-.11-.06-.17-.8-2.03-1.33-3.66-1.67-4.72v-.02c-.26-.85-.38-1.32-.38-1.32.09-.18.18-.38.27-.56l.05-.08c.36-.76.73-1.53,1.06-2.27,2.89-6.33,4.81-12.25,6.06-16.91,1.07-3.97,1.65-7.02,1.92-8.64.14-.83.2-1.29.2-1.29l10.29,5.43,35.47,18.77c-.53,3.25-.74,6.31-.76,8.99-.03,1.89.03,3.59.14,5.03.11,1.76.29,3.15.42,4.06v.02c0,.09.02.15.03.23Z"/>
        <path class="cls-111" d="m347.69,205.71c-2.04,2.03-4.45,3.85-7.33,5.36-.06.05-.12.08-.18.11,0,0-.08-.05-.21-.12l-.02-.02c-.77-.47-3.41-2.09-6.95-4.75-9.27-6.98-24.74-21.09-29.16-40.1-.02-.03-.02-.05-.03-.08-.51-2.26-.88-4.56-1.06-6.95v-.02c-.05-.62-.09-1.24-.11-1.88,0,0,3.07,7.22,8.4,15.02,6.27,9.17,15.67,19.18,26.9,19.24,9.72.06,14.7-6.59,17.23-12.72,1.07-2.6,1.71-5.1,2.04-6.96.02-.02.02-.03.02-.03.11-.55.18-1.03.26-1.44v-.02c.03-.21.06-.39.08-.56.09-.68.12-1.07.12-1.07,0,0,3.72,23.25-10.01,36.98Z"/>
        <path class="cls-32" d="m347.69,205.71c-2.04,2.03-4.45,3.85-7.33,5.36h-.18l-.21-.02-.02-.02c-.77-.47-3.41-2.09-6.95-4.75-9.27-6.98-24.74-21.09-29.16-40.1-.02-.03-.02-.05-.03-.08-.51-2.26-.88-4.56-1.06-6.95v-.02c-.05-.62-.09-1.24-.11-1.88,0,0,3.07,7.22,8.4,15.02,0,0,6.12,16.8,19.35,25.13,6.63,4.16,11.66,3.56,15.35,1.11,3.69-2.44,6.09-6.69,7.49-9.9,1.41-3.22,1.86-6.24,1.94-8.45.02-.5.02-.95,0-1.36,1.07-2.6,1.71-5.1,2.04-6.96.02-.02.02-.03.02-.03.11-.55.18-1.03.26-1.44v-.02c.03-.21.06-.39.08-.56.09-.68.12-1.07.12-1.07,0,0,3.72,23.25-10.01,36.98Z"/>
        <path class="cls-110" d="m432.71,343c-.17.08-.24.12-.24.12-1.24.15-5.1-.7-10.16-5.07l-.02-.02s-.02-.03-.05-.05c-.02-.02-.03-.05-.06-.06-4.24-3.71-9.33-9.9-14.4-20.04-10.14-20.27-13.05-33.81-13.52-36.17l-.06-.36-5.92,9.39c-4.01,12.07-11.61,61.99-11.48,64.14s6.74,12.63,6.6,13.91c0,0,0,.02-.02.03-.18,1.3-3.15,4.16-4,7.28-.58,2.07,3.45,8.61,6.28,13.5v.02c1.47,2.54,2.6,4.63,2.6,5.42,0,2.29-7.18,13.47-7.18,13.47v6.03l-.11.11-.33.3-.27.23c-2.73,2.15-14.28,9.19-50.37,11.13-42.77,2.29-71.26-11.48-71.26-11.48l2.15-5.89s-2-1.71-2.15-2.57c-.14-.86,1.57-2.88,1.57-2.88,0,0-4.3-2.29-4.3-5.16s8.61-11.75,8.33-19.36c-.29-7.6-6.89-14.34-7.75-18.64-.86-4.3,11.19-14.91,11.19-14.91-10.32-32.7-12.34-76.59-12.34-76.59l-2-2.3s-12.34,28.11-23.53,41.87c-1.33,1.64-2.74,3.25-4.19,4.81-3.12,3.38-6.43,6.54-9.63,9.31-7.75,6.75-14.79,11.19-16.58,10.84-2.88-.58-14.35-23.24-13.82-46.48.24-11.05,6.9-23.42,13.82-33.34.74-1.06,1.48-2.1,2.24-3.12,4.91-6.68,9.61-11.91,11.87-14.31.88-.94,1.38-1.44,1.38-1.44,0,0-1.57-5.07-2.65-9.48-.02-.11-.05-.21-.08-.32,0-.05-.02-.11-.03-.15-.02-.08-.03-.11-.03-.11-.64-2.71-1.03-5.06-.67-5.63.95-1.53,6.51-3.25,7.46-4.39.95-1.15,4.97-20.47,8.02-22.57,2.94-2.01,8.1-3.48,25.31-10.25.85-.33,1.71-.67,2.62-1.03,19.3-7.65,38.24-16.93,38.24-16.93l7.27-8.93h3.24l-1.06,2.27-.05.08c.51,2.3,1.11,4.51,1.77,6.62.02.06.03.12.06.17,9.99,31.52,35.7,41.68,35.7,41.68,17.86-13.19,17.52-34.12,17.52-34.12v-2.88l3.35,1,2.29,5.45s3.88,6.03,19.23,12.78c2.65,1.17,5.5,2.63,8.43,4.31,14.05,7.98,29.67,20.32,30.87,22.94.12.27.26.7.41,1.3v.02c1.65,6.48,5.04,30.75,8.19,39.41,1.97,5.4,5.07,8.39,7.36,9.93t.03.02c1.7,1.17,2.94,1.53,2.94,1.53.24,1.33.47,2.65.68,3.95,6.59,41.51-5.93,69.69-8.75,71.65Z"/>
        <path class="cls-33" d="m267.95,264.64l-12.47,4.19-2-2.3s-12.34,28.11-23.53,41.87c-1.33,1.64-2.74,3.25-4.19,4.81-3.12,3.38-6.43,6.54-9.63,9.31l-9.51-40.98-4.83-31.11c4.91-6.68,9.61-11.91,11.87-14.31.88-.94,1.38-1.44,1.38-1.44,0,0-1.57-5.07-2.65-9.48-.02-.11-.05-.21-.08-.32,0-.05-.02-.11-.03-.15-.02-.08-.03-.11-.03-.11-.64-2.71-1.03-5.06-.67-5.63.95-1.53,6.51-3.25,7.46-4.39.95-1.15,4.97-20.47,8.02-22.57,0,0-2,18.55,8.61,42.07l5.16,7.27,15.11,12.14s5.74,7.61,11.99,11.11Z"/>
        <path class="cls-73" d="m231.86,298.19c-2.68,19.88-32.31,35.18-32.31,35.18-6.6,0-13.97-11.48-20.66-25.63-6.69-14.16-7.1-54.82-7.45-57.33-.36-2.51-4.09-7.54-4.31-9.69-.21-2.15,6.03-6.6,6.03-6.6l-.05-.11-.05-.11c-.65-1.39-4.31-9.25-4.06-10.69.29-1.57,7.3-5.01,7.3-5.01l.44,7.74s16.32-3.09,21.85-15.73l.97-3.88,2.73,1.82v16.64s.56,2.59,1.42,2.59,7.22-3.18,8.55-2.74c1.35.44,2.66,9.34,4.45,10.48,1.77,1.15,6.51,4.45,7.22,6.03.32.71.35,3.27.38,6.28.05,3.69.08,8.05.62,10.51,1.01,4.44,9.61,20.36,6.93,40.25Z"/>
        <path class="cls-98" d="m502.83,281.16c-1.33,2.1-8.02,6.51-9.75,8.24-1.73,1.71,0,7.37,0,7.37-28.11,29.84-57.42,44.78-60.37,46.23-.17.08-.24.12-.24.12-17.65-11.87-16.14-31.41-10.28-47.88,5.6-15.81,15.2-28.78,15.62-29.34l.02-.02.02-.02c.32-.12,5.36-2.21,8.96-2.48,1.2-.09,2.29.38,3.32,1.03,2.15,1.33,3.97,3.44,5.72,2.56,2.59-1.3,8.37-14.97,12.29-15.35,2.74-.26,6.54,2.53,9.07,4.12,1.11.7,1.97,1.17,2.39,1.04,1.44-.38,6.31-6.22,6.71-6.37.38-.17,2.6,1.47,2.6,1.47l-1.56,1.94c2.39,13.78,10.23,23.04,10.23,23.04l5.25-7.69s1.35,9.89,0,11.99Z"/>
        <path class="cls-95" d="m357.61,170.01c-.03.2-.06.39-.08.59-.08.41-.17.8-.29,1.21,0,0,0,.02-.02.03-1.8,6.68-9.08,13.5-18.27,10.22-10.04-3.59-29.14-44.05-29.14-44.05l1.92-8.64,45.34,36.94.5,3.5.03.21Z"/>
        <path class="cls-82" d="m206.62,162.6s-2.77-15.3-1.53-26.58c1.24-11.28-.32-24.1-.32-24.1,0,0-2.74-1.15-4.75,0-2.01,1.15-6.69,12.81-4.59,22.18,2.1,9.37.48,31.84.48,31.84h-3.16l-6.88-9.47-3.35-.96s-19.27,18.17-18.98,28.97l2.52,9.61,23.73-.81,15.49-17.69,1.34-13Z"/>
        <path class="cls-74" d="m182.53,155.53s.5,12.05,3.2,22.37c0,0-.45,4.23-5.4,4.52l-1.22-1.36s-.86,4.8-5.23,5.16l-4.16-4.16,1.08,3.44s-1.51,3.66-5.45,3.51c0,0-6.6-5.16-7.03-11.9l6.52-5.52v-4.23l7.75-5.45.14-3.08s4.54-3.37,9.8-3.3Z"/>
        <path class="cls-38" d="m205.37,132.78s-1.16,2.95-2.81,4.1c-1.65,1.15-6.43,2.03-6.43,2.03l-.22,27.04h-3.16l-6.88-9.47s3.49,5.4,3.71,9.47l-2.73,1.34-2.37-8.1-1.12,5.83,1.11,7.26s4.08-3.51,11.47-3.66l1.11,2.02s-13.36,11.07-16.45,17.59c0,0,6.6-8.39,21.66-17.64l1.43-4.45,1.9-10.61s-1.8-15.3-.24-22.74Z"/>
        <path class="cls-109" d="m216.57,179.91c-1.24,3.72-14.25,19.21-15.68,22.57-1.44,3.35-2.3,7.74-2.3,7.74-6.39,13.82-21.85,15.73-21.85,15.73l-.71-12.47s-8.31-4.78-9.72-7.4l-.02-.05-.17-.44c-.42-2.44-.06-11.48-.06-11.48l14.55-5.89c6.31-8.18,21.66-17.64,21.66-17.64l.71-4.28c-11.02-5.42-9.17-21.82-7.31-23.83,1.86-2,5.3-2,5.3-2,0,0,4.03,13.19,6.6,19.36,2.59,6.16,10.23,16.35,8.99,20.07Z"/>
        <path class="cls-72" d="m172.73,158.83s1.63,15.06,6.38,22.23c0,0-6.05-7.51-6.53-19.15l.14-3.08Z"/>
        <path class="cls-72" d="m164.83,167.36s1.58,12.12,9.04,18.86c0,0-6.6-3.3-9.04-14.63v-4.23Z"/>
        <path class="cls-28" d="m202.9,199.27s-16.4,15.93-26.87,14.2l.71,12.47s17.21-1.5,22.81-19.61c0,0,2.01-5.2,3.36-7.07Z"/>
        <path class="cls-117" d="m549.64,220.92s-15.06,27.54-32.7,36h-6.03l-13.91,21.09s-8.99-5.65-9.66-24.19c0,0,3.15-3.29,3.92-6.99,0,0-4.97-3.91-6.31-6.77-1.33-2.88-1.82-11.48-2.77-15.02-.95-3.54-9.08-10.9-10.9-11.85s-10.04-1.44-10.04-1.44c0,0-1.15-2.97,0-4.39,1.15-1.44,13.96-6.42,20.94-1.64,0,0,.48,3.63,1.24,5.56.77,1.91,6.89,8.69,7.84,8.69s5.07-3.44,6.89-6.12c1.74-2.57,10.99-22.51,13.23-29.25.02-.08.03-.14.06-.2.03-.11.08-.21.09-.3.03-.08.05-.14.06-.2.02-.03.03-.05.03-.08,1.73-5.83,11.76-17.02,17.12-20.07,0,0,2.29-.58,3.53,2.29,0,0-4.3,12.25-8.8,19.51-.76,1.23-1.57,2.66-2.42,4.21h-.02c-3.83,7.04-8.14,16.26-8.77,17.61l-.08.17,2.39,1.23,6.46-6.13,6.63-6.28,15.21,16.06-1.5,1.91-4.75,6.1,2.41.44,5.6-6.19,4.98,6.25Z"/>
        <path class="cls-37" d="m546.12,226.77l-4.81,7.07s-26.42-20.38-32.16-22.1c-5.74-1.73-7.84-.58-7.84-.58l-5.92,7.55s10.9,9.66,11.85,22.66c0,0-3.63-16.44-15.97-21.42.95,0,5.07-3.44,6.89-6.12,1.74-2.57,10.99-22.51,13.23-29.25-.3,1.15-.7,3.39.24,5.16,1.3,2.41,8.96.14,9.42,0h.02l-8.78,17.61-.08.17,2.39,1.23,6.46-6.13-3.24,7.52,23.59,4.16-4.75,6.1,2.41.44,7.06,5.91Z"/>
        <path class="cls-69" d="m527.7,196.35s4.59-.67,7.55,5.26l-.67,1.91s4.47.88,8.8,8.13c0,0-3.82,6.98-13.29,10.14,0,0-4.4-1.24-5.16-4.97l.86-2.39-3.44,2.58s-4.11,1.24-5.93-4.88l11.28-15.78Z"/>
        <path class="cls-88" d="m551.03,219.02s.96-4.4-3.73-7.27l-9.08,10.04s.27,3.22,4.21,3.92c0,0,6.21-2.1,8.61-6.69Z"/>
        <path class="cls-8" d="m484.96,240.06s10.52,11.74,25.96,16.86l-6.65,10.09-13.89-17.63.89-2.55s-5.55-4.17-6.31-6.77Z"/>
        <path class="cls-72" d="m534.58,203.53s-4.4,7.27-8.8,10.9l-.86,2.39s8.54-5.76,11.68-12.42c0,0-1.02-.73-2.02-.87Z"/>
        <path class="cls-23" d="m502.83,281.16c-1.33,2.1-8.02,6.51-9.75,8.24-1.73,1.71,0,7.37,0,7.37-28.11,29.84-57.42,44.78-60.37,46.23-.17.08-.24.12-.24.12-2.3.29-13.49-2.86-24.68-25.24-10.14-20.27-13.05-33.81-13.52-36.17l-.06-.36,2.47-3.35,3.66-41.3,2.57,8.31c9.75-11.76,18.94-29.82,18.94-29.82l.41,1.3v.02c1.65,6.48,5.04,30.75,8.19,39.41,1.97,5.4,5.07,8.39,7.36,9.93l.02.03-.02.02c-8.98,8.19-13.43,19.97-15.62,29.34-2.01,8.6-2.15,15.18-2.15,15.18,0,0,2.48-11.66,10.32-25.68,2.85-5.1,6.99-9.66,11.1-13.4,3.09-2.82,6.16-5.18,8.66-6.93,2.15,1.33,3.97,3.44,5.72,2.56-11.81,17.73-11.52,52.82-.42,46.13,11.08-6.69,13.62-20.89,13.62-20.89-2.62-17.3-1.84-36.82.27-40.53,2.55.08,9.87,5.23,10.29,5.11-.67,20.36,8.9,33.96,8.9,33.96l6.31-9.76c-9.19-15.49-8.51-30.57-8.51-30.57.38-.17,2.6,1.47,2.6,1.47l-1.56,1.94c2.39,13.78,10.23,23.04,10.23,23.04l5.25-7.69s1.35,9.89,0,11.99Z"/>
        <path class="cls-30" d="m381.12,408.52v6.03l-.11.11-.33.3-.27.23c-2.73,2.15-14.28,9.19-50.37,11.13-42.77,2.29-71.26-11.48-71.26-11.48l2.15-5.89s-2-1.71-2.15-2.57c-.14-.86,1.57-2.88,1.57-2.88,0,0-4.3-2.29-4.3-5.16,0-2.59,7.02-10.08,8.16-17.12.14-.76.2-1.5.17-2.24-.29-7.57-6.83-14.28-7.74-18.58-.02-.05-.02-.06-.02-.06-.86-4.3,11.19-14.91,11.19-14.91-10.32-32.7-12.34-76.59-12.34-76.59l-2-2.3s-12.34,28.11-23.53,41.87c-11.19,13.78-27.54,25.54-30.4,24.96-6.6,0-13.97-11.48-20.66-25.63-6.69-14.16-7.1-54.82-7.45-57.33-.36-2.51-4.09-7.54-4.31-9.69,7.18,12.34,18.61,8.7,18.61,8.7-8.28.18-12.58-15.31-12.58-15.31l-.05-.11-.05-.11-4.04-10.67c.45.51,9.92,11.1,19.06,4.57,9.37-6.69,14.2-19.65,14.2-19.65v16.64s.56,2.59,1.42,2.59c-.56,7.66-2.18,16.99-4.15,26.18-4.25,19.88-10.08,39.07-10.08,39.07,0,0,15.81-8.6,21.36-30.4,2.65-10.43,3.09-19.5,2.83-26.1-.23-5.65-.97-9.51-1.27-10.92-.02-.11-.05-.21-.08-.32,0-.05-.02-.11-.03-.15,0-.03-.02-.06-.02-.08l1.53,3.24,2.91,7.21c3.38,27.98-3.59,70.14-3.59,70.14,10.14-12.63,12.25-40.54,11.81-47.32-.2-3.24-.45-7.24-.62-10.51-.23-3.57-.38-6.28-.38-6.28l20.76,12.38-3.83-12.14,15.11,12.14s13.58,16.35,27.54,18.26c13.96,1.92,65.2.77,65.2.77,0,0-44.55,2.86-57.56,6.69-13,3.83-15.49,8.22-15.49,8.22,9.4,47.82,61.43,63.95,63.05,64.43-47.2-7.09-69.17-47.22-69.17-47.22,0,0-.77,22.57,2.86,31.17,3.63,8.6,25.06,29.64,52.59,34.03,2.32.36,4.6.59,6.86.7,23.22,1.09,42.45-10.78,44.42-12.05.11-.08.17-.11.17-.11,0,0-.02.03-.05.08-.74,1.14-10.26,14.52-48.72,15.99-2.33.09-4.6.08-6.81-.02h-.03c-35.64-1.5-53.79-25.24-53.79-25.24,0,0-13.19,7.09-4.77,17.59.09.11.18.23.27.33,2.48,2.86,7.95,6.36,14.41,9.96.18.11.36.21.53.3,7.81,4.31,16.97,8.77,24.06,12.44.05.02.08.03.11.05,4.33,2.26,7.89,4.19,9.87,5.65.02,0,.02.02.02.02,2,1.45,2.41,2.39.45,2.62-9.95,1.15-47.61-7.07-49.14-4.78-1.53,2.3,1.86,8.22,1.86,8.22,34.58,17.14,108.56,8.69,110.89,8.43-61.92,15.85-112.57-4.22-112.57-4.22l1.68,5.93s27.58,9.55,60.09,10.32c32.52.76,52.79-7.55,52.79-7.55l3.53-6.03Z"/>
        <path class="cls-19" d="m355.78,272.37s24.63,1.34,40.9,5.64l-8.39,12.73s-12.62-11.11-32.51-18.37Z"/>
        <path class="cls-15" d="m378.79,340.25s-15.36,12.82-30.47,18.75c-15.11,5.93-29.64,6.5-29.64,6.5,0,0,8.69,2.58,30.06-.86,21.37-3.44,28.68-15.02,28.68-15.02l1.37-9.37Z"/>
        <path class="cls-13" d="m385.69,389.62v.02c-28.43,7.34-64.52-3.19-64.22-4.48.3-1.29,9.89.58,32.11-3.88,21.54-4.31,29.35-11.98,29.82-12.44-.18,1.3-3.15,4.16-4,7.28-.58,2.07,3.45,8.61,6.28,13.5Z"/>
        <path class="cls-14" d="m308.46,276.22c-24.28,2.47-30.82,9.23-30.82,9.23-6.83.86-22.16-16.62-22.16-16.62l-2-2.3s-12.34,28.11-23.53,41.87c-1.33,1.64-2.74,3.25-4.19,4.81l1.59-3.57s2.6-1.24,3.36-14.91c.77-13.66-5.74-34.03-5.78-36.8-.05-2.77-1-16.79-1-16.79l20.76,12.38-3.83-12.14,15.11,12.14s5.92,8.9,20.86,16.32c14.09,7.01,29.9,6.45,31.64,6.37Z"/>
        <path class="cls-18" d="m253.48,266.53l14.47-1.89s5.78,3.83,17.39,8.56l-9.68,14.27s3.84,20.34,14.86,31.81c0,0-29.25-16.25-33.36-29.91l-3.68-22.84Z"/>
        <path class="cls-5" d="m169.02,223.24l4.13,10.88s4.22,14.69,12.58,15.31c8.36.62,16.55-24.63,16.55-24.63v-16.64s-8.9,19.08-18.51,21.23c-9.61,2.15-14.75-6.15-14.75-6.15Z"/>
        <path class="cls-34" d="m219.05,214.62s7.46,14.91,16.64,19.5c0,0-10.91-26.49-8.61-42.07,0,0-4.01,2.5-8.02,22.57Z"/>
        <path class="cls-41" d="m400.34,236.71l2.57,8.31,2.61,68.2s-6.61-12.98-11.26-31.5l2.41-3.71s4.05-25.71,3.66-41.3Z"/>
        <path class="cls-40" d="m479.6,256.78s-1.46,33.5,12.78,36.4l.71,3.58s-18.42-.68-13.49-39.98Z"/>
        <path class="cls-9" d="m455.84,266.97s-.55,1.2-5.72-2.56c0,0-17.91,12.68-24.81,30.57,0,0,11.04-16.43,16.91-18.2,5.87-1.78,7.29,4.78,7.29,4.78,0,0,2.32-9.24,6.33-14.58Z"/>
        <path class="cls-10" d="m167.13,240.72s6.89,12.7,19.8,8.72c0,0-7.74,5.21-15.48.97,0,0-4.81-8.25-4.31-9.69Z"/>
        <path class="cls-22" d="m212.26,224.64s9.47,35.42-15.24,62.04c0,0,16.05-8.24,19.69-27.31,3.64-19.08-4.45-34.72-4.45-34.72Z"/>
        <path class="cls-21" d="m382.02,196.33s-1.07,15.99-8.73,27.46c-7.66,11.47-22.87,19.22-22.87,19.22,0,0,19.08-7.03,27.82-16.92,8.75-9.9,3.77-29.76,3.77-29.76Z"/>
        <path class="cls-11" d="m284.45,172.27s0,13.37,4.3,27c4.3,13.63,41.65,37.43,41.65,37.43,0,0-38.49-15.99-45.95-30.37-7.46-14.38,0-34.06,0-34.06Z"/>
        <path class="cls-64" d="m279.36,234.26v21.78s50.13-.4,106.33,3.32l1.28-19.6s-48.86-5.79-107.62-5.5Z"/>
        <path class="cls-31" d="m363.33,175.17c-1.18,14.08-5.47,23.89-10.04,30.51-6.3,9.08-13.11,12.19-13.11,12.19-6.81-2.97-12.72-6.66-17.8-10.73-21.59-17.26-28.55-41.18-29.08-43.15,9.11,22.01,22.5,35.35,32.64,42.86,8.18,6.07,14.25,8.36,14.25,8.36v-7.04c-1.62-.61-3.19-1.3-4.69-2.06-17.86-9.01-27.25-27.78-31.64-39.92-.02-.03-.02-.05-.03-.08-2.38-6.57-3.3-11.19-3.3-11.19h3.24l-1.06,2.27-.05.08c.51,2.3,1.11,4.51,1.77,6.62.02.06.03.12.06.17,9.99,31.52,35.7,41.68,35.7,41.68,17.86-13.19,17.52-34.12,17.52-34.12v-2.88l3.35,1,2.29,5.45Z"/>
        <path class="cls-24" d="m469.3,251.68s-4.86,15.86-.27,40.53c0,0,2.29-31.27,4.02-33.99,1.72-2.73,6.54-1.43,6.54-1.43,0,0-7.59-4.19-10.29-5.11Z"/>
        <path class="cls-16" d="m422.19,337.93c-4.24-3.71-9.33-9.9-14.4-20.04-10.14-20.27-13.05-33.81-13.52-36.17l2.41-3.71,3.22-31.19,3.01-1.8s10.76-11.88,18.94-29.82c.12.27.26.7.41,1.3v.02c1.65,6.48,5.04,30.75,8.19,39.41,1.97,5.4,5.07,8.39,7.36,9.93,0,0-18.64,27.64-19.54,47.37-.8,17.95,3.19,23.8,3.92,24.71Z"/>
        <path class="cls-42" d="m311.54,395.58s-33.59-5.51-47.31-14.35c0,0-.02,0-.02-.02.14-.76.2-1.5.17-2.24-.29-7.57-6.83-14.28-7.74-18.58.15.41,1.14,2.68,5.9,6.77,3.01,2.59,7.57,5.92,14.41,9.96.18.11.36.21.53.3,9.69,5.72,18.03,9.6,24.06,12.44.05.02.08.03.11.05,5.42,2.54,8.93,4.22,9.87,5.65.02,0,.02.02.02.02Z"/>
        <path class="cls-20" d="m383.4,368.83c-.18,1.3-3.15,4.16-4,7.28,0,0-12.32,13.05-57.94,9.04.3-1.29,9.89.58,32.11-3.88,21.54-4.31,29.35-11.98,29.82-12.44Z"/>
        <path class="cls-7" d="m390.99,192.26l-29.16,9.45-8.54,3.97-.05.02-5.56.02-7.51.02-4.69.38-2.48.18-7.07.56-3.56.29-34.97-12.66-6.25-2.26-28.76-10.42c.85-.33,1.71-.67,2.62-1.03,19.3-7.65,38.24-16.93,38.24-16.93l7.27-8.93h3.24c2.89-6.33,4.81-12.25,6.06-16.91l1.92-8.64c.14-.83.2-1.29.2-1.29l10.29,5.43,34.71,27.77c-.03,1.89.03,3.59.14,5.03l.5,3.5c.09-.68.12-1.07.12-1.07l3.35,1,2.29,5.45s3.88,6.03,19.23,12.78c2.65,1.17,5.5,2.63,8.43,4.31Z"/>
        <path class="cls-76" d="m368.78,165.66s-13.59,3.06-28.6-4.21c-15-7.27-27.61-28.69-28.39-34.03-.76-5.36,5.74-19.32,5.74-30.22s-5.34-29.64,3.63-39.79c8.99-10.13,50.29-11.66,63.69,1.35,0,0,4.15,10.42,4.15,16.3,0,1.42-.26,3.51-.64,5.92-.12.89-.29,1.85-.44,2.83-1.2,7.13-2.85,15.84-2.07,19.65.27,1.33.7,2.56,1.2,3.72v.02c1.65,3.82,4.1,6.86,4.54,10.16.58,4.31-5.21,34.91-22.81,48.29Z"/>
        <path class="cls-104" d="m317.42,94.13s-3.71-9.31-13.03-9.45c0,0-5.45,2.15-6.31,6.31,0,0,2.01,15.06,4.3,22.09,2.29,7.03,10.71,6.01,10.71,6.01,0,0,7.32-11.21,4.33-24.96Z"/>
        <path class="cls-84" d="m353.25,124.79s3.1-.24,4.44.76c1.34,1,6.22,5.74,12.38,7.03,6.17,1.29,10.3-3.96,11.62-4.23,1.31-.27,2.76,1.59,2.76,1.59,0,0-.57-2.15-3.78-3.12,0,0-1.3,4.95-10.24,3.25-8.94-1.69-12.74-5.67-12.74-5.67l-.45-.81s-2.52.52-3.99,1.2Z"/>
        <path class="cls-36" d="m340.06,78.47l.12-.96s8.92-15.65,26.56-16.08c17.64-.43,21.63,10.62,21.63,10.62l3.27-4.96-7.44-15.13-51.83-.86-12.62,10.18-1.59,24.93,5.61,32.91,13.65,7.28,3.85-3.42c-1.42-11.02-9.62-21.09-9.62-21.09l5.98-4.15s15.35,7.43,24.21,5.21c0,0,6.67-19.47,6.29-33.89,0,0-22.73,3.36-28.06,9.4Z"/>
        <path class="cls-89" d="m339.27,79.63s.86-5.64,10.38-7.89c10.6-2.51,19.21-4.64,19.21-4.64,0,0-1.88,6.18-5.41,8.5,0,0-11.21-.41-16.89.88-5.68,1.29-7.28,3.15-7.28,3.15Z"/>
        <path class="cls-89" d="m388.36,72.07s-5.38,4.15-9.04,14.04c0,0,3.51-4.59,6.74-4.52,2.21.05,1.86,2.23,1.86,2.23,0,0,2.2-5.92.44-11.76Z"/>
        <path class="cls-79" d="m342.83,95.58s.57-11.9,12.19-14.92c0,0,4.16,5.38,4.59,11.47,0,0-6.17-1.15-16.78,3.44Z"/>
        <path class="cls-108" d="m376.1,100.31s.94-9.48,6.38-12.98c0,0,3.71,2.78,3.32,10.71,0,0-3.25-1.17-9.71,2.27Z"/>
        <path class="cls-65" d="m342.83,95.58s3.78,4.64,14.34,5.55c0,0,2.01-3.06,1.82-9.06,0,0-9.71-.93-16.16,3.52Z"/>
        <path class="cls-65" d="m376.1,100.31v1.39s1.63,3.39,7.46,3.97c0,0,1.88-2.93,2.04-7.68,0,0-3.71-.93-9.5,2.32Z"/>
        <path class="cls-80" d="m354.12,91.81s-2.68,3.26-2.44,8.4c0,0,3.51.83,5.49.91,0,0,2.31-3.22,1.82-9.06,0,0-3.07-.66-4.87-.25Z"/>
        <path class="cls-80" d="m381.64,98.15s-1.52,1.62-1.81,6.61c0,0,2.08.91,3.73.91,0,0,2.12-3.02,2.04-7.68,0,0-1.48-.56-3.96.16Z"/>
        <path class="cls-89" d="m353.25,100.57s-.96-6.43,2.72-8.89l3.01.38s1,5.09-1.82,9.06c0,0-2.99-.34-3.92-.55Z"/>
        <path class="cls-89" d="m382.97,97.86s-1.36,2.86-2,7.31c0,0,1.05.43,2.59.49,0,0,2.06-2.52,2.04-7.68,0,0-1.57-.42-2.63-.12Z"/>
        <path class="cls-116" d="m342.83,95.58s7.03-4.09,19-1.76l-2.22-1.69s-8.53-2.65-16.78,3.44Z"/>
        <path class="cls-116" d="m376.1,100.31s5.64-2.99,12.21-1.41l-2.71-2s-4.41-.67-9.5,3.41Z"/>
        <path class="cls-49" d="m350.43,95.58s1.91-.42,3.63,1.32c0,0-2.36.69-3.63-1.32Z"/>
        <path class="cls-49" d="m378.68,101.12s3-.58,4.03.78c0,0-1.6,1.1-4.03-.78Z"/>
        <path class="cls-1" d="m343.53,96.27s5.46,5.4,14.21,6.69l.23-3.19-.8,1.35s-8.41-.5-13.64-4.85Z"/>
        <path class="cls-1" d="m376.1,101.7s.97,3.49,8.09,5.07l-.23-1.71-.4.61s-5.06-.65-7.46-3.97Z"/>
        <path class="cls-94" d="m361.83,115.66s2.65-.57,7.53,0c4.88.57,10.36,1.91,13.35,0,0,0-3.98,3.98-7.43,4.59-3.45.61-8.7-2.42-8.7-2.42l-2.29.04s-1.77-.87-2.46-2.21Z"/>
        <path class="cls-87" d="m364.63,117.86s1.19-.77,2.2-.58c1,.19,2.03,1.65,2.03,1.65,0,0-2.12-1.12-4.22-1.08Z"/>
        <path class="cls-92" d="m382.71,115.66c1.27-1.24-5.32-12.99-8.48-13.43s-6.12,13.17-6.12,13.17c0,0,4.39.62,8.64,1.19,4.26.57,5.95-.93,5.95-.93Z"/>
        <path class="cls-45" d="m387.43,78.66c-1.79-.23-8.1,7.45-8.1,7.45,0,0-4.01,12.43-3.22,16.11.79,3.69,10.54,5.65,10.54,5.65l.41-.65v-.02c-.5-1.17-.92-2.39-1.2-3.72-.77-3.82.88-12.52,2.07-19.65,0,0,.39-1.47.44-2.83.05-1.15-.12-2.24-.94-2.33Z"/>
        <path class="cls-101" d="m387.14,129.13c-2.01-4.21-.77-6.4-18.26-8.69-24.75-3.25-26.87,4.3-31.08,3.15-.15-.05-.33-.11-.5-.18-4.56-1.77-15.29-12.32-15.56-26.54-.29-14.78,9.61-25.25,9.61-25.25-3.59-3.01-5.03-11.75-1.15-15.49,3.88-3.72,10.48-2.86,26.68-1.15,16.21,1.73,16.21.73,16.21.73,5.15,1.32,8.1,6.15,8.93,7.69.17.3.24.48.24.48l2.01-1.86c5.45,7.89,4.45,16.49,4.45,16.49,0,0,8.89-18.08,7.87-20.63-1.85-4.72-6.98-11.61-7.3-12.05l-.02-.02s-1.44-13.76-5.74-13.76-22.66,4.15-22.66,4.15c2.01-4.72,1.73-10.17,1.73-10.17l-.08.08c-6,5.37-11.85,5.96-20.15,9.81-4.18,1.95-6.15,3.75-7.77,5.63l-.56.67-.59.71c-.58.73-1.17,1.47-1.88,2.23-.03.05-.08.08-.09.09l-.05.05c-.67.73-1.45,1.47-2.41,2.26-5.45,4.44-17.44,7.4-18.88,12.1-1.44,4.68,1.82,11.08,3.54,17.68,1.71,6.6.92,12.43.92,12.43,0,0,5.71,7.36,3.82,18.12-1.68,9.64-5.36,11.22-5.36,11.22-2.59,5.31-1.36,10.28-1.36,10.28,5.3,21.07,27.22,33.62,27.22,33.62,19.5,7.27,32.32,4.1,32.32,4.1l.02-.02c14.19-9.25,19.04-39.86,19.26-41.28-.24.38-2.88,4.47-3.41,3.35Zm-8.75,19.51c-3.44-.58-4.16-9.28-5.3-10.43-1.15-1.14-7.37-.67-7.37-.67,0,0-5.74,6.51-8.02,6.69-2.3.2-14.53-4.78-11.88-12.23,2.63-7.46,11.88-8.42,11.88-8.42,0,0,4.78,4.01,11.94,4.48,7.18.47,9.76-.85,10.61-1.23.86-.39,5.48,1.71,5.36,8.22-.08,4.53-3.77,14.16-7.22,13.58Z"/>
        <path class="cls-115" d="m377.5,104.84s6.18,7.68,5.59,10.56c-.65,3.16-7.8,4.84-7.8,4.84,0,0,5.74-1.98,6.92-4.84,0,0-1.47-5.82-4.7-10.56Z"/>
        <path class="cls-2" d="m388.73,78.51s1-8.6-4.45-16.49c4.38-7.81,5.01-16.21,5.01-16.21l.02.02c1.48,3.65,2.33,10.75,2.33,10.75l4.97,1.3c1.01,2.56-7.87,20.63-7.87,20.63Z"/>
        <path class="cls-12" d="m382.02,63.4c-.83-1.54-3.78-6.37-8.93-7.69,0,0,0,1-16.21-.73-16.2-1.71-22.8-2.57-26.68,1.15-3.88,3.74-2.44,12.47,1.15,15.49,0,0-9.9,10.48-9.61,25.25.27,14.22,11.01,24.77,15.56,26.54l-.21,1.57s.8,32.55,8.72,35.14c7.9,2.57,24.31,1.24,25.84,2.77s-.21,3.95-.36,4.18l-.02.02s-12.82,3.16-32.32-4.1c0,0-21.92-12.55-27.22-33.62,0,0-1.23-4.97,1.36-10.28,0,0,3.68-1.57,5.36-11.22,1.89-10.76-3.82-18.12-3.82-18.12,0,0,.79-5.83-.92-12.43-1.73-6.6-4.98-13-3.54-17.68,9.17,1.44,15.2-3.35,15.2-3.35,0,0,1.6-2.23,8.7-3.38,7.1-1.15,35.64,1.73,35.64,1.73,0,0-2.86-2.38-8.89-3.95-5.69-1.5-25.13.24-27.22.41,2.23-.39,24.27-4.18,26.78-3.42,2.66.79,12.2,5.16,12.2,5.16-.86-4.38-9.4-14.91-9.4-14.91,0,0-12.05.21-19.94,1.86-7.04,1.47-10.9,4.69-11.66,5.36l1.88-2.23.59-.71.56-.67,2.76-.47,13.84-5.59c4.65-2.48,10.6-8.63,11.32-9.39l.08-.08s.29,5.45-1.73,10.17c11.69-1.44,15.64-.71,15.64-.71,5.31,7.52,5.5,27.92,5.5,27.92Z"/>
        <path class="cls-6" d="m338.95,162.98s7.16-1.7,17.98-1.26c10.81.44,17.03.48,14.34,5.37,0,0-13.58,3.07-32.32-4.1Z"/>
        <path class="cls-70" d="m376.53,35.48s6.57-2.56,9.17-2.14c0,0-1.03-1.37-2.1-1.66-1.08-.29-22.7,4.51-22.7,4.51,0,0,13.49-1.57,15.64-.71Z"/>
        <path class="cls-66" d="m363.19,37.92s-.52,7.16-2.8,9.75l-26.78,3.42-7.86-1.39s3.04-1.3,6.38-5.2c3.34-3.9,20.8-7.73,31.06-6.59Z"/>
        <path class="cls-86" d="m389.29,45.81s2.18,7.04,2.35,10.76l4.97,1.3s-1.51-5.33-7.31-12.07Z"/>
        <path class="cls-44" d="m316.32,106.76s-1.88-9.04-6.5-13.51c-4.62-4.47-9.88-3.04-9.88-3.04,0,0,1.43,16.76,2.94,20.84,1.51,4.09,3.8,5.16,3.8,5.16,0,0-3.23-2.83-3.66-8.37-.43-5.54-.57-13.36.65-14.29,1.22-.93,6.15,2.7,6.15,2.7,0,0-1.56,1.91-2.49,6.84-.93,4.94,2.51,8.52,3.8,8.45,1.29-.07-.07-5.71.14-7.34s3.08-1.27,5.04,2.53Z"/>
        <path class="cls-4" d="m311.71,95.53s-5.04,3.31-4.5,10.1c.54,6.79,4.43,6.5,4.44,5.07.01-1.43-.74-5.1-.34-7.17.39-2.08,3.74-1.14,3.74-1.14,0,0-2.21-5.39-3.34-6.86Z"/>
        <path class="cls-60" d="m390.55,125.79s-6.26,28.57-19.27,41.3c0,0,14.84-5.83,19.27-41.3Z"/>
        <path class="cls-60" d="m383.59,31.68s3.3,2.57,3.93,11.5c.63,8.93-3.25,18.84-3.25,18.84,0,0,4.97-7.42,5.44-15.54.48-8.13-3.51-13.77-6.13-14.8Z"/>
        <path class="cls-100" d="m343.58,50.38s7.64,2.61,16.03,3.35c8.39.74,10.11.91,10.11.91,0,0-3.37-3.27-10.55-4.25-7.18-.98-15.59,0-15.59,0Z"/>
        <path class="cls-106" d="m380.52,126.41s3.66,0,5.1,4.59c1.15,3.66,1.46,6.81,1.46,6.81l1.3-5.03s-1.69-6.37-3.45-7.81c-1.27-1.03-3.44-2.08-4.48-1.83l.07,3.26Z"/>
        <path class="cls-62" d="m370.66,121.82l.62,5.45s4.46.36,7.41-.86l.53-3.3s-5.68-1.43-8.55-1.29Z"/>
        <path class="cls-60" d="m390.99,192.26s26.08,19.05,29.46,25.6c3.39,6.55,4.75,27.1,9.33,35.99,0,0-3.13-14.55-5.32-25.95-2.2-11.41-1.67-11.57-2.89-14.36-1.22-2.8-20.7-16.31-30.59-21.28Z"/>
        <path class="cls-60" d="m386.31,298.3s-12.57,53.81-12,57.44c.57,3.64,8.71,11.05,9.09,13.08,0,0-6.22,8.33-5.93,10.17s10.9,13.51,10.61,17.12c-.08,1.05-6.97,12.41-6.97,12.41,0,0,7.78-11.16,8.16-12.94.38-1.78-9.53-16.69-9.82-18.21-.75-3.92,4.95-6.81,5.14-9.39.19-2.58-7.71-8.89-7.78-13.1-.06-4.21,9.5-56.59,9.5-56.59Z"/>
        <path class="cls-92" d="m216.57,179.91s-7.03-1.5-9.95-7.64c-2.92-6.13-1.01-15.01-1.01-15.01,0,0,5.51,10.56,8.25,14.17,2.74,3.61,3.48,7.72,2.71,8.48Z"/>
        <path class="cls-46" d="m433.52,147.84l4.87,138.97c.19,5.51,4.72,9.88,10.23,9.88h239.4c5.56,0,10.1-4.44,10.24-10l3.35-140.6c.14-5.78-4.53-10.52-10.3-10.48l-247.62,1.63c-5.77.04-10.37,4.83-10.17,10.6Z"/>
        <path class="cls-48" d="m688.03,297.07h-239.4c-5.75,0-10.41-4.5-10.61-10.25l-4.87-138.97c-.1-2.89.95-5.63,2.95-7.72,2-2.09,4.7-3.25,7.59-3.27l247.62-1.63c2.88.01,5.61,1.11,7.64,3.18,2.03,2.07,3.11,4.8,3.04,7.7l-3.35,140.59c-.14,5.81-4.8,10.37-10.62,10.37Zm3.35-161.08h-.07l-247.62,1.63c-2.69.02-5.19,1.1-7.05,3.04-1.86,1.94-2.83,4.49-2.74,7.17l4.87,138.97c.19,5.34,4.52,9.52,9.86,9.52h239.4c5.31,0,9.73-4.32,9.86-9.63l3.35-140.59c.06-2.69-.94-5.23-2.83-7.15-1.87-1.9-4.37-2.95-7.03-2.95Z"/>
        <path class="cls-27" d="m433.88,154.91h267.45l.43-7.33c.38-6.48-4.8-11.93-11.29-11.88l-247.53,1.96c-5.17.04-9.31,4.29-9.21,9.46l.15,7.79Z"/>
        <polygon class="cls-17" points="447.33 166.13 447.33 246.55 529.19 246.55 529.19 165.7 447.33 166.13"/>
        <rect class="cls-25" x="608.31" y="171.52" width="35.61" height="35.61"/>
        <rect class="cls-29" x="650.33" y="171.52" width="35.61" height="35.61"/>
        <rect class="cls-26" x="565.59" y="171.52" width="35.61" height="35.61"/>
        <rect class="cls-35" x="594.87" y="227.9" width="91.07" height="8.53"/>
        <rect class="cls-35" x="572.1" y="240.88" width="113.84" height="2.64"/>
        <rect class="cls-35" x="573.17" y="211.67" width="21.78" height="2.64"/>
        <rect class="cls-35" x="615.23" y="211.67" width="21.78" height="2.64"/>
        <rect class="cls-35" x="657.24" y="211.67" width="21.78" height="2.64"/>
        <rect class="cls-35" x="565.59" y="245.17" width="36.62" height="2.64"/>
        <rect class="cls-35" x="572.1" y="249.41" width="113.84" height="2.64"/>
        <rect class="cls-35" x="565.59" y="253.65" width="120.35" height="2.64"/>
        <rect class="cls-35" x="565.59" y="257.89" width="120.35" height="2.64"/>
        <rect class="cls-35" x="572.1" y="275.03" width="113.84" height="2.64"/>
        <rect class="cls-35" x="565.59" y="279.27" width="120.35" height="2.64"/>
        <rect class="cls-35" x="565.59" y="283.51" width="120.35" height="2.64"/>
        <rect class="cls-35" x="565.59" y="262.13" width="115.5" height="2.64"/>
        <rect class="cls-35" x="572.1" y="266.37" width="113.84" height="2.64"/>
        <rect class="cls-35" x="565.59" y="270.61" width="97.5" height="2.64"/>
        <g class="cls-75">
          <path class="cls-112" d="m470.27,230.42c-12.84,0-23.29-10.45-23.29-23.29s10.45-23.29,23.29-23.29,23.29,10.45,23.29,23.29-10.45,23.29-23.29,23.29Zm0-45.06c-12.01,0-21.78,9.77-21.78,21.78s9.77,21.77,21.78,21.77,21.77-9.77,21.77-21.77-9.77-21.78-21.77-21.78Z"/>
        </g>
        <circle class="cls-49" cx="470.26" cy="207.13" r="12.66"/>
        <g class="cls-75">
          <path class="cls-112" d="m529.2,188.99c-12.84,0-23.29-10.45-23.29-23.29s10.45-23.29,23.29-23.29,23.29,10.45,23.29,23.29-10.45,23.29-23.29,23.29Zm0-45.06c-12.01,0-21.78,9.77-21.78,21.78s9.77,21.77,21.78,21.77,21.77-9.77,21.77-21.77-9.77-21.78-21.77-21.78Z"/>
        </g>
        <circle class="cls-49" cx="529.19" cy="165.7" r="11.91" transform="translate(283.24 662.71) rotate(-81.06)"/>
        <g class="cls-75">
          <polygon class="cls-49" points="443.25 144 444.95 141.42 454.16 149.49 452.74 151.45 443.25 144"/>
          <polygon class="cls-49" points="454.39 144 452.69 141.42 443.49 149.49 444.9 151.45 454.39 144"/>
        </g>
        <rect class="cls-49" x="612.44" y="143.17" width="82.42" height="4.13"/>
        <polygon class="cls-64" points="178.72 83.51 178.72 119.27 221.5 119.64 222.08 82.36 178.72 83.51"/>
        <polygon class="cls-107" points="222.08 82.36 224.87 87.06 223.47 119.6 221.5 119.64 222.08 82.36"/>
        <polygon class="cls-49" points="186.36 95.58 190.31 89.84 211.67 107.77 208.4 112.14 186.36 95.58"/>
        <polygon class="cls-49" points="212.22 95.58 208.27 89.84 186.91 107.77 190.19 112.14 212.22 95.58"/>
        <path class="cls-103" d="m278.52,504.46h-146.38c-6.51,0-11.84-5.2-11.99-11.72l-2.73-120.06c-.15-6.73,5.26-12.26,11.99-12.26h152.4c6.75,0,12.17,5.57,11.98,12.32l-3.29,120.06c-.18,6.49-5.49,11.66-11.98,11.66Z"/>
        <path class="cls-81" d="m278.52,504.84h-146.38c-6.67,0-12.21-5.42-12.36-12.08l-2.73-120.06c-.08-3.36,1.17-6.53,3.52-8.93,2.35-2.4,5.49-3.72,8.84-3.72h152.4c3.37,0,6.52,1.33,8.86,3.74,2.35,2.41,3.59,5.6,3.5,8.96l-3.29,120.06c-.19,6.74-5.62,12.03-12.36,12.03Zm-149.11-144.04c-3.15,0-6.1,1.24-8.3,3.49-2.2,2.25-3.38,5.23-3.31,8.38l2.73,120.06c.14,6.26,5.35,11.35,11.61,11.35h146.38c6.33,0,11.43-4.96,11.61-11.29l3.29-120.06c.09-3.16-1.08-6.15-3.28-8.41-2.21-2.27-5.16-3.51-8.32-3.51h-152.4Z"/>
        <g>
          <rect class="cls-49" x="156.88" y="384.98" width="76.98" height="3.3"/>
          <rect class="cls-49" x="156.88" y="393" width="38.49" height="3.3"/>
          <rect class="cls-49" x="156.88" y="399.69" width="38.49" height="3.3"/>
          <rect class="cls-49" x="199.69" y="399.69" width="30.62" height="3.3"/>
          <rect class="cls-49" x="156.88" y="406.38" width="62.05" height="3.3"/>
          <rect class="cls-49" x="156.88" y="413.08" width="22.09" height="3.3"/>
          <rect class="cls-49" x="183.51" y="433.16" width="38.2" height="3.3"/>
          <rect class="cls-49" x="156.88" y="419.77" width="69.23" height="3.3"/>
          <rect class="cls-49" x="156.88" y="426.46" width="53.26" height="3.3"/>
          <rect class="cls-49" x="156.88" y="433.16" width="25.05" height="3.3"/>
          <rect class="cls-49" x="156.88" y="439.85" width="38.49" height="3.3"/>
          <rect class="cls-49" x="156.88" y="446.54" width="11.04" height="3.3"/>
          <rect class="cls-49" x="172.47" y="446.54" width="40.06" height="3.3"/>
          <rect class="cls-49" x="183.51" y="453.04" width="38.2" height="3.3"/>
          <rect class="cls-49" x="156.88" y="453.04" width="25.05" height="3.3"/>
          <rect class="cls-49" x="156.88" y="459.73" width="38.49" height="3.3"/>
          <rect class="cls-49" x="156.88" y="466.42" width="11.04" height="3.3"/>
          <rect class="cls-49" x="172.47" y="466.42" width="40.06" height="3.3"/>
        </g>
        <path class="cls-59" d="m671.3,108.82c0,3.74-3.03,6.77-6.77,6.77s-6.77-3.03-6.77-6.77,3.03-6.77,6.77-6.77,6.77,3.03,6.77,6.77Z"/>
        <path class="cls-90" d="m37.12,265.71c0,4.65-3.77,8.42-8.42,8.42s-8.42-3.77-8.42-8.42,3.77-8.42,8.42-8.42,8.42,3.77,8.42,8.42Z"/>
        <circle class="cls-113" cx="684.4" cy="108.82" r="6.77"/>
        <circle class="cls-78" cx="248.14" cy="155.33" r="4.78"/>
        <circle class="cls-71" cx="568.57" cy="366.43" r="4.78"/>
        <circle class="cls-93" cx="71.22" cy="414.12" r="4.28"/>
        <path class="cls-63" d="m144.12,372.13h-73.88c-5.94,0-10.82-4.71-11.02-10.65l-1.64-48.59c-.21-6.23,4.78-11.4,11.02-11.4h77c6.22,0,11.21,5.14,11.02,11.36l-1.49,48.59c-.18,5.96-5.06,10.69-11.02,10.69Z"/>
        <path class="cls-61" d="m144.12,372.51h-73.88c-6.18,0-11.19-4.84-11.4-11.02l-1.64-48.59c-.1-3.12,1.03-6.07,3.2-8.31,2.17-2.24,5.08-3.48,8.2-3.48h77c3.11,0,6.02,1.23,8.19,3.46,2.17,2.24,3.31,5.18,3.21,8.29l-1.49,48.59c-.19,6.2-5.2,11.06-11.4,11.06Zm-75.52-70.64c-2.91,0-5.63,1.15-7.65,3.25-2.02,2.09-3.09,4.85-2.99,7.76l1.64,48.59c.2,5.77,4.87,10.29,10.64,10.29h73.88c5.79,0,10.47-4.53,10.64-10.32l1.49-48.59c.09-2.9-.98-5.65-3-7.74-2.02-2.09-4.74-3.23-7.64-3.23h-77Z"/>
        <polygon class="cls-49" points="89.94 318.95 71.72 340.06 90.27 355.81 90.27 347.68 79.54 338.39 89.51 327.12 89.94 318.95"/>
        <polygon class="cls-49" points="121.96 319.89 140.17 341.01 121.62 356.75 121.62 348.63 132.35 339.34 120.41 326.7 121.96 319.89"/>
        <polygon class="cls-49" points="93.91 355.81 109.78 320.84 117.24 320.84 99.26 355.81 93.91 355.81"/>
        <path class="cls-63" d="m641.18,472.13h-92.42c-7.44,0-13.53-5.9-13.79-13.33l-2.05-60.79c-.26-7.8,5.99-14.26,13.79-14.26h96.33c7.78,0,14.03,6.44,13.79,14.21l-1.86,60.79c-.23,7.45-6.33,13.37-13.79,13.37Z"/>
        <path class="cls-61" d="m641.18,472.5h-92.42c-7.68,0-13.9-6.02-14.16-13.69l-2.05-60.79c-.13-3.87,1.28-7.54,3.98-10.33,2.69-2.79,6.31-4.32,10.19-4.32h96.33c3.87,0,7.48,1.53,10.17,4.3,2.69,2.78,4.11,6.44,3.99,10.3l-1.86,60.79c-.24,7.7-6.46,13.74-14.17,13.74Zm-94.47-88.37c-3.67,0-7.09,1.45-9.64,4.09-2.55,2.64-3.89,6.11-3.76,9.78l2.05,60.79c.24,7.27,6.13,12.96,13.41,12.96h92.42c7.3,0,13.19-5.71,13.41-13.01l1.86-60.79c.11-3.66-1.23-7.12-3.78-9.75-2.55-2.63-5.97-4.07-9.63-4.07h-96.33Z"/>
        <rect class="cls-35" x="551.44" y="393.54" width="84.64" height="50.27"/>
        <polygon class="cls-49" points="586.27 406.01 586.27 431.33 607.9 417.51 586.27 406.01"/>
        <rect class="cls-35" x="551.44" y="453.07" width="84.64" height="4.6"/>
        <rect class="cls-49" x="551.44" y="453.07" width="21.91" height="4.6"/>
        <path class="cls-57" d="m489.43,377.65l-4.42,12.64c2.44-6.99,5.95-11.52,4.42-12.64Zm-4.42,12.64l-4.43,12.64c1.11-.33,1.98-5.65,4.43-12.64Zm4.42-12.64l-4.42,12.64c2.44-6.99,5.95-11.52,4.42-12.64Zm-4.42,12.64l-4.43,12.64c1.11-.33,1.98-5.65,4.43-12.64Zm12.75,10.95l4.29,2.43,4.63-12.64-4.96-.83c.09-.47.18-.94.24-1.4.36-2.17.48-4.29.42-6.3l5.19-3.26-2.37-11.14-4.98,4.76c-.69-1.43-1.55-2.67-2.54-3.71-.27-.3-.56-.58-.86-.84l3.04-7.02-8.1-2.64h0l-1.94,7.08c-1.81,0-3.65.46-5.48,1.28l-.89-6.69-8.91,6.75,2.06,5.93c-1.61,1.83-3.08,3.95-4.35,6.33l-4.29-2.42-4.63,12.64,4.96.83c-.53,2.67-.73,5.26-.66,7.7l-5.19,3.26,2.37,11.14,4.98-4.76c.89,1.82,2.03,3.36,3.41,4.54l-3.05,7.04,7.97,3.11,1.23-4.49.84-3.06c1.81,0,3.67-.46,5.49-1.28l.88,6.69,8.91-6.75-2.06-5.93c1.26-1.44,2.44-3.06,3.51-4.85.3-.49.57-.99.84-1.49Zm-12.75-10.95c-2.45,6.98,0,14.18-4.43,12.64-4.44-1.56-6.06-8.48-3.61-15.45,2.45-6.98,8.02-11.38,12.45-9.83,4.44,1.55-1.98,5.65-4.42,12.64Zm4.42-12.64l-4.42,12.64c2.44-6.99,5.95-11.52,4.42-12.64Zm-4.42,12.64l-4.43,12.64c1.11-.33,1.98-5.65,4.43-12.64Z"/>
        <path class="cls-51" d="m502.06,403.67l4.63-12.64-4.72-2.23-.76-.36.5-6.96,5.24-2.56-1.73-10.82-11.42-3.72,2.1,5.02,3.98-8.11-8.1-2.64-3.33-1.09-7.98-3.11-1.49,5.44-6.94-3.3-8.91,6.75,2.7,7.29-8.34,23.11-4.12,15.01,7.91.87-2.58,5.95,7.98,3.11,11.42,3.72-1.83-3.67-1.15-2.2,4.22,1.38,7.21,2.35,8.91-6.75-5.51-6.49,6.96-4.29,5.14.94Zm-25.08-16.19c2.45-6.98,8.02-11.38,12.45-9.83l-4.42,12.64-4.43,12.64c-4.44-1.56-6.06-8.48-3.61-15.45Z"/>
        <path class="cls-55" d="m490.64,399.94l4.63-12.64-4.97-.83c.52-2.66.73-5.25.66-7.7l5.19-3.26-2.37-11.14-4.98,4.76c-.88-1.82-2.03-3.36-3.41-4.54l3.05-7.03-7.98-3.11-2.07,7.55c-1.81,0-3.66.46-5.49,1.28l-.88-6.68-8.91,6.74,2.05,5.93c-1.6,1.83-3.07,3.96-4.35,6.34l-4.3-2.42-4.63,12.64,4.97.83c-.52,2.66-.73,5.25-.66,7.7l-5.19,3.26,2.37,11.14,4.98-4.76c.88,1.82,2.03,3.36,3.41,4.54l-3.05,7.03,7.98,3.11,2.07-7.55c1.81,0,3.66-.46,5.49-1.28l.88,6.68,8.91-6.74-2.05-5.93c1.6-1.83,3.07-3.96,4.35-6.34l4.3,2.42Zm-21.48-.74c-4.43-1.55-6.05-8.47-3.6-15.45,2.44-6.98,8.02-11.38,12.46-9.82,4.43,1.55,6.05,8.47,3.6,15.45-2.44,6.98-8.02,11.38-12.45,9.82Z"/>
        <polygon class="cls-39" points="507.57 379.23 496.15 375.51 490.96 378.77 502.38 382.49 507.57 379.23"/>
        <polygon class="cls-53" points="495.47 413.51 484.04 409.79 481.99 403.86 493.41 407.58 495.47 413.51"/>
        <polygon class="cls-39" points="485.4 364.59 491.67 366.4 493.78 364.37 497.94 365.73 499.87 361.28 488.45 357.56 485.4 364.59"/>
        <path class="cls-39" d="m468.76,411.12l5.98,2.49-.5-3.77s-3.22,1.7-5.49,1.28Z"/>
        <path class="cls-39" d="m469.68,376.87l10.07,5.33s1.46-1.96,2.59-2.74c0,0-2.63-11.11-12.66-2.58Z"/>
        <polygon class="cls-83" points="238.43 0 248.14 19.45 241.65 22.4 232.57 4.54 238.43 0"/>
        <polygon class="cls-68" points="19.74 453.18 28.73 463.04 32.26 458.97 23.78 449.63 19.74 453.18"/>
        <polygon class="cls-77" points="476.61 118.7 467.55 124.19 463.92 117.31 473.82 111.53 476.61 118.7"/>
        <polygon class="cls-77" points="521.18 466.47 508.21 475.68 504.58 468.8 517.17 461.45 521.18 466.47"/>
        <polygon class="cls-52" points="504.04 71.66 501.85 20.71 568.57 20.71 565.83 71.52 504.04 71.66"/>
        <polygon class="cls-56" points="501.85 20.71 499.85 23.71 501.85 71.66 504.04 71.66 501.85 20.71"/>
        <polygon class="cls-49" points="524 30.88 513.53 29.76 514.97 64.67 524 63.79 524 60.17 518.77 60.3 518.17 33.37 524 33.54 524 30.88"/>
        <polygon class="cls-49" points="545.44 30.88 555.91 29.76 554.48 64.67 545.44 63.79 545.44 60.17 550.68 60.3 551.28 33.37 545.44 33.54 545.44 30.88"/>
        <polygon class="cls-50" points="43.99 183.21 45.48 148.47 0 148.47 1.87 183.11 43.99 183.21"/>
        <polygon class="cls-54" points="45.48 148.47 46.85 150.52 45.48 183.21 43.99 183.21 45.48 148.47"/>
        <path class="cls-49" d="m27.96,155.46s4.99-.19,5.87.21c.88.41-.23,8.53-.23,8.53l1.99,1.83-1.86,1.8s.1,8.24-1.08,8.92-5.18,0-5.18,0v-2.05s3.28.21,3.81-.23.49-7.64.49-7.64l.88-.96-.88-1.04s.16-5.13.06-6.54c-.06-.94-3.88-.99-3.88-.99v-1.84Z"/>
        <path class="cls-49" d="m16.54,155.46s-4.99-.19-5.87.21.23,8.53.23,8.53l-1.99,1.83,1.86,1.8s-.1,8.24,1.08,8.92,5.18,0,5.18,0v-2.05s-3.28.21-3.81-.23-.49-7.64-.49-7.64l-.88-.96.88-1.04s-.16-5.13-.07-6.54c.07-.94,3.88-.99,3.88-.99v-1.84Z"/>
        <path class="cls-48" d="m427.77,76.25l-11.15-29.17,28.9,6.04-17.76,23.13Zm-9.95-28.15l10.17,26.61,16.2-21.1-26.37-5.51Z"/>
        <rect class="cls-48" x="503.97" y="482.56" width="16.56" height=".76" transform="translate(-180.09 610.57) rotate(-53.76)"/>
        <polygon class="cls-48" points="415.75 366.66 405.23 353.58 405.82 353.1 416.34 366.19 415.75 366.66"/>
        <polygon class="cls-48" points="91.27 458.59 70.28 443.36 70.73 442.75 91.72 457.98 91.27 458.59"/>
        <rect class="cls-48" x="68.03" y="450.29" width="25.93" height=".76" transform="translate(-326.59 242.01) rotate(-52.7)"/>
        <rect class="cls-48" x="50.4" y="223.69" width=".76" height="15.35" transform="translate(-177.66 168.71) rotate(-62.28)"/>
        <polygon class="cls-48" points="579.45 52.09 578.89 51.59 594.59 33.68 595.16 34.18 579.45 52.09"/>
        <rect class="cls-48" x="277.25" y="94.75" width=".76" height="15.75" transform="translate(-16.65 134.4) rotate(-26.45)"/>
        <rect class="cls-48" x="160.22" y="340.28" width="23.53" height=".76" transform="translate(-178.51 189.71) rotate(-39.91)"/>
        <text class="cls-47" transform="translate(300.7 251.02) rotate(2.68) scale(1.14 1)"><tspan class="cls-97" x="0" y="0">S</tspan><tspan x="9.76" y="0">A</tspan><tspan class="cls-99" x="22.68" y="0">A</tspan><tspan x="35.16" y="0">QI</tspan></text>
      </g>
    </g>
  </g>
</svg>