<svg xmlns="http://www.w3.org/2000/svg" xmlns:xlink="http://www.w3.org/1999/xlink" viewBox="0 0 702 504.84"><defs><linearGradient id="_Áåçûìÿííûé_ãðàäèåíò_29" x1="-40.14" x2="-40.14" y1="458.63" y2="350.86" data-name="Áåçûìÿííûé ãðàäèåíò 29" gradientTransform="rotate(-25.04 -269.547 -54.942)" gradientUnits="userSpaceOnUse"><stop offset="0" stop-color="#dbccff"/><stop offset="1" stop-color="#d1bbff"/></linearGradient><linearGradient id="_Áåçûìÿííûé_ãðàäèåíò_28" x1="-40.15" x2="-40.15" y1="462.83" y2="355.06" data-name="Áåçûìÿííûé ãðàäèåíò 28" gradientTransform="rotate(-25.04 -269.547 -54.942)" gradientUnits="userSpaceOnUse"><stop offset="0" stop-color="#b5a6e7"/><stop offset="1" stop-color="#7760bf"/></linearGradient><linearGradient xlink:href="#_Áåçûìÿííûé_ãðàäèåíò_28" id="_Áåçûìÿííûé_ãðàäèåíò_28-2" x1="-40.15" x2="-40.15" y1="436.04" y2="390.61" data-name="Áåçûìÿííûé ãðàäèåíò 28"/><linearGradient id="_Áåçûìÿííûé_ãðàäèåíò_27" x1="-46.6" x2="-33.7" y1="391.52" y2="391.52" data-name="Áåçûìÿííûé ãðàäèåíò 27" gradientTransform="rotate(-25.04 -269.547 -54.942)" gradientUnits="userSpaceOnUse"><stop offset="0" stop-color="#8b8be0"/><stop offset="1" stop-color="#a177b7"/></linearGradient><linearGradient id="_Áåçûìÿííûé_ãðàäèåíò_94" x1="-40.15" x2="-40.15" y1="394.51" y2="386.71" data-name="Áåçûìÿííûé ãðàäèåíò 94" gradientTransform="rotate(-25.04 -269.547 -54.942)" gradientUnits="userSpaceOnUse"><stop offset="0" stop-color="#fff"/><stop offset="1" stop-color="#a177b7"/></linearGradient><linearGradient id="_Áåçûìÿííûé_ãðàäèåíò_95" x1="-33.33" x2="-33.33" y1="440.68" y2="390.6" data-name="Áåçûìÿííûé ãðàäèåíò 95" gradientTransform="rotate(-25.04 -269.547 -54.942)" gradientUnits="userSpaceOnUse"><stop offset="0"/><stop offset="1" stop-color="#fff"/></linearGradient><linearGradient id="_Áåçûìÿííûé_ãðàäèåíò_354" x1="330.4" x2="330.4" y1="211.17" y2="157.26" data-name="Áåçûìÿííûé ãðàäèåíò 354" gradientUnits="userSpaceOnUse"><stop offset="0" stop-color="#d5cdf8"/><stop offset="1" stop-color="#f3edfb"/></linearGradient><linearGradient id="_Áåçûìÿííûé_ãðàäèåíò_70" x1="302.65" x2="358.16" y1="184.16" y2="184.16" data-name="Áåçûìÿííûé ãðàäèåíò 70" gradientUnits="userSpaceOnUse"><stop offset="0" stop-color="#ccf"/><stop offset="1" stop-color="#755cbb"/></linearGradient><linearGradient xlink:href="#_Áåçûìÿííûé_ãðàäèåíò_70" id="_Áåçûìÿííûé_ãðàäèåíò_70-2" x1="201.79" x2="267.95" y1="257.29" y2="257.29" data-name="Áåçûìÿííûé ãðàäèåíò 70"/><linearGradient id="_Áåçûìÿííûé_ãðàäèåíò_178" x1="199.75" x2="199.75" y1="333.37" y2="206.34" data-name="Áåçûìÿííûé ãðàäèåíò 178" gradientUnits="userSpaceOnUse"><stop offset="0" stop-color="#9e8cef"/><stop offset="1" stop-color="#dac7f3"/></linearGradient><linearGradient id="_Áåçûìÿííûé_ãðàäèåíò_55" x1="418.19" x2="503.43" y1="296.76" y2="296.76" data-name="Áåçûìÿííûé ãðàäèåíò 55" gradientUnits="userSpaceOnUse"><stop offset="0" stop-color="#a999f1"/><stop offset="1" stop-color="#dac7f3"/></linearGradient><linearGradient id="_Áåçûìÿííûé_ãðàäèåíò_71" x1="172.02" x2="172.02" y1="189.02" y2="155.53" data-name="Áåçûìÿííûé ãðàäèåíò 71" gradientUnits="userSpaceOnUse"><stop offset=".02" stop-color="#ffc2a9"/><stop offset="1" stop-color="#ff9595"/></linearGradient><linearGradient id="_Áåçûìÿííûé_ãðàäèåíò_48" x1="193.11" x2="193.11" y1="188.23" y2="132.78" data-name="Áåçûìÿííûé ãðàäèåíò 48" gradientUnits="userSpaceOnUse"><stop offset="0" stop-color="#ffeadb"/><stop offset=".99" stop-color="#c27cb6"/></linearGradient><linearGradient xlink:href="#_Áåçûìÿííûé_ãðàäèåíò_71" id="_Áåçûìÿííûé_ãðàäèåíò_71-2" x1="191.31" x2="191.31" y1="225.95" y2="140.47" data-name="Áåçûìÿííûé ãðàäèåíò 71"/><linearGradient id="_Áåçûìÿííûé_ãðàäèåíò_73" x1="176.03" x2="202.9" y1="212.61" y2="212.61" data-name="Áåçûìÿííûé ãðàäèåíò 73" gradientUnits="userSpaceOnUse"><stop offset=".02" stop-color="#d1a1d6"/><stop offset=".99" stop-color="#bd89c4"/></linearGradient><linearGradient xlink:href="#_Áåçûìÿííûé_ãðàäèåíò_71" id="_Áåçûìÿííûé_ãðàäèåíò_71-3" x1="505.19" x2="505.19" y1="278.01" y2="163.71" data-name="Áåçûìÿííûé ãðàäèåíò 71"/><linearGradient xlink:href="#_Áåçûìÿííûé_ãðàäèåíò_48" id="_Áåçûìÿííûé_ãðàäèåíò_48-2" x1="518.69" x2="518.69" y1="241.39" y2="184.6" data-name="Áåçûìÿííûé ãðàäèåíò 48"/><linearGradient id="_Áåçûìÿííûé_ãðàäèåíò_64" x1="529.9" x2="529.9" y1="221.79" y2="196.33" data-name="Áåçûìÿííûé ãðàäèåíò 64" gradientUnits="userSpaceOnUse"><stop offset="0" stop-color="#ffb0b0"/><stop offset=".98" stop-color="#ffc2a9"/></linearGradient><linearGradient xlink:href="#_Áåçûìÿííûé_ãðàäèåíò_64" id="_Áåçûìÿííûé_ãðàäèåíò_64-2" x1="544.66" x2="544.66" y1="225.71" y2="211.75" data-name="Áåçûìÿííûé ãðàäèåíò 64"/><linearGradient xlink:href="#_Áåçûìÿííûé_ãðàäèåíò_73" id="_Áåçûìÿííûé_ãðàäèåíò_73-2" x1="484.96" x2="510.92" y1="253.53" y2="253.53" data-name="Áåçûìÿííûé ãðàäèåíò 73"/><linearGradient xlink:href="#_Áåçûìÿííûé_ãðàäèåíò_70" id="_Áåçûìÿííûé_ãðàäèåíò_70-3" x1="448.82" x2="448.82" y1="343.14" y2="215.2" data-name="Áåçûìÿííûé ãðàäèåíò 70"/><linearGradient xlink:href="#_Áåçûìÿííûé_ãðàäèåíò_70" id="_Áåçûìÿííûé_ãðàäèåíò_70-4" x1="167.13" x2="381.12" y1="317.36" y2="317.36" data-name="Áåçûìÿííûé ãðàäèåíò 70"/><linearGradient id="_Áåçûìÿííûé_ãðàäèåíò_4" x1="355.78" x2="396.68" y1="281.55" y2="281.55" data-name="Áåçûìÿííûé ãðàäèåíò 4" gradientUnits="userSpaceOnUse"><stop offset="0" stop-color="#ccedff"/><stop offset="1" stop-color="#755cbb"/></linearGradient><linearGradient xlink:href="#_Áåçûìÿííûé_ãðàäèåíò_4" id="_Áåçûìÿííûé_ãðàäèåíò_4-2" x1="318.68" x2="378.79" y1="353.34" y2="353.34" data-name="Áåçûìÿííûé ãðàäèåíò 4"/><linearGradient xlink:href="#_Áåçûìÿííûé_ãðàäèåíò_4" id="_Áåçûìÿííûé_ãðàäèåíò_4-3" x1="321.47" x2="385.69" y1="380.52" y2="380.52" data-name="Áåçûìÿííûé ãðàäèåíò 4"/><linearGradient xlink:href="#_Áåçûìÿííûé_ãðàäèåíò_4" id="_Áåçûìÿííûé_ãðàäèåíò_4-4" x1="266.2" x2="266.2" y1="313.22" y2="241.15" data-name="Áåçûìÿííûé ãðàäèåíò 4"/><linearGradient xlink:href="#_Áåçûìÿííûé_ãðàäèåíò_4" id="_Áåçûìÿííûé_ãðàäèåíò_4-5" x1="272" x2="272" y1="319.28" y2="264.65" data-name="Áåçûìÿííûé ãðàäèåíò 4"/><linearGradient xlink:href="#_Áåçûìÿííûé_ãðàäèåíò_4" id="_Áåçûìÿííûé_ãðàäèåíò_4-6" x1="185.65" x2="185.65" y1="249.44" y2="208.16" data-name="Áåçûìÿííûé ãðàäèåíò 4"/><linearGradient xlink:href="#_Áåçûìÿííûé_ãðàäèåíò_4" id="_Áåçûìÿííûé_ãðàäèåíò_4-7" x1="219.05" x2="235.69" y1="213.09" y2="213.09" data-name="Áåçûìÿííûé ãðàäèåíò 4"/><linearGradient xlink:href="#_Áåçûìÿííûé_ãðàäèåíò_70" id="_Áåçûìÿííûé_ãðàäèåíò_70-5" x1="399.9" x2="399.9" y1="313.22" y2="236.71" data-name="Áåçûìÿííûé ãðàäèåíò 70"/><linearGradient xlink:href="#_Áåçûìÿííûé_ãðàäèåíò_70" id="_Áåçûìÿííûé_ãðàäèåíò_70-6" x1="485.92" x2="485.92" y1="296.77" y2="256.78" data-name="Áåçûìÿííûé ãðàäèåíò 70"/><linearGradient xlink:href="#_Áåçûìÿííûé_ãðàäèåíò_70" id="_Áåçûìÿííûé_ãðàäèåíò_70-7" x1="440.58" x2="440.58" y1="294.98" y2="264.42" data-name="Áåçûìÿííûé ãðàäèåíò 70"/><linearGradient xlink:href="#_Áåçûìÿííûé_ãðàäèåíò_4" id="_Áåçûìÿííûé_ãðàäèåíò_4-8" x1="177.01" x2="177.01" y1="252.07" y2="240.72" data-name="Áåçûìÿííûé ãðàäèåíò 4"/><linearGradient xlink:href="#_Áåçûìÿííûé_ãðàäèåíò_70" id="_Áåçûìÿííûé_ãðàäèåíò_70-8" x1="207.33" x2="207.33" y1="286.68" y2="224.64" data-name="Áåçûìÿííûé ãðàäèåíò 70"/><linearGradient xlink:href="#_Áåçûìÿííûé_ãðàäèåíò_4" id="_Áåçûìÿííûé_ãðàäèåíò_4-9" x1="366.93" x2="366.93" y1="243.01" y2="196.33" data-name="Áåçûìÿííûé ãðàäèåíò 4"/><linearGradient xlink:href="#_Áåçûìÿííûé_ãðàäèåíò_4" id="_Áåçûìÿííûé_ãðàäèåíò_4-10" x1="305.77" x2="305.77" y1="236.7" y2="172.27" data-name="Áåçûìÿííûé ãðàäèåíò 4"/><linearGradient xlink:href="#_Áåçûìÿííûé_ãðàäèåíò_70" id="_Áåçûìÿííûé_ãðàäèåíò_70-9" x1="293.29" x2="363.33" y1="186.39" y2="186.39" data-name="Áåçûìÿííûé ãðàäèåíò 70"/><linearGradient xlink:href="#_Áåçûìÿííûé_ãðàäèåíò_70" id="_Áåçûìÿííûé_ãðàäèåíò_70-10" x1="473.33" x2="473.33" y1="292.21" y2="251.68" data-name="Áåçûìÿííûé ãðàäèåíò 70"/><linearGradient xlink:href="#_Áåçûìÿííûé_ãðàäèåíò_70" id="_Áåçûìÿííûé_ãðàäèåíò_70-11" x1="416.04" x2="416.04" y1="337.93" y2="215.2" data-name="Áåçûìÿííûé ãðàäèåíò 70"/><linearGradient xlink:href="#_Áåçûìÿííûé_ãðàäèåíò_70" id="_Áåçûìÿííûé_ãðàäèåíò_70-12" x1="284.09" x2="284.09" y1="395.58" y2="360.4" data-name="Áåçûìÿííûé ãðàäèåíò 70"/><linearGradient xlink:href="#_Áåçûìÿííûé_ãðàäèåíò_70" id="_Áåçûìÿííûé_ãðàäèåíò_70-13" x1="352.44" x2="352.44" y1="385.92" y2="368.83" data-name="Áåçûìÿííûé ãðàäèåíò 70"/><linearGradient xlink:href="#_Áåçûìÿííûé_ãðàäèåíò_71" id="_Áåçûìÿííûé_ãðàäèåíò_71-4" x1="351.68" x2="351.68" y1="166.3" y2="49.42" data-name="Áåçûìÿííûé ãðàäèåíò 71"/><linearGradient xlink:href="#_Áåçûìÿííûé_ãðàäèåíò_71" id="_Áåçûìÿííûé_ãðàäèåíò_71-5" x1="308.11" x2="308.11" y1="119.14" y2="84.68" data-name="Áåçûìÿííûé ãðàäèåíò 71"/><linearGradient id="_Áåçûìÿííûé_ãðàäèåíò_387" x1="367.93" x2="369.37" y1="132.17" y2="124.65" data-name="Áåçûìÿííûé ãðàäèåíò 387" gradientUnits="userSpaceOnUse"><stop offset="0" stop-color="#e1616a"/><stop offset="1" stop-color="#ff8883"/></linearGradient><linearGradient xlink:href="#_Áåçûìÿííûé_ãðàäèåíò_48" id="_Áåçûìÿííûé_ãðàäèåíò_48-3" x1="354.89" x2="354.89" y1="126.41" y2="51.11" data-name="Áåçûìÿííûé ãðàäèåíò 48"/><linearGradient id="_Áåçûìÿííûé_ãðàäèåíò_59" x1="351.22" x2="351.22" y1="95.58" y2="80.66" data-name="Áåçûìÿííûé ãðàäèåíò 59" gradientUnits="userSpaceOnUse"><stop offset="0" stop-color="#cf6074"/><stop offset="1" stop-color="#f37270"/></linearGradient><linearGradient id="_Áåçûìÿííûé_ãðàäèåíò_184" x1="380.97" x2="380.97" y1="100.31" y2="87.33" data-name="Áåçûìÿííûé ãðàäèåíò 184" gradientUnits="userSpaceOnUse"><stop offset="0" stop-color="#cf6074"/><stop offset="1" stop-color="#ff817f"/></linearGradient><linearGradient xlink:href="#_Áåçûìÿííûé_ãðàäèåíò_48" id="_Áåçûìÿííûé_ãðàäèåíò_48-4" x1="382.19" x2="382.19" y1="107.86" y2="78.65" data-name="Áåçûìÿííûé ãðàäèåíò 48"/><linearGradient id="_Áåçûìÿííûé_ãðàäèåíò_292" x1="353.25" x2="353.25" y1="167.77" y2="26.02" data-name="Áåçûìÿííûé ãðàäèåíò 292" gradientUnits="userSpaceOnUse"><stop offset="0" stop-color="#2e33a0"/><stop offset="1" stop-color="#0665a5"/></linearGradient><linearGradient id="_Áåçûìÿííûé_ãðàäèåíò_35" x1="390.48" x2="390.48" y1="78.51" y2="45.81" data-name="Áåçûìÿííûé ãðàäèåíò 35" gradientUnits="userSpaceOnUse"><stop offset="0" stop-color="#ffeadb"/><stop offset=".99" stop-color="#8860c7"/></linearGradient><linearGradient id="_Áåçûìÿííûé_ãðàäèåíò_52" x1="345.92" x2="345.92" y1="167.77" y2="26.02" data-name="Áåçûìÿííûé ãðàäèåíò 52" gradientUnits="userSpaceOnUse"><stop offset="0" stop-color="#ccc2db"/><stop offset=".99" stop-color="#8860c7"/></linearGradient><linearGradient id="_Áåçûìÿííûé_ãðàäèåíò_397" x1="355.43" x2="355.43" y1="167.74" y2="161.65" data-name="Áåçûìÿííûé ãðàäèåíò 397" gradientUnits="userSpaceOnUse"><stop offset="0" stop-color="#776d7e"/><stop offset="1" stop-color="#9d68c2"/></linearGradient><linearGradient id="_Áåçûìÿííûé_ãðàäèåíò_141" x1="373.29" x2="373.29" y1="36.19" y2="31.67" data-name="Áåçûìÿííûé ãðàäèåíò 141" gradientUnits="userSpaceOnUse"><stop offset="0" stop-color="#1f77d1"/><stop offset="1" stop-color="#0686c9"/></linearGradient><linearGradient xlink:href="#_Áåçûìÿííûé_ãðàäèåíò_141" id="_Áåçûìÿííûé_ãðàäèåíò_141-2" x1="344.47" x2="344.47" y1="51.09" y2="37.71" data-name="Áåçûìÿííûé ãðàäèåíò 141"/><linearGradient xlink:href="#_Áåçûìÿííûé_ãðàäèåíò_141" id="_Áåçûìÿííûé_ãðàäèåíò_141-3" x1="392.95" x2="392.95" y1="57.87" y2="45.81" data-name="Áåçûìÿííûé ãðàäèåíò 141"/><linearGradient id="_Áåçûìÿííûé_ãðàäèåíò_285" x1="313.13" x2="297.69" y1="110.97" y2="92.06" data-name="Áåçûìÿííûé ãðàäèåíò 285" gradientUnits="userSpaceOnUse"><stop offset="0" stop-color="#ffeadb"/><stop offset=".99" stop-color="#b060f4"/></linearGradient><linearGradient xlink:href="#_Áåçûìÿííûé_ãðàäèåíò_285" id="_Áåçûìÿííûé_ãðàäèåíò_285-2" x1="314.74" x2="307.15" y1="108.53" y2="99.23" data-name="Áåçûìÿííûé ãðàäèåíò 285"/><linearGradient xlink:href="#_Áåçûìÿííûé_ãðàäèåíò_141" id="_Áåçûìÿííûé_ãðàäèåíò_141-4" x1="343.58" x2="369.72" y1="52.29" y2="52.29" data-name="Áåçûìÿííûé ãðàäèåíò 141"/><linearGradient xlink:href="#_Áåçûìÿííûé_ãðàäèåíò_141" id="_Áåçûìÿííûé_ãðàäèåíò_141-5" x1="380.45" x2="388.37" y1="130.46" y2="130.46" data-name="Áåçûìÿííûé ãðàäèåíò 141"/><linearGradient xlink:href="#_Áåçûìÿííûé_ãðàäèåíò_141" id="_Áåçûìÿííûé_ãðàäèåíò_141-6" x1="370.66" x2="379.21" y1="124.57" y2="124.57" data-name="Áåçûìÿííûé ãðàäèåíò 141"/><linearGradient id="_Áåçûìÿííûé_ãðàäèåíò_89" x1="433.73" x2="701.78" y1="145.31" y2="145.31" data-name="Áåçûìÿííûé ãðàäèåíò 89" gradientUnits="userSpaceOnUse"><stop offset="0" stop-color="#9d68c2"/><stop offset="1" stop-color="#aec2ff"/></linearGradient><linearGradient id="_Áåçûìÿííûé_ãðàäèåíò_85" x1="488.26" x2="488.26" y1="246.55" y2="165.7" data-name="Áåçûìÿííûé ãðàäèåíò 85" gradientUnits="userSpaceOnUse"><stop offset="0" stop-color="#ccedff"/><stop offset="1" stop-color="#9d68c2"/></linearGradient><linearGradient xlink:href="#_Áåçûìÿííûé_ãðàäèåíò_85" id="_Áåçûìÿííûé_ãðàäèåíò_85-2" x1="626.12" x2="626.12" y1="207.13" y2="171.52" data-name="Áåçûìÿííûé ãðàäèåíò 85"/><linearGradient xlink:href="#_Áåçûìÿííûé_ãðàäèåíò_85" id="_Áåçûìÿííûé_ãðàäèåíò_85-3" x1="668.13" x2="668.13" y1="207.13" y2="171.52" data-name="Áåçûìÿííûé ãðàäèåíò 85"/><linearGradient xlink:href="#_Áåçûìÿííûé_ãðàäèåíò_85" id="_Áåçûìÿííûé_ãðàäèåíò_85-4" x1="583.4" x2="583.4" y1="207.13" y2="171.52" data-name="Áåçûìÿííûé ãðàäèåíò 85"/><linearGradient id="linear-gradient" x1="223.18" x2="223.18" y1="119.64" y2="82.36" gradientUnits="userSpaceOnUse"><stop offset="0" stop-color="#ffd95a"/><stop offset="1" stop-color="#c07f00"/></linearGradient><linearGradient id="_Áåçûìÿííûé_ãðàäèåíò_115" x1="193.93" x2="214.09" y1="512.32" y2="351.82" data-name="Áåçûìÿííûé ãðàäèåíò 115" gradientUnits="userSpaceOnUse"><stop offset="0" stop-color="#067eff"/><stop offset="1" stop-color="#3e37a0"/></linearGradient><linearGradient id="_Áåçûìÿííûé_ãðàäèåíò_302" x1="664.53" x2="664.53" y1="115.58" y2="102.05" data-name="Áåçûìÿííûé ãðàäèåíò 302" gradientUnits="userSpaceOnUse"><stop offset="0" stop-color="#459fff"/><stop offset="1" stop-color="#a96dff"/></linearGradient><linearGradient xlink:href="#_Áåçûìÿííûé_ãðàäèåíò_302" id="_Áåçûìÿííûé_ãðàäèåíò_302-2" x1="28.7" x2="28.7" y1="274.13" y2="257.29" data-name="Áåçûìÿííûé ãðàäèåíò 302"/><linearGradient id="_Áåçûìÿííûé_ãðàäèåíò_322" x1="684.4" x2="684.4" y1="115.58" y2="102.05" data-name="Áåçûìÿííûé ãðàäèåíò 322" gradientUnits="userSpaceOnUse"><stop offset="0" stop-color="#b31a8f"/><stop offset="1" stop-color="#fe117e"/></linearGradient><linearGradient xlink:href="#_Áåçûìÿííûé_ãðàäèåíò_322" id="_Áåçûìÿííûé_ãðàäèåíò_322-2" x1="248.14" x2="248.14" y1="160.12" y2="150.55" data-name="Áåçûìÿííûé ãðàäèåíò 322"/><linearGradient id="_Áåçûìÿííûé_ãðàäèåíò_25" x1="568.57" x2="568.57" y1="371.21" y2="361.64" data-name="Áåçûìÿííûé ãðàäèåíò 25" gradientUnits="userSpaceOnUse"><stop offset="0" stop-color="#8642a0"/><stop offset="1" stop-color="#6456c0"/></linearGradient><linearGradient xlink:href="#_Áåçûìÿííûé_ãðàäèåíò_25" id="_Áåçûìÿííûé_ãðàäèåíò_25-2" x1="71.22" x2="71.22" y1="418.4" y2="409.85" data-name="Áåçûìÿííûé ãðàäèåíò 25"/><linearGradient id="_Áåçûìÿííûé_ãðàäèåíò_206" x1="579.43" x2="571.9" y1="252.26" y2="187.63" data-name="Áåçûìÿííûé ãðàäèåíò 206" gradientTransform="rotate(15.07 -114.473 -37.59)" gradientUnits="userSpaceOnUse"><stop offset="0" stop-color="#1852a0"/><stop offset="1" stop-color="#067ed3"/></linearGradient><linearGradient xlink:href="#_Áåçûìÿííûé_ãðàäèåíò_206" id="_Áåçûìÿííûé_ãðàäèåíò_206-2" x1="572.14" x2="572.14" y1="252.5" y2="186.28" data-name="Áåçûìÿííûé ãðàäèåíò 206"/><linearGradient id="_Áåçûìÿííûé_ãðàäèåíò_107" x1="547.06" x2="542.19" y1="158.32" y2="116.51" data-name="Áåçûìÿííûé ãðàäèåíò 107" gradientTransform="rotate(19.3 8.38 92.52)scale(1 1.57)" gradientUnits="userSpaceOnUse"><stop offset="0" stop-color="#188dc1"/><stop offset="1" stop-color="#06bfe7"/></linearGradient><linearGradient xlink:href="#_Áåçûìÿííûé_ãðàäèåíò_107" id="_Áåçûìÿííûé_ãðàäèåíò_107-2" x1="525.41" x2="542.56" y1="77.41" y2="13.7" data-name="Áåçûìÿííûé ãðàäèåíò 107"/><linearGradient xlink:href="#_Áåçûìÿííûé_ãðàäèåíò_206" id="_Áåçûìÿííûé_ãðàäèåíò_206-3" x1="495.92" x2="508.71" y1="70.06" y2="22.55" data-name="Áåçûìÿííûé ãðàäèåíò 206"/><linearGradient xlink:href="#_Áåçûìÿííûé_ãðàäèåíò_107" id="_Áåçûìÿííûé_ãðàäèåíò_107-3" x1="-528.77" x2="-517.07" y1="187.13" y2="143.7" data-name="Áåçûìÿííûé ãðàäèåíò 107" gradientTransform="matrix(-1 0 0 1 -499.34 0)"/><linearGradient xlink:href="#_Áåçûìÿííûé_ãðàäèåíò_206" id="_Áåçûìÿííûé_ãðàäèåíò_206-4" x1="-548.87" x2="-540.15" y1="182.12" y2="149.73" data-name="Áåçûìÿííûé ãðàäèåíò 206" gradientTransform="matrix(-1 0 0 1 -499.34 0)"/><style>.cls-1{fill:#c6659c}.cls-35,.cls-39{mix-blend-mode:multiply}.cls-48{fill:#744ca2}.cls-49{fill:#fff}.cls-39{fill-rule:evenodd;opacity:.5}.cls-60{fill:#34c7ff}.cls-61{fill:#fff7d4}.cls-63{opacity:.73}.cls-63,.cls-64{fill:#c07f00}.cls-65{fill:#ffebed}.cls-72{fill:#e28183}.cls-75{mix-blend-mode:soft-light}.cls-77{fill:#4f31e0}.cls-80{fill:#7f9ec9}.cls-85{fill:#f1f1f4}.cls-89{fill:#38368e}.cls-92{fill:#ffbcaf}.cls-35{fill:#d1d4fb}.cls-102{fill:#e5e2ff}.cls-39{fill:#601734}.cls-112{fill:#e0ffff}.cls-116{fill:#131163}</style></defs><g style="isolation:isolate"><g id="Layer_2" data-name="Layer 2"><g id="Layer_1-2" data-name="Layer 1"><path d="M125.52 240.91q.015-.555.54-.54l10.16.31c1.01.03 1.86.18 2.55.46.7.28 1.26.65 1.68 1.13s.72 1.05.9 1.72.26 1.41.23 2.23l-.09 2.79c-.02.82-.15 1.56-.36 2.21-.22.66-.55 1.21-1 1.66s-1.03.79-1.75 1.03q-1.065.345-2.58.3l-5.47-.17-1.13-3.2h-.15l-.1 3.16-3.83-.12.39-12.98Zm3.54 9.58 6.49.2c.73.02 1.26-.12 1.58-.44.32-.31.49-.88.52-1.7l.07-2.27c.03-.84-.11-1.42-.41-1.73s-.82-.48-1.55-.5l-6.21-.19c-.09 0-.16.02-.21.08-.05.05-.08.12-.08.19l-.19 6.36ZM147.07 246.72h-.13l-.12 4.05c0 .17.08.26.25.27l11.42.35-.11 3.51-14.97-.45c-.36-.01-.53-.2-.52-.57l.38-12.43c.01-.37.2-.55.56-.54l14.54.44q.555.015.54.57l-.11 3.52-3.59 1.21h-.15l.05-1.81q0-.21-.18-.21l-7.68-.23c-.1 0-.16.02-.2.08-.03.06-.05.11-.05.18l-.05 1.69 6.32.19-.08 2.75-5.3-.16zM172.46 246.47h-.15l.05-1.49c0-.15-.07-.23-.22-.23l-7.14-.22c-.26 0-.44.04-.54.15s-.16.27-.16.48v.33c-.02.26.02.43.1.51.09.08.25.14.5.18l8.37 1.43q.795.135 1.35.39c.37.17.67.38.89.64.23.26.39.58.47.96.09.37.13.82.11 1.32l-.03 1.08c-.02.56-.1 1.05-.25 1.47s-.38.78-.7 1.06-.73.49-1.25.62c-.51.13-1.14.19-1.88.17l-12.05-.37.11-3.51 10.8.33c.32 0 .54-.04.65-.16.11-.11.17-.32.18-.62v-.37c.02-.24-.02-.4-.09-.5-.08-.09-.23-.16-.47-.19l-8.08-1.27c-.54-.09-1.01-.22-1.39-.38-.39-.16-.7-.37-.94-.62-.24-.26-.41-.56-.51-.93-.1-.36-.14-.79-.13-1.29l.03-.95c.03-.98.31-1.73.85-2.25s1.41-.77 2.63-.73l12.03.37c.38.01.57.22.56.61l-.08 2.79-3.59 1.19ZM177.54 255.49l.41-13.54 3.83.12-.41 13.54zM195.59 250.23c0-.2 0-.41-.01-.62-.01-.22-.03-.41-.05-.57v-.17l3.8.12-.2 6.64q-.015.525-.48.51l-10.19-.31c-1.01-.03-1.86-.18-2.56-.46-.7-.27-1.26-.65-1.68-1.13s-.72-1.05-.9-1.72-.25-1.41-.23-2.23l.08-2.79c.03-.82.15-1.56.37-2.21.22-.66.55-1.21 1-1.66s1.03-.79 1.74-1.03q1.065-.345 2.58-.3l10.13.31c.36.01.54.2.52.57l-.09 2.92-3.59 1.19h-.15l.04-1.31c0-.12-.05-.19-.16-.19l-6.47-.2c-.37-.01-.69.01-.94.07-.26.06-.47.17-.64.33s-.29.38-.37.66-.13.62-.14 1.03l-.07 2.38c-.03.82.11 1.39.41 1.73.3.33.82.51 1.55.53l6.42.2c.14 0 .21-.07.21-.22l.06-2.07ZM207.43 242.84c.29 0 .48.06.6.15.11.09.22.23.31.42l4.84 9.88c.08.15.2.23.35.23h.2c.2.01.3-.08.31-.28l.31-10.19 3.48.11-.39 13c-.01.36-.19.53-.54.52l-5.51-.17c-.26 0-.45-.05-.58-.13s-.25-.22-.35-.44l-5.02-9.87a.37.37 0 0 0-.35-.23h-.19c-.2-.01-.3.08-.31.28l-.31 10.17-3.48-.11.39-12.98q.015-.555.54-.54l5.69.17Z" class="cls-85"/><circle cx="308.46" cy="240.06" r="234.68" class="cls-61" transform="rotate(-45 308.466 240.06)"/><path d="M135.95 225.04c-5.77-9.93-15.98-14.02-15.98-14.02l-3.56 1.66 8.01 14.54c-1.07 5.59-4.9 8.66-4.9 8.66v-.02s-4.83.97-9.8-1.8l-6.01-15.48-3.56 1.66s-3.41 10.45.5 21.25c0 0 1.52 3.5 1.78 3.81 1.41 1.65 5.09 3.55 12.2 3.11l24.53 46.8c-2.04 3.51-2.39 7.91-.54 11.86 3 6.42 10.63 9.19 17.05 6.19s9.19-10.63 6.19-17.05c-1.84-3.95-5.45-6.5-9.44-7.19l-20.14-48.82c4.79-5.06 5.81-9.05 5.44-11.35-.08-.49-1.78-3.81-1.78-3.81Zm20.18 80.71-6.5 3.04-5.88-4.11.62-7.14 6.5-3.04 5.88 4.11z" style="fill:url(#_Áåçûìÿííûé_ãðàäèåíò_29)"/><path d="M137.73 228.85c-5.77-9.93-15.98-14.02-15.98-14.02l-3.56 1.66 8.01 14.54c-1.07 5.59-4.9 8.66-4.9 8.66v-.02s-4.83.97-9.8-1.8l-6.01-15.48-3.56 1.66s-3.41 10.45.5 21.25c0 0 5.55 7.44 13.98 6.91l24.53 46.8c-2.04 3.51-2.39 7.91-.54 11.86 3 6.42 10.63 9.19 17.05 6.19s9.19-10.63 6.19-17.05c-1.84-3.95-5.45-6.5-9.44-7.19L134.06 244c5.81-6.13 3.66-15.16 3.66-15.16Zm20.18 80.71-6.5 3.04-5.88-4.11.62-7.14 6.5-3.04 5.88 4.11z" style="fill:url(#_Áåçûìÿííûé_ãðàäèåíò_28)"/><path d="m100.151 220.248 3.56-1.663 1.779 3.805-3.561 1.663zM116.403 212.686l3.56-1.663 1.779 3.805-3.561 1.664zM149.618 308.786l6.496-3.034 1.778 3.805-6.496 3.035z" class="cls-102"/><path d="m121.67 255.69 19.81 38.08c5.2.24 8-3.74 8-3.74l-16.13-39.8c-7.24-.27-11.68 5.46-11.68 5.46m26.28 34.65c-.58.5-1.46 1.16-2.56 1.68-.88.41-1.8.69-2.73.82l-19.84-37.29c.97-.86 2.63-2.13 4.77-3.13 1.6-.75 3.24-1.23 4.91-1.45l15.47 39.38Z" style="fill:url(#_Áåçûìÿííûé_ãðàäèåíò_28-2)"/><path d="m147.95 290.35 1.53-.31s-2.27 4.03-8 3.74l1.17-.93s2.82-.33 5.3-2.49Z" class="cls-102"/><path d="m121.67 255.69 1.14-.15s3.39-3.51 9.67-4.58l.87-.73s-2.53-.44-6.46 1.4c-3.94 1.84-5.22 4.06-5.22 4.06" style="mix-blend-mode:multiply;fill:url(#_Áåçûìÿííûé_ãðàäèåíò_27);opacity:.62"/><path d="M116.42 252.22s9.53-1.69 17.65-8.22l2.58 6.24s-2.92-2.89-9.33-.28c-7.5 3.06-7.09 9.09-7.09 9.09l-3.8-6.84Z" style="mix-blend-mode:multiply;opacity:.62;fill:url(#_Áåçûìÿííûé_ãðàäèåíò_94)"/><path d="M136.64 250.25c-1.83-1.31-3.92-1.35-3.92-1.35l19.18 46.32 2.31-2.39z" style="opacity:.5;fill:url(#_Áåçûìÿííûé_ãðàäèåíò_95);mix-blend-mode:screen"/><path d="M136.64 250.25s-2.01 6.19 3.76 9.12z" class="cls-49"/><path d="M357.53 170.6c.09.65.17 1 .17 1-.74 3.09-1.59 5.95-2.51 8.57-2.97 8.52-6.66 14.58-9.43 18.35-2.41 3.25-4.12 4.81-4.12 4.81-22.09-6.93-32.97-28.54-37.15-39.29a.5.5 0 0 1-.06-.17c-.8-2.03-1.33-3.66-1.67-4.72v-.02c-.26-.85-.38-1.32-.38-1.32.09-.18.18-.38.27-.56l.05-.08c.36-.76.73-1.53 1.06-2.27 2.89-6.33 4.81-12.25 6.06-16.91 1.07-3.97 1.65-7.02 1.92-8.64.14-.83.2-1.29.2-1.29l10.29 5.43 35.47 18.77c-.53 3.25-.74 6.31-.76 8.99-.03 1.89.03 3.59.14 5.03.11 1.76.29 3.15.42 4.06v.02c0 .09.02.15.03.23Z" style="fill:#fe9083"/><path d="M347.69 205.71a30.2 30.2 0 0 1-7.33 5.36c-.06.05-.12.08-.18.11 0 0-.08-.05-.21-.12l-.02-.02c-.77-.47-3.41-2.09-6.95-4.75-9.27-6.98-24.74-21.09-29.16-40.1-.02-.03-.02-.05-.03-.08-.51-2.26-.88-4.56-1.06-6.95v-.02c-.05-.62-.09-1.24-.11-1.88 0 0 3.07 7.22 8.4 15.02 6.27 9.17 15.67 19.18 26.9 19.24 9.72.06 14.7-6.59 17.23-12.72 1.07-2.6 1.71-5.1 2.04-6.96.02-.02.02-.03.02-.03.11-.55.18-1.03.26-1.44v-.02c.03-.21.06-.39.08-.56.09-.68.12-1.07.12-1.07s3.72 23.25-10.01 36.98Z" style="fill:url(#_Áåçûìÿííûé_ãðàäèåíò_354)"/><path d="M347.69 205.71a30.2 30.2 0 0 1-7.33 5.36h-.18l-.21-.02-.02-.02c-.77-.47-3.41-2.09-6.95-4.75-9.27-6.98-24.74-21.09-29.16-40.1-.02-.03-.02-.05-.03-.08-.51-2.26-.88-4.56-1.06-6.95v-.02c-.05-.62-.09-1.24-.11-1.88 0 0 3.07 7.22 8.4 15.02 0 0 6.12 16.8 19.35 25.13 6.63 4.16 11.66 3.56 15.35 1.11 3.69-2.44 6.09-6.69 7.49-9.9 1.41-3.22 1.86-6.24 1.94-8.45.02-.5.02-.95 0-1.36 1.07-2.6 1.71-5.1 2.04-6.96.02-.02.02-.03.02-.03.11-.55.18-1.03.26-1.44v-.02c.03-.21.06-.39.08-.56.09-.68.12-1.07.12-1.07s3.72 23.25-10.01 36.98Z" style="mix-blend-mode:multiply;opacity:.5;fill:url(#_Áåçûìÿííûé_ãðàäèåíò_70)"/><path d="M432.71 343c-.17.08-.24.12-.24.12-1.24.15-5.1-.7-10.16-5.07l-.02-.02s-.02-.03-.05-.05c-.02-.02-.03-.05-.06-.06-4.24-3.71-9.33-9.9-14.4-20.04-10.14-20.27-13.05-33.81-13.52-36.17l-.06-.36-5.92 9.39c-4.01 12.07-11.61 61.99-11.48 64.14s6.74 12.63 6.6 13.91c0 0 0 .02-.02.03-.18 1.3-3.15 4.16-4 7.28-.58 2.07 3.45 8.61 6.28 13.5v.02c1.47 2.54 2.6 4.63 2.6 5.42 0 2.29-7.18 13.47-7.18 13.47v6.03l-.11.11-.33.3-.27.23c-2.73 2.15-14.28 9.19-50.37 11.13-42.77 2.29-71.26-11.48-71.26-11.48l2.15-5.89s-2-1.71-2.15-2.57c-.14-.86 1.57-2.88 1.57-2.88s-4.3-2.29-4.3-5.16 8.61-11.75 8.33-19.36c-.29-7.6-6.89-14.34-7.75-18.64s11.19-14.91 11.19-14.91c-10.32-32.7-12.34-76.59-12.34-76.59l-2-2.3s-12.34 28.11-23.53 41.87a95 95 0 0 1-4.19 4.81c-3.12 3.38-6.43 6.54-9.63 9.31-7.75 6.75-14.79 11.19-16.58 10.84-2.88-.58-14.35-23.24-13.82-46.48.24-11.05 6.9-23.42 13.82-33.34.74-1.06 1.48-2.1 2.24-3.12 4.91-6.68 9.61-11.91 11.87-14.31.88-.94 1.38-1.44 1.38-1.44s-1.57-5.07-2.65-9.48c-.02-.11-.05-.21-.08-.32 0-.05-.02-.11-.03-.15-.02-.08-.03-.11-.03-.11-.64-2.71-1.03-5.06-.67-5.63.95-1.53 6.51-3.25 7.46-4.39.95-1.15 4.97-20.47 8.02-22.57 2.94-2.01 8.1-3.48 25.31-10.25.85-.33 1.71-.67 2.62-1.03 19.3-7.65 38.24-16.93 38.24-16.93l7.27-8.93h3.24l-1.06 2.27-.05.08c.51 2.3 1.11 4.51 1.77 6.62.02.06.03.12.06.17 9.99 31.52 35.7 41.68 35.7 41.68 17.86-13.19 17.52-34.12 17.52-34.12v-2.88l3.35 1 2.29 5.45s3.88 6.03 19.23 12.78c2.65 1.17 5.5 2.63 8.43 4.31 14.05 7.98 29.67 20.32 30.87 22.94.12.27.26.7.41 1.3v.02c1.65 6.48 5.04 30.75 8.19 39.41 1.97 5.4 5.07 8.39 7.36 9.93l.03.02c1.7 1.17 2.94 1.53 2.94 1.53.24 1.33.47 2.65.68 3.95 6.59 41.51-5.93 69.69-8.75 71.65Z" style="fill:#ffd95a"/><path d="m267.95 264.64-12.47 4.19-2-2.3s-12.34 28.11-23.53 41.87a95 95 0 0 1-4.19 4.81c-3.12 3.38-6.43 6.54-9.63 9.31l-9.51-40.98-4.83-31.11c4.91-6.68 9.61-11.91 11.87-14.31.88-.94 1.38-1.44 1.38-1.44s-1.57-5.07-2.65-9.48c-.02-.11-.05-.21-.08-.32 0-.05-.02-.11-.03-.15-.02-.08-.03-.11-.03-.11-.64-2.71-1.03-5.06-.67-5.63.95-1.53 6.51-3.25 7.46-4.39.95-1.15 4.97-20.47 8.02-22.57 0 0-2 18.55 8.61 42.07l5.16 7.27 15.11 12.14s5.74 7.61 11.99 11.11Z" style="mix-blend-mode:multiply;opacity:.5;fill:url(#_Áåçûìÿííûé_ãðàäèåíò_70-2)"/><path d="M231.86 298.19c-2.68 19.88-32.31 35.18-32.31 35.18-6.6 0-13.97-11.48-20.66-25.63-6.69-14.16-7.1-54.82-7.45-57.33-.36-2.51-4.09-7.54-4.31-9.69-.21-2.15 6.03-6.6 6.03-6.6l-.05-.11-.05-.11c-.65-1.39-4.31-9.25-4.06-10.69.29-1.57 7.3-5.01 7.3-5.01l.44 7.74s16.32-3.09 21.85-15.73l.97-3.88 2.73 1.82v16.64s.56 2.59 1.42 2.59 7.22-3.18 8.55-2.74c1.35.44 2.66 9.34 4.45 10.48 1.77 1.15 6.51 4.45 7.22 6.03.32.71.35 3.27.38 6.28.05 3.69.08 8.05.62 10.51 1.01 4.44 9.61 20.36 6.93 40.25" style="fill:url(#_Áåçûìÿííûé_ãðàäèåíò_178)"/><path d="M502.83 281.16c-1.33 2.1-8.02 6.51-9.75 8.24-1.73 1.71 0 7.37 0 7.37-28.11 29.84-57.42 44.78-60.37 46.23-.17.08-.24.12-.24.12-17.65-11.87-16.14-31.41-10.28-47.88 5.6-15.81 15.2-28.78 15.62-29.34l.02-.02.02-.02c.32-.12 5.36-2.21 8.96-2.48 1.2-.09 2.29.38 3.32 1.03 2.15 1.33 3.97 3.44 5.72 2.56 2.59-1.3 8.37-14.97 12.29-15.35 2.74-.26 6.54 2.53 9.07 4.12 1.11.7 1.97 1.17 2.39 1.04 1.44-.38 6.31-6.22 6.71-6.37.38-.17 2.6 1.47 2.6 1.47l-1.56 1.94c2.39 13.78 10.23 23.04 10.23 23.04l5.25-7.69s1.35 9.89 0 11.99" style="fill:url(#_Áåçûìÿííûé_ãðàäèåíò_55)"/><path d="M357.61 170.01c-.03.2-.06.39-.08.59-.08.41-.17.8-.29 1.21 0 0 0 .02-.02.03-1.8 6.68-9.08 13.5-18.27 10.22-10.04-3.59-29.14-44.05-29.14-44.05l1.92-8.64 45.34 36.94.5 3.5.03.21Z" style="fill:#cb4d7a"/><path d="M206.62 162.6s-2.77-15.3-1.53-26.58-.32-24.1-.32-24.1-2.74-1.15-4.75 0-6.69 12.81-4.59 22.18.48 31.84.48 31.84h-3.16l-6.88-9.47-3.35-.96s-19.27 18.17-18.98 28.97l2.52 9.61 23.73-.81 15.49-17.69 1.34-13Z" style="fill:#ee8183"/><path d="M182.53 155.53s.5 12.05 3.2 22.37c0 0-.45 4.23-5.4 4.52l-1.22-1.36s-.86 4.8-5.23 5.16l-4.16-4.16 1.08 3.44s-1.51 3.66-5.45 3.51c0 0-6.6-5.16-7.03-11.9l6.52-5.52v-4.23l7.75-5.45.14-3.08s4.54-3.37 9.8-3.3" style="fill:url(#_Áåçûìÿííûé_ãðàäèåíò_71)"/><path d="M205.37 132.78s-1.16 2.95-2.81 4.1-6.43 2.03-6.43 2.03l-.22 27.04h-3.16l-6.88-9.47s3.49 5.4 3.71 9.47l-2.73 1.34-2.37-8.1-1.12 5.83 1.11 7.26s4.08-3.51 11.47-3.66l1.11 2.02s-13.36 11.07-16.45 17.59c0 0 6.6-8.39 21.66-17.64l1.43-4.45 1.9-10.61s-1.8-15.3-.24-22.74Z" style="mix-blend-mode:multiply;opacity:.6;fill:url(#_Áåçûìÿííûé_ãðàäèåíò_48)"/><path d="M216.57 179.91c-1.24 3.72-14.25 19.21-15.68 22.57-1.44 3.35-2.3 7.74-2.3 7.74-6.39 13.82-21.85 15.73-21.85 15.73l-.71-12.47s-8.31-4.78-9.72-7.4l-.02-.05-.17-.44c-.42-2.44-.06-11.48-.06-11.48l14.55-5.89c6.31-8.18 21.66-17.64 21.66-17.64l.71-4.28c-11.02-5.42-9.17-21.82-7.31-23.83 1.86-2 5.3-2 5.3-2s4.03 13.19 6.6 19.36c2.59 6.16 10.23 16.35 8.99 20.07Z" style="fill:url(#_Áåçûìÿííûé_ãðàäèåíò_71-2)"/><path d="M172.73 158.83s1.63 15.06 6.38 22.23c0 0-6.05-7.51-6.53-19.15l.14-3.08ZM164.83 167.36s1.58 12.12 9.04 18.86c0 0-6.6-3.3-9.04-14.63z" class="cls-72"/><path d="M202.9 199.27s-16.4 15.93-26.87 14.2l.71 12.47s17.21-1.5 22.81-19.61c0 0 2.01-5.2 3.36-7.07Z" style="mix-blend-mode:multiply;opacity:.91;fill:url(#_Áåçûìÿííûé_ãðàäèåíò_73)"/><path d="M549.64 220.92s-15.06 27.54-32.7 36h-6.03L497 278.01s-8.99-5.65-9.66-24.19c0 0 3.15-3.29 3.92-6.99 0 0-4.97-3.91-6.31-6.77-1.33-2.88-1.82-11.48-2.77-15.02s-9.08-10.9-10.9-11.85-10.04-1.44-10.04-1.44-1.15-2.97 0-4.39c1.15-1.44 13.96-6.42 20.94-1.64 0 0 .48 3.63 1.24 5.56.77 1.91 6.89 8.69 7.84 8.69s5.07-3.44 6.89-6.12c1.74-2.57 10.99-22.51 13.23-29.25.02-.08.03-.14.06-.2.03-.11.08-.21.09-.3.03-.08.05-.14.06-.2.02-.03.03-.05.03-.08 1.73-5.83 11.76-17.02 17.12-20.07 0 0 2.29-.58 3.53 2.29 0 0-4.3 12.25-8.8 19.51-.76 1.23-1.57 2.66-2.42 4.21h-.02c-3.83 7.04-8.14 16.26-8.77 17.61l-.08.17 2.39 1.23 6.46-6.13 6.63-6.28 15.21 16.06-1.5 1.91-4.75 6.1 2.41.44 5.6-6.19 4.98 6.25Z" style="fill:url(#_Áåçûìÿííûé_ãðàäèåíò_71-3)"/><path d="m546.12 226.77-4.81 7.07s-26.42-20.38-32.16-22.1c-5.74-1.73-7.84-.58-7.84-.58l-5.92 7.55s10.9 9.66 11.85 22.66c0 0-3.63-16.44-15.97-21.42.95 0 5.07-3.44 6.89-6.12 1.74-2.57 10.99-22.51 13.23-29.25-.3 1.15-.7 3.39.24 5.16 1.3 2.41 8.96.14 9.42 0h.02l-8.78 17.61-.08.17 2.39 1.23 6.46-6.13-3.24 7.52 23.59 4.16-4.75 6.1 2.41.44 7.06 5.91Z" style="mix-blend-mode:multiply;opacity:.6;fill:url(#_Áåçûìÿííûé_ãðàäèåíò_48-2)"/><path d="M527.7 196.35s4.59-.67 7.55 5.26l-.67 1.91s4.47.88 8.8 8.13c0 0-3.82 6.98-13.29 10.14 0 0-4.4-1.24-5.16-4.97l.86-2.39-3.44 2.58s-4.11 1.24-5.93-4.88z" style="fill:url(#_Áåçûìÿííûé_ãðàäèåíò_64)"/><path d="M551.03 219.02s.96-4.4-3.73-7.27l-9.08 10.04s.27 3.22 4.21 3.92c0 0 6.21-2.1 8.61-6.69Z" style="fill:url(#_Áåçûìÿííûé_ãðàäèåíò_64-2)"/><path d="M484.96 240.06s10.52 11.74 25.96 16.86l-6.65 10.09-13.89-17.63.89-2.55s-5.55-4.17-6.31-6.77" style="mix-blend-mode:multiply;fill:url(#_Áåçûìÿííûé_ãðàäèåíò_73-2);opacity:.91"/><path d="M534.58 203.53s-4.4 7.27-8.8 10.9l-.86 2.39s8.54-5.76 11.68-12.42c0 0-1.02-.73-2.02-.87" class="cls-72"/><path d="M502.83 281.16c-1.33 2.1-8.02 6.51-9.75 8.24-1.73 1.71 0 7.37 0 7.37-28.11 29.84-57.42 44.78-60.37 46.23-.17.08-.24.12-.24.12-2.3.29-13.49-2.86-24.68-25.24-10.14-20.27-13.05-33.81-13.52-36.17l-.06-.36 2.47-3.35 3.66-41.3 2.57 8.31c9.75-11.76 18.94-29.82 18.94-29.82l.41 1.3v.02c1.65 6.48 5.04 30.75 8.19 39.41 1.97 5.4 5.07 8.39 7.36 9.93l.02.03-.02.02c-8.98 8.19-13.43 19.97-15.62 29.34-2.01 8.6-2.15 15.18-2.15 15.18s2.48-11.66 10.32-25.68c2.85-5.1 6.99-9.66 11.1-13.4 3.09-2.82 6.16-5.18 8.66-6.93 2.15 1.33 3.97 3.44 5.72 2.56-11.81 17.73-11.52 52.82-.42 46.13 11.08-6.69 13.62-20.89 13.62-20.89-2.62-17.3-1.84-36.82.27-40.53 2.55.08 9.87 5.23 10.29 5.11-.67 20.36 8.9 33.96 8.9 33.96l6.31-9.76c-9.19-15.49-8.51-30.57-8.51-30.57.38-.17 2.6 1.47 2.6 1.47l-1.56 1.94c2.39 13.78 10.23 23.04 10.23 23.04l5.25-7.69s1.35 9.89 0 11.99Z" style="mix-blend-mode:multiply;opacity:.5;fill:url(#_Áåçûìÿííûé_ãðàäèåíò_70-3)"/><path d="M381.12 408.52v6.03l-.11.11-.33.3-.27.23c-2.73 2.15-14.28 9.19-50.37 11.13-42.77 2.29-71.26-11.48-71.26-11.48l2.15-5.89s-2-1.71-2.15-2.57c-.14-.86 1.57-2.88 1.57-2.88s-4.3-2.29-4.3-5.16c0-2.59 7.02-10.08 8.16-17.12.14-.76.2-1.5.17-2.24-.29-7.57-6.83-14.28-7.74-18.58-.02-.05-.02-.06-.02-.06-.86-4.3 11.19-14.91 11.19-14.91-10.32-32.7-12.34-76.59-12.34-76.59l-2-2.3s-12.34 28.11-23.53 41.87c-11.19 13.78-27.54 25.54-30.4 24.96-6.6 0-13.97-11.48-20.66-25.63-6.69-14.16-7.1-54.82-7.45-57.33-.36-2.51-4.09-7.54-4.31-9.69 7.18 12.34 18.61 8.7 18.61 8.7-8.28.18-12.58-15.31-12.58-15.31l-.05-.11-.05-.11-4.04-10.67c.45.51 9.92 11.1 19.06 4.57 9.37-6.69 14.2-19.65 14.2-19.65v16.64s.56 2.59 1.42 2.59c-.56 7.66-2.18 16.99-4.15 26.18-4.25 19.88-10.08 39.07-10.08 39.07s15.81-8.6 21.36-30.4c2.65-10.43 3.09-19.5 2.83-26.1-.23-5.65-.97-9.51-1.27-10.92-.02-.11-.05-.21-.08-.32 0-.05-.02-.11-.03-.15 0-.03-.02-.06-.02-.08l1.53 3.24 2.91 7.21c3.38 27.98-3.59 70.14-3.59 70.14 10.14-12.63 12.25-40.54 11.81-47.32-.2-3.24-.45-7.24-.62-10.51-.23-3.57-.38-6.28-.38-6.28l20.76 12.38-3.83-12.14 15.11 12.14s13.58 16.35 27.54 18.26c13.96 1.92 65.2.77 65.2.77s-44.55 2.86-57.56 6.69c-13 3.83-15.49 8.22-15.49 8.22 9.4 47.82 61.43 63.95 63.05 64.43-47.2-7.09-69.17-47.22-69.17-47.22s-.77 22.57 2.86 31.17 25.06 29.64 52.59 34.03c2.32.36 4.6.59 6.86.7 23.22 1.09 42.45-10.78 44.42-12.05.11-.08.17-.11.17-.11s-.02.03-.05.08c-.74 1.14-10.26 14.52-48.72 15.99-2.33.09-4.6.08-6.81-.02h-.03c-35.64-1.5-53.79-25.24-53.79-25.24s-13.19 7.09-4.77 17.59c.09.11.18.23.27.33 2.48 2.86 7.95 6.36 14.41 9.96.18.11.36.21.53.3 7.81 4.31 16.97 8.77 24.06 12.44.05.02.08.03.11.05 4.33 2.26 7.89 4.19 9.87 5.65.02 0 .02.02.02.02 2 1.45 2.41 2.39.45 2.62-9.95 1.15-47.61-7.07-49.14-4.78-1.53 2.3 1.86 8.22 1.86 8.22 34.58 17.14 108.56 8.69 110.89 8.43-61.92 15.85-112.57-4.22-112.57-4.22l1.68 5.93s27.58 9.55 60.09 10.32c32.52.76 52.79-7.55 52.79-7.55l3.53-6.03Z" style="mix-blend-mode:multiply;opacity:.5;fill:url(#_Áåçûìÿííûé_ãðàäèåíò_70-4)"/><path d="M355.78 272.37s24.63 1.34 40.9 5.64l-8.39 12.73s-12.62-11.11-32.51-18.37" style="mix-blend-mode:multiply;opacity:.5;fill:url(#_Áåçûìÿííûé_ãðàäèåíò_4)"/><path d="M378.79 340.25s-15.36 12.82-30.47 18.75-29.64 6.5-29.64 6.5 8.69 2.58 30.06-.86 28.68-15.02 28.68-15.02z" style="mix-blend-mode:multiply;opacity:.5;fill:url(#_Áåçûìÿííûé_ãðàäèåíò_4-2)"/><path d="M385.69 389.62v.02c-28.43 7.34-64.52-3.19-64.22-4.48s9.89.58 32.11-3.88c21.54-4.31 29.35-11.98 29.82-12.44-.18 1.3-3.15 4.16-4 7.28-.58 2.07 3.45 8.61 6.28 13.5Z" style="mix-blend-mode:multiply;opacity:.5;fill:url(#_Áåçûìÿííûé_ãðàäèåíò_4-3)"/><path d="M308.46 276.22c-24.28 2.47-30.82 9.23-30.82 9.23-6.83.86-22.16-16.62-22.16-16.62l-2-2.3s-12.34 28.11-23.53 41.87a95 95 0 0 1-4.19 4.81l1.59-3.57s2.6-1.24 3.36-14.91c.77-13.66-5.74-34.03-5.78-36.8-.05-2.77-1-16.79-1-16.79l20.76 12.38-3.83-12.14 15.11 12.14s5.92 8.9 20.86 16.32c14.09 7.01 29.9 6.45 31.64 6.37Z" style="mix-blend-mode:multiply;opacity:.5;fill:url(#_Áåçûìÿííûé_ãðàäèåíò_4-4)"/><path d="m253.48 266.53 14.47-1.89s5.78 3.83 17.39 8.56l-9.68 14.27s3.84 20.34 14.86 31.81c0 0-29.25-16.25-33.36-29.91z" style="mix-blend-mode:multiply;opacity:.5;fill:url(#_Áåçûìÿííûé_ãðàäèåíò_4-5)"/><path d="m169.02 223.24 4.13 10.88s4.22 14.69 12.58 15.31 16.55-24.63 16.55-24.63v-16.64s-8.9 19.08-18.51 21.23-14.75-6.15-14.75-6.15" style="mix-blend-mode:multiply;fill:url(#_Áåçûìÿííûé_ãðàäèåíò_4-6);opacity:.5"/><path d="M219.05 214.62s7.46 14.91 16.64 19.5c0 0-10.91-26.49-8.61-42.07 0 0-4.01 2.5-8.02 22.57Z" style="mix-blend-mode:multiply;opacity:.5;fill:url(#_Áåçûìÿííûé_ãðàäèåíò_4-7)"/><path d="m400.34 236.71 2.57 8.31 2.61 68.2s-6.61-12.98-11.26-31.5l2.41-3.71s4.05-25.71 3.66-41.3Z" style="mix-blend-mode:multiply;fill:url(#_Áåçûìÿííûé_ãðàäèåíò_70-5);opacity:.76"/><path d="M479.6 256.78s-1.46 33.5 12.78 36.4l.71 3.58s-18.42-.68-13.49-39.98" style="mix-blend-mode:multiply;opacity:.5;fill:url(#_Áåçûìÿííûé_ãðàäèåíò_70-6)"/><path d="M455.84 266.97s-.55 1.2-5.72-2.56c0 0-17.91 12.68-24.81 30.57 0 0 11.04-16.43 16.91-18.2 5.87-1.78 7.29 4.78 7.29 4.78s2.32-9.24 6.33-14.58Z" style="mix-blend-mode:multiply;fill:url(#_Áåçûìÿííûé_ãðàäèåíò_70-7);opacity:.3"/><path d="M167.13 240.72s6.89 12.7 19.8 8.72c0 0-7.74 5.21-15.48.97 0 0-4.81-8.25-4.31-9.69Z" style="mix-blend-mode:multiply;opacity:.5;fill:url(#_Áåçûìÿííûé_ãðàäèåíò_4-8)"/><path d="M212.26 224.64s9.47 35.42-15.24 62.04c0 0 16.05-8.24 19.69-27.31 3.64-19.08-4.45-34.72-4.45-34.72Z" style="mix-blend-mode:multiply;opacity:.5;fill:url(#_Áåçûìÿííûé_ãðàäèåíò_70-8)"/><path d="M382.02 196.33s-1.07 15.99-8.73 27.46-22.87 19.22-22.87 19.22 19.08-7.03 27.82-16.92c8.75-9.9 3.77-29.76 3.77-29.76Z" style="mix-blend-mode:multiply;opacity:.5;fill:url(#_Áåçûìÿííûé_ãðàäèåíò_4-9)"/><path d="M284.45 172.27s0 13.37 4.3 27 41.65 37.43 41.65 37.43-38.49-15.99-45.95-30.37 0-34.06 0-34.06" style="mix-blend-mode:multiply;opacity:.5;fill:url(#_Áåçûìÿííûé_ãðàäèåíò_4-10)"/><path d="M279.36 234.26v21.78s50.13-.4 106.33 3.32l1.28-19.6s-48.86-5.79-107.62-5.5Z" class="cls-64"/><path d="M363.33 175.17c-1.18 14.08-5.47 23.89-10.04 30.51-6.3 9.08-13.11 12.19-13.11 12.19a78.7 78.7 0 0 1-17.8-10.73c-21.59-17.26-28.55-41.18-29.08-43.15 9.11 22.01 22.5 35.35 32.64 42.86 8.18 6.07 14.25 8.36 14.25 8.36v-7.04a47 47 0 0 1-4.69-2.06c-17.86-9.01-27.25-27.78-31.64-39.92-.02-.03-.02-.05-.03-.08-2.38-6.57-3.3-11.19-3.3-11.19h3.24l-1.06 2.27-.05.08c.51 2.3 1.11 4.51 1.77 6.62.02.06.03.12.06.17 9.99 31.52 35.7 41.68 35.7 41.68 17.86-13.19 17.52-34.12 17.52-34.12v-2.88l3.35 1 2.29 5.45Z" style="mix-blend-mode:multiply;opacity:.5;fill:url(#_Áåçûìÿííûé_ãðàäèåíò_70-9)"/><path d="M469.3 251.68s-4.86 15.86-.27 40.53c0 0 2.29-31.27 4.02-33.99 1.72-2.73 6.54-1.43 6.54-1.43s-7.59-4.19-10.29-5.11" style="mix-blend-mode:multiply;opacity:.3;fill:url(#_Áåçûìÿííûé_ãðàäèåíò_70-10)"/><path d="M422.19 337.93c-4.24-3.71-9.33-9.9-14.4-20.04-10.14-20.27-13.05-33.81-13.52-36.17l2.41-3.71 3.22-31.19 3.01-1.8s10.76-11.88 18.94-29.82c.12.27.26.7.41 1.3v.02c1.65 6.48 5.04 30.75 8.19 39.41 1.97 5.4 5.07 8.39 7.36 9.93 0 0-18.64 27.64-19.54 47.37-.8 17.95 3.19 23.8 3.92 24.71Z" style="mix-blend-mode:multiply;opacity:.5;fill:url(#_Áåçûìÿííûé_ãðàäèåíò_70-11)"/><path d="M311.54 395.58s-33.59-5.51-47.31-14.35c0 0-.02 0-.02-.02.14-.76.2-1.5.17-2.24-.29-7.57-6.83-14.28-7.74-18.58.15.41 1.14 2.68 5.9 6.77 3.01 2.59 7.57 5.92 14.41 9.96.18.11.36.21.53.3 9.69 5.72 18.03 9.6 24.06 12.44.05.02.08.03.11.05 5.42 2.54 8.93 4.22 9.87 5.65.02 0 .02.02.02.02" style="mix-blend-mode:multiply;opacity:.5;fill:url(#_Áåçûìÿííûé_ãðàäèåíò_70-12)"/><path d="M383.4 368.83c-.18 1.3-3.15 4.16-4 7.28 0 0-12.32 13.05-57.94 9.04.3-1.29 9.89.58 32.11-3.88 21.54-4.31 29.35-11.98 29.82-12.44Z" style="mix-blend-mode:multiply;opacity:.5;fill:url(#_Áåçûìÿííûé_ãðàäèåíò_70-13)"/><path d="m390.99 192.26-29.16 9.45-8.54 3.97-.05.02-5.56.02-7.51.02-4.69.38-2.48.18-7.07.56-3.56.29-34.97-12.66-6.25-2.26-28.76-10.42c.85-.33 1.71-.67 2.62-1.03 19.3-7.65 38.24-16.93 38.24-16.93l7.27-8.93h3.24c2.89-6.33 4.81-12.25 6.06-16.91l1.92-8.64c.14-.83.2-1.29.2-1.29l10.29 5.43 34.71 27.77c-.03 1.89.03 3.59.14 5.03l.5 3.5c.09-.68.12-1.07.12-1.07l3.35 1 2.29 5.45s3.88 6.03 19.23 12.78c2.65 1.17 5.5 2.63 8.43 4.31Z" style="mix-blend-mode:multiply;opacity:.5;fill:#7a4ac0"/><path d="M368.78 165.66s-13.59 3.06-28.6-4.21c-15-7.27-27.61-28.69-28.39-34.03-.76-5.36 5.74-19.32 5.74-30.22s-5.34-29.64 3.63-39.79c8.99-10.13 50.29-11.66 63.69 1.35 0 0 4.15 10.42 4.15 16.3 0 1.42-.26 3.51-.64 5.92-.12.89-.29 1.85-.44 2.83-1.2 7.13-2.85 15.84-2.07 19.65.27 1.33.7 2.56 1.2 3.72v.02c1.65 3.82 4.1 6.86 4.54 10.16.58 4.31-5.21 34.91-22.81 48.29Z" style="fill:url(#_Áåçûìÿííûé_ãðàäèåíò_71-4)"/><path d="M317.42 94.13s-3.71-9.31-13.03-9.45c0 0-5.45 2.15-6.31 6.31 0 0 2.01 15.06 4.3 22.09s10.71 6.01 10.71 6.01 7.32-11.21 4.33-24.96" style="fill:url(#_Áåçûìÿííûé_ãðàäèåíò_71-5)"/><path d="M353.25 124.79s3.1-.24 4.44.76 6.22 5.74 12.38 7.03c6.17 1.29 10.3-3.96 11.62-4.23 1.31-.27 2.76 1.59 2.76 1.59s-.57-2.15-3.78-3.12c0 0-1.3 4.95-10.24 3.25-8.94-1.69-12.74-5.67-12.74-5.67l-.45-.81s-2.52.52-3.99 1.2" style="fill:url(#_Áåçûìÿííûé_ãðàäèåíò_387)"/><path d="m340.06 78.47.12-.96s8.92-15.65 26.56-16.08 21.63 10.62 21.63 10.62l3.27-4.96-7.44-15.13-51.83-.86-12.62 10.18-1.59 24.93 5.61 32.91 13.65 7.28 3.85-3.42c-1.42-11.02-9.62-21.09-9.62-21.09l5.98-4.15s15.35 7.43 24.21 5.21c0 0 6.67-19.47 6.29-33.89 0 0-22.73 3.36-28.06 9.4Z" style="mix-blend-mode:multiply;opacity:.6;fill:url(#_Áåçûìÿííûé_ãðàäèåíò_48-3)"/><path d="M339.27 79.63s.86-5.64 10.38-7.89c10.6-2.51 19.21-4.64 19.21-4.64s-1.88 6.18-5.41 8.5c0 0-11.21-.41-16.89.88s-7.28 3.15-7.28 3.15ZM388.36 72.07s-5.38 4.15-9.04 14.04c0 0 3.51-4.59 6.74-4.52 2.21.05 1.86 2.23 1.86 2.23s2.2-5.92.44-11.76Z" class="cls-89"/><path d="M342.83 95.58s.57-11.9 12.19-14.92c0 0 4.16 5.38 4.59 11.47 0 0-6.17-1.15-16.78 3.44Z" style="fill:url(#_Áåçûìÿííûé_ãðàäèåíò_59)"/><path d="M376.1 100.31s.94-9.48 6.38-12.98c0 0 3.71 2.78 3.32 10.71 0 0-3.25-1.17-9.71 2.27Z" style="fill:url(#_Áåçûìÿííûé_ãðàäèåíò_184)"/><path d="M342.83 95.58s3.78 4.64 14.34 5.55c0 0 2.01-3.06 1.82-9.06 0 0-9.71-.93-16.16 3.52ZM376.1 100.31v1.39s1.63 3.39 7.46 3.97c0 0 1.88-2.93 2.04-7.68 0 0-3.71-.93-9.5 2.32" class="cls-65"/><path d="M354.12 91.81s-2.68 3.26-2.44 8.4c0 0 3.51.83 5.49.91 0 0 2.31-3.22 1.82-9.06 0 0-3.07-.66-4.87-.25M381.64 98.15s-1.52 1.62-1.81 6.61c0 0 2.08.91 3.73.91 0 0 2.12-3.02 2.04-7.68 0 0-1.48-.56-3.96.16" class="cls-80"/><path d="M353.25 100.57s-.96-6.43 2.72-8.89l3.01.38s1 5.09-1.82 9.06c0 0-2.99-.34-3.92-.55ZM382.97 97.86s-1.36 2.86-2 7.31c0 0 1.05.43 2.59.49 0 0 2.06-2.52 2.04-7.68 0 0-1.57-.42-2.63-.12" class="cls-89"/><path d="M342.83 95.58s7.03-4.09 19-1.76l-2.22-1.69s-8.53-2.65-16.78 3.44ZM376.1 100.31s5.64-2.99 12.21-1.41l-2.71-2s-4.41-.67-9.5 3.41" class="cls-116"/><path d="M350.43 95.58s1.91-.42 3.63 1.32c0 0-2.36.69-3.63-1.32M378.68 101.12s3-.58 4.03.78c0 0-1.6 1.1-4.03-.78" class="cls-49"/><path d="M343.53 96.27s5.46 5.4 14.21 6.69l.23-3.19-.8 1.35s-8.41-.5-13.64-4.85M376.1 101.7s.97 3.49 8.09 5.07l-.23-1.71-.4.61s-5.06-.65-7.46-3.97" class="cls-1"/><path d="M361.83 115.66s2.65-.57 7.53 0 10.36 1.91 13.35 0c0 0-3.98 3.98-7.43 4.59s-8.7-2.42-8.7-2.42l-2.29.04s-1.77-.87-2.46-2.21" style="fill:#cb5f7d"/><path d="M364.63 117.86s1.19-.77 2.2-.58c1 .19 2.03 1.65 2.03 1.65s-2.12-1.12-4.22-1.08Z" style="fill:#9f4a8b"/><path d="M382.71 115.66c1.27-1.24-5.32-12.99-8.48-13.43s-6.12 13.17-6.12 13.17 4.39.62 8.64 1.19c4.26.57 5.95-.93 5.95-.93Z" class="cls-92"/><path d="M387.43 78.66c-1.79-.23-8.1 7.45-8.1 7.45s-4.01 12.43-3.22 16.11c.79 3.69 10.54 5.65 10.54 5.65l.41-.65v-.02c-.5-1.17-.92-2.39-1.2-3.72-.77-3.82.88-12.52 2.07-19.65 0 0 .39-1.47.44-2.83.05-1.15-.12-2.24-.94-2.33Z" style="mix-blend-mode:multiply;opacity:.6;fill:url(#_Áåçûìÿííûé_ãðàäèåíò_48-4)"/><path d="M387.14 129.13c-2.01-4.21-.77-6.4-18.26-8.69-24.75-3.25-26.87 4.3-31.08 3.15-.15-.05-.33-.11-.5-.18-4.56-1.77-15.29-12.32-15.56-26.54-.29-14.78 9.61-25.25 9.61-25.25-3.59-3.01-5.03-11.75-1.15-15.49 3.88-3.72 10.48-2.86 26.68-1.15 16.21 1.73 16.21.73 16.21.73 5.15 1.32 8.1 6.15 8.93 7.69.17.3.24.48.24.48l2.01-1.86c5.45 7.89 4.45 16.49 4.45 16.49s8.89-18.08 7.87-20.63c-1.85-4.72-6.98-11.61-7.3-12.05l-.02-.02s-1.44-13.76-5.74-13.76-22.66 4.15-22.66 4.15c2.01-4.72 1.73-10.17 1.73-10.17l-.08.08c-6 5.37-11.85 5.96-20.15 9.81-4.18 1.95-6.15 3.75-7.77 5.63l-.56.67-.59.71c-.58.73-1.17 1.47-1.88 2.23-.03.05-.08.08-.09.09l-.05.05c-.67.73-1.45 1.47-2.41 2.26-5.45 4.44-17.44 7.4-18.88 12.1-1.44 4.68 1.82 11.08 3.54 17.68 1.71 6.6.92 12.43.92 12.43s5.71 7.36 3.82 18.12c-1.68 9.64-5.36 11.22-5.36 11.22-2.59 5.31-1.36 10.28-1.36 10.28 5.3 21.07 27.22 33.62 27.22 33.62 19.5 7.27 32.32 4.1 32.32 4.1l.02-.02c14.19-9.25 19.04-39.86 19.26-41.28-.24.38-2.88 4.47-3.41 3.35Zm-8.75 19.51c-3.44-.58-4.16-9.28-5.3-10.43-1.15-1.14-7.37-.67-7.37-.67s-5.74 6.51-8.02 6.69c-2.3.2-14.53-4.78-11.88-12.23 2.63-7.46 11.88-8.42 11.88-8.42s4.78 4.01 11.94 4.48c7.18.47 9.76-.85 10.61-1.23.86-.39 5.48 1.71 5.36 8.22-.08 4.53-3.77 14.16-7.22 13.58Z" style="fill:url(#_Áåçûìÿííûé_ãðàäèåíò_292)"/><path d="M377.5 104.84s6.18 7.68 5.59 10.56c-.65 3.16-7.8 4.84-7.8 4.84s5.74-1.98 6.92-4.84c0 0-1.47-5.82-4.7-10.56Z" style="fill:#d2726c"/><path d="M388.73 78.51s1-8.6-4.45-16.49c4.38-7.81 5.01-16.21 5.01-16.21l.02.02c1.48 3.65 2.33 10.75 2.33 10.75l4.97 1.3c1.01 2.56-7.87 20.63-7.87 20.63Z" style="fill:url(#_Áåçûìÿííûé_ãðàäèåíò_35);mix-blend-mode:multiply;opacity:.6"/><path d="M382.02 63.4c-.83-1.54-3.78-6.37-8.93-7.69 0 0 0 1-16.21-.73-16.2-1.71-22.8-2.57-26.68 1.15-3.88 3.74-2.44 12.47 1.15 15.49 0 0-9.9 10.48-9.61 25.25.27 14.22 11.01 24.77 15.56 26.54l-.21 1.57s.8 32.55 8.72 35.14c7.9 2.57 24.31 1.24 25.84 2.77s-.21 3.95-.36 4.18l-.02.02s-12.82 3.16-32.32-4.1c0 0-21.92-12.55-27.22-33.62 0 0-1.23-4.97 1.36-10.28 0 0 3.68-1.57 5.36-11.22 1.89-10.76-3.82-18.12-3.82-18.12s.79-5.83-.92-12.43c-1.73-6.6-4.98-13-3.54-17.68 9.17 1.44 15.2-3.35 15.2-3.35s1.6-2.23 8.7-3.38 35.64 1.73 35.64 1.73-2.86-2.38-8.89-3.95c-5.69-1.5-25.13.24-27.22.41 2.23-.39 24.27-4.18 26.78-3.42 2.66.79 12.2 5.16 12.2 5.16-.86-4.38-9.4-14.91-9.4-14.91s-12.05.21-19.94 1.86c-7.04 1.47-10.9 4.69-11.66 5.36l1.88-2.23.59-.71.56-.67 2.76-.47 13.84-5.59c4.65-2.48 10.6-8.63 11.32-9.39l.08-.08s.29 5.45-1.73 10.17c11.69-1.44 15.64-.71 15.64-.71 5.31 7.52 5.5 27.92 5.5 27.92Z" style="mix-blend-mode:multiply;opacity:.6;fill:url(#_Áåçûìÿííûé_ãðàäèåíò_52)"/><path d="M338.95 162.98s7.16-1.7 17.98-1.26c10.81.44 17.03.48 14.34 5.37 0 0-13.58 3.07-32.32-4.1Z" style="mix-blend-mode:multiply;opacity:.5;fill:url(#_Áåçûìÿííûé_ãðàäèåíò_397)"/><path d="M376.53 35.48s6.57-2.56 9.17-2.14c0 0-1.03-1.37-2.1-1.66-1.08-.29-22.7 4.51-22.7 4.51s13.49-1.57 15.64-.71Z" style="fill:url(#_Áåçûìÿííûé_ãðàäèåíò_141)"/><path d="M363.19 37.92s-.52 7.16-2.8 9.75l-26.78 3.42-7.86-1.39s3.04-1.3 6.38-5.2 20.8-7.73 31.06-6.59Z" style="fill:url(#_Áåçûìÿííûé_ãðàäèåíò_141-2)"/><path d="M389.29 45.81s2.18 7.04 2.35 10.76l4.97 1.3s-1.51-5.33-7.31-12.07Z" style="fill:url(#_Áåçûìÿííûé_ãðàäèåíò_141-3)"/><path d="M316.32 106.76s-1.88-9.04-6.5-13.51-9.88-3.04-9.88-3.04 1.43 16.76 2.94 20.84c1.51 4.09 3.8 5.16 3.8 5.16s-3.23-2.83-3.66-8.37-.57-13.36.65-14.29 6.15 2.7 6.15 2.7-1.56 1.91-2.49 6.84c-.93 4.94 2.51 8.52 3.8 8.45s-.07-5.71.14-7.34 3.08-1.27 5.04 2.53Z" style="mix-blend-mode:multiply;opacity:.8;fill:url(#_Áåçûìÿííûé_ãðàäèåíò_285)"/><path d="M311.71 95.53s-5.04 3.31-4.5 10.1 4.43 6.5 4.44 5.07-.74-5.1-.34-7.17c.39-2.08 3.74-1.14 3.74-1.14s-2.21-5.39-3.34-6.86" style="mix-blend-mode:multiply;fill:url(#_Áåçûìÿííûé_ãðàäèåíò_285-2);opacity:.8"/><path d="M390.55 125.79s-6.26 28.57-19.27 41.3c0 0 14.84-5.83 19.27-41.3M383.59 31.68s3.3 2.57 3.93 11.5-3.25 18.84-3.25 18.84 4.97-7.42 5.44-15.54c.48-8.13-3.51-13.77-6.13-14.8Z" class="cls-60"/><path d="M343.58 50.38s7.64 2.61 16.03 3.35 10.11.91 10.11.91-3.37-3.27-10.55-4.25-15.59 0-15.59 0Z" style="fill:url(#_Áåçûìÿííûé_ãðàäèåíò_141-4)"/><path d="M380.52 126.41s3.66 0 5.1 4.59c1.15 3.66 1.46 6.81 1.46 6.81l1.3-5.03s-1.69-6.37-3.45-7.81c-1.27-1.03-3.44-2.08-4.48-1.83l.07 3.26Z" style="fill:url(#_Áåçûìÿííûé_ãðàäèåíò_141-5)"/><path d="m370.66 121.82.62 5.45s4.46.36 7.41-.86l.53-3.3s-5.68-1.43-8.55-1.29Z" style="fill:url(#_Áåçûìÿííûé_ãðàäèåíò_141-6)"/><path d="M390.99 192.26s26.08 19.05 29.46 25.6c3.39 6.55 4.75 27.1 9.33 35.99 0 0-3.13-14.55-5.32-25.95-2.2-11.41-1.67-11.57-2.89-14.36-1.22-2.8-20.7-16.31-30.59-21.28ZM386.31 298.3s-12.57 53.81-12 57.44c.57 3.64 8.71 11.05 9.09 13.08 0 0-6.22 8.33-5.93 10.17s10.9 13.51 10.61 17.12c-.08 1.05-6.97 12.41-6.97 12.41s7.78-11.16 8.16-12.94-9.53-16.69-9.82-18.21c-.75-3.92 4.95-6.81 5.14-9.39s-7.71-8.89-7.78-13.1c-.06-4.21 9.5-56.59 9.5-56.59Z" class="cls-60"/><path d="M216.57 179.91s-7.03-1.5-9.95-7.64c-2.92-6.13-1.01-15.01-1.01-15.01s5.51 10.56 8.25 14.17 3.48 7.72 2.71 8.48" class="cls-92"/><path d="m433.52 147.84 4.87 138.97c.19 5.51 4.72 9.88 10.23 9.88h239.4c5.56 0 10.1-4.44 10.24-10l3.35-140.6c.14-5.78-4.53-10.52-10.3-10.48l-247.62 1.63c-5.77.04-10.37 4.83-10.17 10.6" style="opacity:.6;fill:#36d1f7"/><path d="M688.03 297.07h-239.4c-5.75 0-10.41-4.5-10.61-10.25l-4.87-138.97c-.1-2.89.95-5.63 2.95-7.72s4.7-3.25 7.59-3.27l247.62-1.63c2.88.01 5.61 1.11 7.64 3.18a10.54 10.54 0 0 1 3.04 7.7l-3.35 140.59c-.14 5.81-4.8 10.37-10.62 10.37Zm3.35-161.08h-.07l-247.62 1.63c-2.69.02-5.19 1.1-7.05 3.04a9.8 9.8 0 0 0-2.74 7.17l4.87 138.97a9.83 9.83 0 0 0 9.86 9.52h239.4c5.31 0 9.73-4.32 9.86-9.63l3.35-140.59c.06-2.69-.94-5.23-2.83-7.15a9.8 9.8 0 0 0-7.03-2.95Z" class="cls-48"/><path d="M433.88 154.91h267.45l.43-7.33c.38-6.48-4.8-11.93-11.29-11.88l-247.53 1.96c-5.17.04-9.31 4.29-9.21 9.46z" style="mix-blend-mode:multiply;opacity:.6;fill:url(#_Áåçûìÿííûé_ãðàäèåíò_89)"/><path d="M447.33 166.13v80.42h81.86V165.7z" style="mix-blend-mode:multiply;opacity:.3;fill:url(#_Áåçûìÿííûé_ãðàäèåíò_85)"/><path d="M608.31 171.52h35.61v35.61h-35.61z" style="mix-blend-mode:multiply;opacity:.3;fill:url(#_Áåçûìÿííûé_ãðàäèåíò_85-2)"/><path d="M650.33 171.52h35.61v35.61h-35.61z" style="mix-blend-mode:multiply;opacity:.3;fill:url(#_Áåçûìÿííûé_ãðàäèåíò_85-3)"/><path d="M565.59 171.52h35.61v35.61h-35.61z" style="mix-blend-mode:multiply;opacity:.3;fill:url(#_Áåçûìÿííûé_ãðàäèåíò_85-4)"/><path d="M594.87 227.9h91.07v8.53h-91.07zM572.1 240.88h113.84v2.64H572.1zM573.17 211.67h21.78v2.64h-21.78zM615.23 211.67h21.78v2.64h-21.78zM657.24 211.67h21.78v2.64h-21.78zM565.59 245.17h36.62v2.64h-36.62zM572.1 249.41h113.84v2.64H572.1zM565.59 253.65h120.35v2.64H565.59zM565.59 257.89h120.35v2.64H565.59zM572.1 275.03h113.84v2.64H572.1zM565.59 279.27h120.35v2.64H565.59zM565.59 283.51h120.35v2.64H565.59zM565.59 262.13h115.5v2.64h-115.5zM572.1 266.37h113.84v2.64H572.1zM565.59 270.61h97.5v2.64h-97.5z" class="cls-35"/><g class="cls-75"><path d="M470.27 230.42c-12.84 0-23.29-10.45-23.29-23.29s10.45-23.29 23.29-23.29 23.29 10.45 23.29 23.29-10.45 23.29-23.29 23.29m0-45.06c-12.01 0-21.78 9.77-21.78 21.78s9.77 21.77 21.78 21.77 21.77-9.77 21.77-21.77-9.77-21.78-21.77-21.78" class="cls-112"/></g><circle cx="470.26" cy="207.13" r="12.66" class="cls-49"/><g class="cls-75"><path d="M529.2 188.99c-12.84 0-23.29-10.45-23.29-23.29s10.45-23.29 23.29-23.29 23.29 10.45 23.29 23.29-10.45 23.29-23.29 23.29m0-45.06c-12.01 0-21.78 9.77-21.78 21.78s9.77 21.77 21.78 21.77 21.77-9.77 21.77-21.77-9.77-21.78-21.77-21.78" class="cls-112"/></g><circle cx="529.19" cy="165.7" r="11.91" class="cls-49" transform="rotate(-81.06 529.176 165.715)"/><g class="cls-75"><path d="m443.25 144 1.7-2.58 9.21 8.07-1.42 1.96z" class="cls-49"/><path d="m454.39 144-1.7-2.58-9.2 8.07 1.41 1.96z" class="cls-49"/></g><path d="M612.44 143.17h82.42v4.13h-82.42z" class="cls-49"/><path d="M178.72 83.51v35.76l42.78.37.58-37.28z" class="cls-64"/><path d="m222.08 82.36 2.79 4.7-1.4 32.54-1.97.04z" style="fill:url(#linear-gradient)"/><path d="m186.36 95.58 3.95-5.74 21.36 17.93-3.27 4.37z" class="cls-49"/><path d="m212.22 95.58-3.95-5.74-21.36 17.93 3.28 4.37z" class="cls-49"/><path d="M278.52 504.46H132.14c-6.51 0-11.84-5.2-11.99-11.72l-2.73-120.06c-.15-6.73 5.26-12.26 11.99-12.26h152.4c6.75 0 12.17 5.57 11.98 12.32L290.5 492.8c-.18 6.49-5.49 11.66-11.98 11.66" style="fill:url(#_Áåçûìÿííûé_ãðàäèåíò_115);opacity:.81"/><path d="M278.52 504.84H132.14c-6.67 0-12.21-5.42-12.36-12.08l-2.73-120.06c-.08-3.36 1.17-6.53 3.52-8.93a12.28 12.28 0 0 1 8.84-3.72h152.4c3.37 0 6.52 1.33 8.86 3.74a12.27 12.27 0 0 1 3.5 8.96l-3.29 120.06c-.19 6.74-5.62 12.03-12.36 12.03M129.41 360.8c-3.15 0-6.1 1.24-8.3 3.49a11.54 11.54 0 0 0-3.31 8.38l2.73 120.06c.14 6.26 5.35 11.35 11.61 11.35h146.38c6.33 0 11.43-4.96 11.61-11.29l3.29-120.06a11.5 11.5 0 0 0-3.28-8.41 11.5 11.5 0 0 0-8.32-3.51h-152.4Z" style="fill:#473da2"/><path d="M156.88 384.98h76.98v3.3h-76.98zM156.88 393h38.49v3.3h-38.49zM156.88 399.69h38.49v3.3h-38.49zM199.69 399.69h30.62v3.3h-30.62zM156.88 406.38h62.05v3.3h-62.05zM156.88 413.08h22.09v3.3h-22.09zM183.51 433.16h38.2v3.3h-38.2zM156.88 419.77h69.23v3.3h-69.23zM156.88 426.46h53.26v3.3h-53.26zM156.88 433.16h25.05v3.3h-25.05zM156.88 439.85h38.49v3.3h-38.49zM156.88 446.54h11.04v3.3h-11.04zM172.47 446.54h40.06v3.3h-40.06zM183.51 453.04h38.2v3.3h-38.2zM156.88 453.04h25.05v3.3h-25.05zM156.88 459.73h38.49v3.3h-38.49zM156.88 466.42h11.04v3.3h-11.04zM172.47 466.42h40.06v3.3h-40.06z" class="cls-49"/><path d="M671.3 108.82c0 3.74-3.03 6.77-6.77 6.77s-6.77-3.03-6.77-6.77 3.03-6.77 6.77-6.77 6.77 3.03 6.77 6.77" style="fill:url(#_Áåçûìÿííûé_ãðàäèåíò_302)"/><path d="M37.12 265.71a8.42 8.42 0 1 1-16.84 0 8.42 8.42 0 0 1 16.84 0" style="fill:url(#_Áåçûìÿííûé_ãðàäèåíò_302-2)"/><circle cx="684.4" cy="108.82" r="6.77" style="fill:url(#_Áåçûìÿííûé_ãðàäèåíò_322)"/><circle cx="248.14" cy="155.33" r="4.78" style="fill:url(#_Áåçûìÿííûé_ãðàäèåíò_322-2)"/><circle cx="568.57" cy="366.43" r="4.78" style="fill:url(#_Áåçûìÿííûé_ãðàäèåíò_25)"/><circle cx="71.22" cy="414.12" r="4.28" style="fill:url(#_Áåçûìÿííûé_ãðàäèåíò_25-2)"/><path d="M144.12 372.13H70.24c-5.94 0-10.82-4.71-11.02-10.65l-1.64-48.59c-.21-6.23 4.78-11.4 11.02-11.4h77c6.22 0 11.21 5.14 11.02 11.36l-1.49 48.59c-.18 5.96-5.06 10.69-11.02 10.69Z" class="cls-63"/><path d="M144.12 372.51H70.24c-6.18 0-11.19-4.84-11.4-11.02L57.2 312.9c-.1-3.12 1.03-6.07 3.2-8.31s5.08-3.48 8.2-3.48h77c3.11 0 6.02 1.23 8.19 3.46 2.17 2.24 3.31 5.18 3.21 8.29l-1.49 48.59c-.19 6.2-5.2 11.06-11.4 11.06ZM68.6 301.87c-2.91 0-5.63 1.15-7.65 3.25a10.57 10.57 0 0 0-2.99 7.76l1.64 48.59a10.61 10.61 0 0 0 10.64 10.29h73.88c5.79 0 10.47-4.53 10.64-10.32l1.49-48.59c.09-2.9-.98-5.65-3-7.74a10.54 10.54 0 0 0-7.64-3.23h-77Z" class="cls-61"/><path d="m89.94 318.95-18.22 21.11 18.55 15.75v-8.13l-10.73-9.29 9.97-11.27zM121.96 319.89l18.21 21.12-18.55 15.74v-8.12l10.73-9.29-11.94-12.64zM93.91 355.81l15.87-34.97h7.46l-17.98 34.97z" class="cls-49"/><path d="M641.18 472.13h-92.42c-7.44 0-13.53-5.9-13.79-13.33l-2.05-60.79c-.26-7.8 5.99-14.26 13.79-14.26h96.33c7.78 0 14.03 6.44 13.79 14.21l-1.86 60.79c-.23 7.45-6.33 13.37-13.79 13.37Z" class="cls-63"/><path d="M641.18 472.5h-92.42c-7.68 0-13.9-6.02-14.16-13.69l-2.05-60.79c-.13-3.87 1.28-7.54 3.98-10.33 2.69-2.79 6.31-4.32 10.19-4.32h96.33c3.87 0 7.48 1.53 10.17 4.3 2.69 2.78 4.11 6.44 3.99 10.3l-1.86 60.79c-.24 7.7-6.46 13.74-14.17 13.74m-94.47-88.37c-3.67 0-7.09 1.45-9.64 4.09s-3.89 6.11-3.76 9.78l2.05 60.79c.24 7.27 6.13 12.96 13.41 12.96h92.42c7.3 0 13.19-5.71 13.41-13.01l1.86-60.79c.11-3.66-1.23-7.12-3.78-9.75a13.3 13.3 0 0 0-9.63-4.07h-96.33Z" class="cls-61"/><path d="M551.44 393.54h84.64v50.27h-84.64z" class="cls-35"/><path d="M586.27 406.01v25.32l21.63-13.82z" class="cls-49"/><path d="M551.44 453.07h84.64v4.6h-84.64z" class="cls-35"/><path d="M551.44 453.07h21.91v4.6h-21.91z" class="cls-49"/><path d="m489.43 377.65-4.42 12.64c2.44-6.99 5.95-11.52 4.42-12.64m-4.42 12.64-4.43 12.64c1.11-.33 1.98-5.65 4.43-12.64m4.42-12.64-4.42 12.64c2.44-6.99 5.95-11.52 4.42-12.64m-4.42 12.64-4.43 12.64c1.11-.33 1.98-5.65 4.43-12.64m12.75 10.95 4.29 2.43 4.63-12.64-4.96-.83c.09-.47.18-.94.24-1.4.36-2.17.48-4.29.42-6.3l5.19-3.26-2.37-11.14-4.98 4.76c-.69-1.43-1.55-2.67-2.54-3.71-.27-.3-.56-.58-.86-.84l3.04-7.02-8.1-2.64-1.94 7.08c-1.81 0-3.65.46-5.48 1.28l-.89-6.69-8.91 6.75 2.06 5.93c-1.61 1.83-3.08 3.95-4.35 6.33l-4.29-2.42-4.63 12.64 4.96.83c-.53 2.67-.73 5.26-.66 7.7l-5.19 3.26 2.37 11.14 4.98-4.76c.89 1.82 2.03 3.36 3.41 4.54l-3.05 7.04 7.97 3.11 1.23-4.49.84-3.06c1.81 0 3.67-.46 5.49-1.28l.88 6.69 8.91-6.75-2.06-5.93a33.3 33.3 0 0 0 3.51-4.85c.3-.49.57-.99.84-1.49Zm-12.75-10.95c-2.45 6.98 0 14.18-4.43 12.64-4.44-1.56-6.06-8.48-3.61-15.45 2.45-6.98 8.02-11.38 12.45-9.83 4.44 1.55-1.98 5.65-4.42 12.64Zm4.42-12.64-4.42 12.64c2.44-6.99 5.95-11.52 4.42-12.64m-4.42 12.64-4.43 12.64c1.11-.33 1.98-5.65 4.43-12.64" style="fill-rule:evenodd;fill:url(#_Áåçûìÿííûé_ãðàäèåíò_206)"/><path d="m502.06 403.67 4.63-12.64-4.72-2.23-.76-.36.5-6.96 5.24-2.56-1.73-10.82-11.42-3.72 2.1 5.02 3.98-8.11-8.1-2.64-3.33-1.09-7.98-3.11-1.49 5.44-6.94-3.3-8.91 6.75 2.7 7.29-8.34 23.11-4.12 15.01 7.91.87-2.58 5.95 7.98 3.11 11.42 3.72-1.83-3.67-1.15-2.2 4.22 1.38 7.21 2.35 8.91-6.75-5.51-6.49 6.96-4.29 5.14.94Zm-25.08-16.19c2.45-6.98 8.02-11.38 12.45-9.83l-4.42 12.64-4.43 12.64c-4.44-1.56-6.06-8.48-3.61-15.45Z" style="fill-rule:evenodd;fill:url(#_Áåçûìÿííûé_ãðàäèåíò_206-2)"/><path d="m490.64 399.94 4.63-12.64-4.97-.83c.52-2.66.73-5.25.66-7.7l5.19-3.26-2.37-11.14-4.98 4.76c-.88-1.82-2.03-3.36-3.41-4.54l3.05-7.03-7.98-3.11-2.07 7.55c-1.81 0-3.66.46-5.49 1.28l-.88-6.68-8.91 6.74 2.05 5.93c-1.6 1.83-3.07 3.96-4.35 6.34l-4.3-2.42-4.63 12.64 4.97.83c-.52 2.66-.73 5.25-.66 7.7l-5.19 3.26 2.37 11.14 4.98-4.76c.88 1.82 2.03 3.36 3.41 4.54l-3.05 7.03 7.98 3.11 2.07-7.55c1.81 0 3.66-.46 5.49-1.28l.88 6.68 8.91-6.74-2.05-5.93c1.6-1.83 3.07-3.96 4.35-6.34zm-21.48-.74c-4.43-1.55-6.05-8.47-3.6-15.45 2.44-6.98 8.02-11.38 12.46-9.82 4.43 1.55 6.05 8.47 3.6 15.45-2.44 6.98-8.02 11.38-12.45 9.82Z" style="fill-rule:evenodd;fill:url(#_Áåçûìÿííûé_ãðàäèåíò_107)"/><path d="m507.57 379.23-11.42-3.72-5.19 3.26 11.42 3.72z" class="cls-39"/><path d="m495.47 413.51-11.43-3.72-2.05-5.93 11.42 3.72z" style="fill-rule:evenodd;mix-blend-mode:soft-light;fill:#b3d9ff"/><path d="m485.4 364.59 6.27 1.81 2.11-2.03 4.16 1.36 1.93-4.45-11.42-3.72zM468.76 411.12l5.98 2.49-.5-3.77s-3.22 1.7-5.49 1.28ZM469.68 376.87l10.07 5.33s1.46-1.96 2.59-2.74c0 0-2.63-11.11-12.66-2.58Z" class="cls-39"/><path d="m238.43 0 9.71 19.45-6.49 2.95-9.08-17.86z" style="fill:#ff1d9c"/><path d="m19.74 453.18 8.99 9.86 3.53-4.07-8.48-9.34z" style="fill:#6877ff"/><path d="m476.61 118.7-9.06 5.49-3.63-6.88 9.9-5.78zM521.18 466.47l-12.97 9.21-3.63-6.88 12.59-7.35z" class="cls-77"/><path d="m504.04 71.66-2.19-50.95h66.72l-2.74 50.81z" style="fill-rule:evenodd;fill:url(#_Áåçûìÿííûé_ãðàäèåíò_107-2)"/><path d="m501.85 20.71-2 3 2 47.95h2.19z" style="fill-rule:evenodd;fill:url(#_Áåçûìÿííûé_ãðàäèåíò_206-3)"/><path d="m524 30.88-10.47-1.12 1.44 34.91 9.03-.88v-3.62l-5.23.13-.6-26.93 5.83.17zM545.44 30.88l10.47-1.12-1.43 34.91-9.04-.88v-3.62l5.24.13.6-26.93-5.84.17z" class="cls-49"/><path d="m43.99 183.21 1.49-34.74H0l1.87 34.64z" style="fill:url(#_Áåçûìÿííûé_ãðàäèåíò_107-3);fill-rule:evenodd"/><path d="m45.48 148.47 1.37 2.05-1.37 32.69h-1.49z" style="fill-rule:evenodd;fill:url(#_Áåçûìÿííûé_ãðàäèåíò_206-4)"/><path d="M27.96 155.46s4.99-.19 5.87.21c.88.41-.23 8.53-.23 8.53l1.99 1.83-1.86 1.8s.1 8.24-1.08 8.92-5.18 0-5.18 0v-2.05s3.28.21 3.81-.23.49-7.64.49-7.64l.88-.96-.88-1.04s.16-5.13.06-6.54c-.06-.94-3.88-.99-3.88-.99v-1.84ZM16.54 155.46s-4.99-.19-5.87.21.23 8.53.23 8.53l-1.99 1.83 1.86 1.8s-.1 8.24 1.08 8.92 5.18 0 5.18 0v-2.05s-3.28.21-3.81-.23-.49-7.64-.49-7.64l-.88-.96.88-1.04s-.16-5.13-.07-6.54c.07-.94 3.88-.99 3.88-.99z" class="cls-49"/><path d="m427.77 76.25-11.15-29.17 28.9 6.04-17.76 23.13Zm-9.95-28.15 10.17 26.61 16.2-21.1zM507.05 489.369l9.789-13.357.613.45-9.79 13.356zM415.75 366.66l-10.52-13.08.59-.48 10.52 13.09zM91.27 458.59l-20.99-15.23.45-.61 20.99 15.23z" class="cls-48"/><path d="m72.83 460.764 15.712-20.626.605.46-15.713 20.627zM43.801 228.144l.354-.673 13.588 7.14-.354.673zM579.45 52.09l-.56-.5 15.7-17.91.57.5zM273.782 95.74l.68-.338 7.015 14.1-.68.34zM162.705 347.928l18.05-15.096.487.583-18.05 15.096z" class="cls-48"/><text style="fill:#ebefff;font-family:Lato-Black,Lato;font-size:18.17px;font-weight:800" transform="rotate(2.68 -5215.234 6553.01)scale(1.14 1)"><tspan x="0" y="0" style="letter-spacing:-.02em">S</tspan><tspan x="9.76" y="0">A</tspan><tspan x="22.68" y="0" style="letter-spacing:-.02em">A</tspan><tspan x="35.16" y="0">QI</tspan></text></g></g></g></svg>